<svg width="1280" height="800" viewBox="0 0 1280 800" fill="none" xmlns="http://www.w3.org/2000/svg">
<g clip-path="url(#clip0_79_39512)">
<rect y="-10" width="60.9524" height="60.9524" stroke="white" stroke-opacity="0.03" stroke-width="1.21905"/>
<rect x="60.9524" y="-10" width="60.9524" height="60.9524" stroke="white" stroke-opacity="0.03" stroke-width="1.21905"/>
<rect x="121.905" y="-10" width="60.9524" height="60.9524" stroke="white" stroke-opacity="0.03" stroke-width="1.21905"/>
<rect x="182.857" y="-10" width="60.9524" height="60.9524" stroke="white" stroke-opacity="0.03" stroke-width="1.21905"/>
<rect x="243.81" y="-10" width="60.9524" height="60.9524" stroke="white" stroke-opacity="0.03" stroke-width="1.21905"/>
<rect x="304.762" y="-10" width="60.9524" height="60.9524" stroke="white" stroke-opacity="0.03" stroke-width="1.21905"/>
<rect x="365.714" y="-10" width="60.9524" height="60.9524" stroke="white" stroke-opacity="0.03" stroke-width="1.21905"/>
<rect x="426.667" y="-10" width="60.9524" height="60.9524" stroke="white" stroke-opacity="0.03" stroke-width="1.21905"/>
<rect x="487.619" y="-10" width="60.9524" height="60.9524" stroke="white" stroke-opacity="0.03" stroke-width="1.21905"/>
<rect x="548.572" y="-10" width="60.9524" height="60.9524" stroke="white" stroke-opacity="0.03" stroke-width="1.21905"/>
<rect x="609.524" y="-10" width="60.9524" height="60.9524" stroke="white" stroke-opacity="0.03" stroke-width="1.21905"/>
<rect x="670.476" y="-10" width="60.9524" height="60.9524" stroke="white" stroke-opacity="0.03" stroke-width="1.21905"/>
<rect x="731.429" y="-10" width="60.9524" height="60.9524" stroke="white" stroke-opacity="0.03" stroke-width="1.21905"/>
<rect x="792.381" y="-10" width="60.9524" height="60.9524" stroke="white" stroke-opacity="0.03" stroke-width="1.21905"/>
<rect x="853.333" y="-10" width="60.9524" height="60.9524" stroke="white" stroke-opacity="0.03" stroke-width="1.21905"/>
<rect x="914.286" y="-10" width="60.9524" height="60.9524" stroke="white" stroke-opacity="0.03" stroke-width="1.21905"/>
<rect x="975.238" y="-10" width="60.9524" height="60.9524" stroke="white" stroke-opacity="0.03" stroke-width="1.21905"/>
<rect x="1036.19" y="-10" width="60.9524" height="60.9524" stroke="white" stroke-opacity="0.03" stroke-width="1.21905"/>
<rect x="1097.14" y="-10" width="60.9524" height="60.9524" stroke="white" stroke-opacity="0.03" stroke-width="1.21905"/>
<rect x="1158.1" y="-10" width="60.9524" height="60.9524" stroke="white" stroke-opacity="0.03" stroke-width="1.21905"/>
<rect x="1219.05" y="-10" width="60.9524" height="60.9524" stroke="white" stroke-opacity="0.03" stroke-width="1.21905"/>
<rect y="50.9492" width="60.9524" height="60.9524" stroke="white" stroke-opacity="0.03" stroke-width="1.21905"/>
<rect x="60.9524" y="50.9492" width="60.9524" height="60.9524" stroke="white" stroke-opacity="0.03" stroke-width="1.21905"/>
<rect x="121.905" y="50.9492" width="60.9524" height="60.9524" fill="white" fill-opacity="0.02" stroke="white" stroke-opacity="0.03" stroke-width="1.21905"/>
<rect x="182.857" y="50.9492" width="60.9524" height="60.9524" stroke="white" stroke-opacity="0.03" stroke-width="1.21905"/>
<rect x="243.81" y="50.9492" width="60.9524" height="60.9524" stroke="white" stroke-opacity="0.03" stroke-width="1.21905"/>
<rect x="304.762" y="50.9492" width="60.9524" height="60.9524" stroke="white" stroke-opacity="0.03" stroke-width="1.21905"/>
<rect x="365.714" y="50.9492" width="60.9524" height="60.9524" stroke="white" stroke-opacity="0.03" stroke-width="1.21905"/>
<rect x="426.667" y="50.9492" width="60.9524" height="60.9524" stroke="white" stroke-opacity="0.03" stroke-width="1.21905"/>
<rect x="487.619" y="50.9492" width="60.9524" height="60.9524" stroke="white" stroke-opacity="0.03" stroke-width="1.21905"/>
<rect x="548.572" y="50.9492" width="60.9524" height="60.9524" fill="white" fill-opacity="0.02" stroke="white" stroke-opacity="0.03" stroke-width="1.21905"/>
<rect x="609.524" y="50.9492" width="60.9524" height="60.9524" stroke="white" stroke-opacity="0.03" stroke-width="1.21905"/>
<rect x="670.476" y="50.9492" width="60.9524" height="60.9524" stroke="white" stroke-opacity="0.03" stroke-width="1.21905"/>
<rect x="731.429" y="50.9492" width="60.9524" height="60.9524" stroke="white" stroke-opacity="0.03" stroke-width="1.21905"/>
<rect x="792.381" y="50.9492" width="60.9524" height="60.9524" stroke="white" stroke-opacity="0.03" stroke-width="1.21905"/>
<rect x="853.333" y="50.9492" width="60.9524" height="60.9524" stroke="white" stroke-opacity="0.03" stroke-width="1.21905"/>
<rect x="914.286" y="50.9492" width="60.9524" height="60.9524" stroke="white" stroke-opacity="0.03" stroke-width="1.21905"/>
<rect x="975.238" y="50.9492" width="60.9524" height="60.9524" stroke="white" stroke-opacity="0.03" stroke-width="1.21905"/>
<rect x="1036.19" y="50.9492" width="60.9524" height="60.9524" stroke="white" stroke-opacity="0.03" stroke-width="1.21905"/>
<rect x="1097.14" y="50.9492" width="60.9524" height="60.9524" stroke="white" stroke-opacity="0.03" stroke-width="1.21905"/>
<rect x="1158.1" y="50.9492" width="60.9524" height="60.9524" stroke="white" stroke-opacity="0.03" stroke-width="1.21905"/>
<rect x="1219.05" y="50.9492" width="60.9524" height="60.9524" stroke="white" stroke-opacity="0.03" stroke-width="1.21905"/>
<rect y="111.904" width="60.9524" height="60.9524" stroke="white" stroke-opacity="0.03" stroke-width="1.21905"/>
<rect x="60.9524" y="111.904" width="60.9524" height="60.9524" stroke="white" stroke-opacity="0.03" stroke-width="1.21905"/>
<rect x="121.905" y="111.904" width="60.9524" height="60.9524" stroke="white" stroke-opacity="0.03" stroke-width="1.21905"/>
<rect x="182.857" y="111.904" width="60.9524" height="60.9524" stroke="white" stroke-opacity="0.03" stroke-width="1.21905"/>
<rect x="243.81" y="111.904" width="60.9524" height="60.9524" stroke="white" stroke-opacity="0.03" stroke-width="1.21905"/>
<rect x="304.762" y="111.904" width="60.9524" height="60.9524" stroke="white" stroke-opacity="0.03" stroke-width="1.21905"/>
<rect x="365.714" y="111.904" width="60.9524" height="60.9524" stroke="white" stroke-opacity="0.03" stroke-width="1.21905"/>
<rect x="426.667" y="111.904" width="60.9524" height="60.9524" stroke="white" stroke-opacity="0.03" stroke-width="1.21905"/>
<rect x="487.619" y="111.904" width="60.9524" height="60.9524" stroke="white" stroke-opacity="0.03" stroke-width="1.21905"/>
<rect x="548.572" y="111.904" width="60.9524" height="60.9524" stroke="white" stroke-opacity="0.03" stroke-width="1.21905"/>
<rect x="609.524" y="111.904" width="60.9524" height="60.9524" stroke="white" stroke-opacity="0.03" stroke-width="1.21905"/>
<rect x="670.476" y="111.904" width="60.9524" height="60.9524" stroke="white" stroke-opacity="0.03" stroke-width="1.21905"/>
<rect x="731.429" y="111.904" width="60.9524" height="60.9524" stroke="white" stroke-opacity="0.03" stroke-width="1.21905"/>
<rect x="792.381" y="111.904" width="60.9524" height="60.9524" stroke="white" stroke-opacity="0.03" stroke-width="1.21905"/>
<rect x="853.333" y="111.904" width="60.9524" height="60.9524" stroke="white" stroke-opacity="0.03" stroke-width="1.21905"/>
<rect x="914.286" y="111.904" width="60.9524" height="60.9524" stroke="white" stroke-opacity="0.03" stroke-width="1.21905"/>
<rect x="975.238" y="111.904" width="60.9524" height="60.9524" fill="white" fill-opacity="0.02" stroke="white" stroke-opacity="0.03" stroke-width="1.21905"/>
<rect x="1036.19" y="111.904" width="60.9524" height="60.9524" stroke="white" stroke-opacity="0.03" stroke-width="1.21905"/>
<rect x="1097.14" y="111.904" width="60.9524" height="60.9524" stroke="white" stroke-opacity="0.03" stroke-width="1.21905"/>
<rect x="1158.1" y="111.904" width="60.9524" height="60.9524" stroke="white" stroke-opacity="0.03" stroke-width="1.21905"/>
<rect x="1219.05" y="111.904" width="60.9524" height="60.9524" stroke="white" stroke-opacity="0.03" stroke-width="1.21905"/>
<rect y="172.854" width="60.9524" height="60.9524" stroke="white" stroke-opacity="0.03" stroke-width="1.21905"/>
<rect x="60.9524" y="172.854" width="60.9524" height="60.9524" stroke="white" stroke-opacity="0.03" stroke-width="1.21905"/>
<rect x="121.905" y="172.854" width="60.9524" height="60.9524" stroke="white" stroke-opacity="0.03" stroke-width="1.21905"/>
<rect x="182.857" y="172.854" width="60.9524" height="60.9524" stroke="white" stroke-opacity="0.03" stroke-width="1.21905"/>
<rect x="243.809" y="172.854" width="60.9524" height="60.9524" stroke="white" stroke-opacity="0.03" stroke-width="1.21905"/>
<rect x="304.762" y="172.854" width="60.9524" height="60.9524" stroke="white" stroke-opacity="0.03" stroke-width="1.21905"/>
<rect x="365.714" y="172.854" width="60.9524" height="60.9524" stroke="white" stroke-opacity="0.03" stroke-width="1.21905"/>
<rect x="426.667" y="172.854" width="60.9524" height="60.9524" stroke="white" stroke-opacity="0.03" stroke-width="1.21905"/>
<rect x="487.619" y="172.854" width="60.9524" height="60.9524" stroke="white" stroke-opacity="0.03" stroke-width="1.21905"/>
<rect x="548.572" y="172.854" width="60.9524" height="60.9524" stroke="white" stroke-opacity="0.03" stroke-width="1.21905"/>
<rect x="609.524" y="172.854" width="60.9524" height="60.9524" stroke="white" stroke-opacity="0.03" stroke-width="1.21905"/>
<rect x="670.476" y="172.854" width="60.9524" height="60.9524" stroke="white" stroke-opacity="0.03" stroke-width="1.21905"/>
<rect x="731.429" y="172.854" width="60.9524" height="60.9524" stroke="white" stroke-opacity="0.03" stroke-width="1.21905"/>
<rect x="792.381" y="172.854" width="60.9524" height="60.9524" stroke="white" stroke-opacity="0.03" stroke-width="1.21905"/>
<rect x="853.333" y="172.854" width="60.9524" height="60.9524" stroke="white" stroke-opacity="0.03" stroke-width="1.21905"/>
<rect x="914.286" y="172.854" width="60.9524" height="60.9524" stroke="white" stroke-opacity="0.03" stroke-width="1.21905"/>
<rect x="975.238" y="172.854" width="60.9524" height="60.9524" stroke="white" stroke-opacity="0.03" stroke-width="1.21905"/>
<rect x="1036.19" y="172.854" width="60.9524" height="60.9524" stroke="white" stroke-opacity="0.03" stroke-width="1.21905"/>
<rect x="1097.14" y="172.854" width="60.9524" height="60.9524" stroke="white" stroke-opacity="0.03" stroke-width="1.21905"/>
<rect x="1158.1" y="172.854" width="60.9524" height="60.9524" stroke="white" stroke-opacity="0.03" stroke-width="1.21905"/>
<rect x="1219.05" y="172.854" width="60.9524" height="60.9524" stroke="white" stroke-opacity="0.03" stroke-width="1.21905"/>
<rect y="233.81" width="60.9524" height="60.9524" stroke="white" stroke-opacity="0.03" stroke-width="1.21905"/>
<rect x="60.9524" y="233.81" width="60.9524" height="60.9524" stroke="white" stroke-opacity="0.03" stroke-width="1.21905"/>
<rect x="121.905" y="233.81" width="60.9524" height="60.9524" stroke="white" stroke-opacity="0.03" stroke-width="1.21905"/>
<rect x="182.857" y="233.81" width="60.9524" height="60.9524" fill="white" fill-opacity="0.02" stroke="white" stroke-opacity="0.03" stroke-width="1.21905"/>
<rect x="243.809" y="233.81" width="60.9524" height="60.9524" stroke="white" stroke-opacity="0.03" stroke-width="1.21905"/>
<rect x="304.762" y="233.81" width="60.9524" height="60.9524" stroke="white" stroke-opacity="0.03" stroke-width="1.21905"/>
<rect x="365.714" y="233.81" width="60.9524" height="60.9524" stroke="white" stroke-opacity="0.03" stroke-width="1.21905"/>
<rect x="426.667" y="233.81" width="60.9524" height="60.9524" stroke="white" stroke-opacity="0.03" stroke-width="1.21905"/>
<rect x="487.619" y="233.81" width="60.9524" height="60.9524" stroke="white" stroke-opacity="0.03" stroke-width="1.21905"/>
<rect x="548.572" y="233.81" width="60.9524" height="60.9524" stroke="white" stroke-opacity="0.03" stroke-width="1.21905"/>
<rect x="609.524" y="233.81" width="60.9524" height="60.9524" stroke="white" stroke-opacity="0.03" stroke-width="1.21905"/>
<rect x="670.476" y="233.81" width="60.9524" height="60.9524" stroke="white" stroke-opacity="0.03" stroke-width="1.21905"/>
<rect x="731.429" y="233.81" width="60.9524" height="60.9524" fill="white" fill-opacity="0.02" stroke="white" stroke-opacity="0.03" stroke-width="1.21905"/>
<rect x="792.381" y="233.81" width="60.9524" height="60.9524" stroke="white" stroke-opacity="0.03" stroke-width="1.21905"/>
<rect x="853.333" y="233.81" width="60.9524" height="60.9524" stroke="white" stroke-opacity="0.03" stroke-width="1.21905"/>
<rect x="914.286" y="233.81" width="60.9524" height="60.9524" stroke="white" stroke-opacity="0.03" stroke-width="1.21905"/>
<rect x="975.238" y="233.81" width="60.9524" height="60.9524" stroke="white" stroke-opacity="0.03" stroke-width="1.21905"/>
<rect x="1036.19" y="233.81" width="60.9524" height="60.9524" stroke="white" stroke-opacity="0.03" stroke-width="1.21905"/>
<rect x="1097.14" y="233.81" width="60.9524" height="60.9524" stroke="white" stroke-opacity="0.03" stroke-width="1.21905"/>
<rect x="1158.09" y="233.81" width="60.9524" height="60.9524" stroke="white" stroke-opacity="0.03" stroke-width="1.21905"/>
<rect x="1219.05" y="233.81" width="60.9524" height="60.9524" stroke="white" stroke-opacity="0.03" stroke-width="1.21905"/>
<rect y="294.76" width="60.9524" height="60.9524" stroke="white" stroke-opacity="0.03" stroke-width="1.21905"/>
<rect x="60.9524" y="294.76" width="60.9524" height="60.9524" stroke="white" stroke-opacity="0.03" stroke-width="1.21905"/>
<rect x="121.905" y="294.76" width="60.9524" height="60.9524" stroke="white" stroke-opacity="0.03" stroke-width="1.21905"/>
<rect x="182.857" y="294.76" width="60.9524" height="60.9524" stroke="white" stroke-opacity="0.03" stroke-width="1.21905"/>
<rect x="243.809" y="294.76" width="60.9524" height="60.9524" stroke="white" stroke-opacity="0.03" stroke-width="1.21905"/>
<rect x="304.762" y="294.76" width="60.9524" height="60.9524" stroke="white" stroke-opacity="0.03" stroke-width="1.21905"/>
<rect x="365.714" y="294.76" width="60.9524" height="60.9524" stroke="white" stroke-opacity="0.03" stroke-width="1.21905"/>
<rect x="426.667" y="294.76" width="60.9524" height="60.9524" stroke="white" stroke-opacity="0.03" stroke-width="1.21905"/>
<rect x="487.619" y="294.76" width="60.9524" height="60.9524" stroke="white" stroke-opacity="0.03" stroke-width="1.21905"/>
<rect x="548.572" y="294.76" width="60.9524" height="60.9524" stroke="white" stroke-opacity="0.03" stroke-width="1.21905"/>
<rect x="609.524" y="294.76" width="60.9524" height="60.9524" stroke="white" stroke-opacity="0.03" stroke-width="1.21905"/>
<rect x="670.476" y="294.76" width="60.9524" height="60.9524" stroke="white" stroke-opacity="0.03" stroke-width="1.21905"/>
<rect x="731.429" y="294.76" width="60.9524" height="60.9524" stroke="white" stroke-opacity="0.03" stroke-width="1.21905"/>
<rect x="792.381" y="294.76" width="60.9524" height="60.9524" stroke="white" stroke-opacity="0.03" stroke-width="1.21905"/>
<rect x="853.333" y="294.76" width="60.9524" height="60.9524" stroke="white" stroke-opacity="0.03" stroke-width="1.21905"/>
<rect x="914.286" y="294.76" width="60.9524" height="60.9524" stroke="white" stroke-opacity="0.03" stroke-width="1.21905"/>
<rect x="975.238" y="294.76" width="60.9524" height="60.9524" stroke="white" stroke-opacity="0.03" stroke-width="1.21905"/>
<rect x="1036.19" y="294.76" width="60.9524" height="60.9524" stroke="white" stroke-opacity="0.03" stroke-width="1.21905"/>
<rect x="1097.14" y="294.76" width="60.9524" height="60.9524" fill="white" fill-opacity="0.02" stroke="white" stroke-opacity="0.03" stroke-width="1.21905"/>
<rect x="1158.1" y="294.76" width="60.9524" height="60.9524" stroke="white" stroke-opacity="0.03" stroke-width="1.21905"/>
<rect x="1219.05" y="294.76" width="60.9524" height="60.9524" stroke="white" stroke-opacity="0.03" stroke-width="1.21905"/>
<rect y="355.715" width="60.9524" height="60.9524" stroke="white" stroke-opacity="0.03" stroke-width="1.21905"/>
<rect x="60.9524" y="355.715" width="60.9524" height="60.9524" stroke="white" stroke-opacity="0.03" stroke-width="1.21905"/>
<rect x="121.905" y="355.715" width="60.9524" height="60.9524" stroke="white" stroke-opacity="0.03" stroke-width="1.21905"/>
<rect x="182.857" y="355.715" width="60.9524" height="60.9524" stroke="white" stroke-opacity="0.03" stroke-width="1.21905"/>
<rect x="243.809" y="355.715" width="60.9524" height="60.9524" stroke="white" stroke-opacity="0.03" stroke-width="1.21905"/>
<rect x="304.762" y="355.715" width="60.9524" height="60.9524" stroke="white" stroke-opacity="0.03" stroke-width="1.21905"/>
<rect x="365.714" y="355.715" width="60.9524" height="60.9524" stroke="white" stroke-opacity="0.03" stroke-width="1.21905"/>
<rect x="426.667" y="355.715" width="60.9524" height="60.9524" stroke="white" stroke-opacity="0.03" stroke-width="1.21905"/>
<rect x="487.619" y="355.715" width="60.9524" height="60.9524" stroke="white" stroke-opacity="0.03" stroke-width="1.21905"/>
<rect x="548.572" y="355.715" width="60.9524" height="60.9524" stroke="white" stroke-opacity="0.03" stroke-width="1.21905"/>
<rect x="609.524" y="355.715" width="60.9524" height="60.9524" stroke="white" stroke-opacity="0.03" stroke-width="1.21905"/>
<rect x="670.476" y="355.715" width="60.9524" height="60.9524" stroke="white" stroke-opacity="0.03" stroke-width="1.21905"/>
<rect x="731.429" y="355.715" width="60.9524" height="60.9524" stroke="white" stroke-opacity="0.03" stroke-width="1.21905"/>
<rect x="792.381" y="355.715" width="60.9524" height="60.9524" stroke="white" stroke-opacity="0.03" stroke-width="1.21905"/>
<rect x="853.333" y="355.715" width="60.9524" height="60.9524" stroke="white" stroke-opacity="0.03" stroke-width="1.21905"/>
<rect x="914.286" y="355.715" width="60.9524" height="60.9524" stroke="white" stroke-opacity="0.03" stroke-width="1.21905"/>
<rect x="975.238" y="355.715" width="60.9524" height="60.9524" stroke="white" stroke-opacity="0.03" stroke-width="1.21905"/>
<rect x="1036.19" y="355.715" width="60.9524" height="60.9524" stroke="white" stroke-opacity="0.03" stroke-width="1.21905"/>
<rect x="1097.14" y="355.715" width="60.9524" height="60.9524" stroke="white" stroke-opacity="0.03" stroke-width="1.21905"/>
<rect x="1158.1" y="355.715" width="60.9524" height="60.9524" stroke="white" stroke-opacity="0.03" stroke-width="1.21905"/>
<rect x="1219.05" y="355.715" width="60.9524" height="60.9524" stroke="white" stroke-opacity="0.03" stroke-width="1.21905"/>
<rect y="416.665" width="60.9524" height="60.9524" stroke="white" stroke-opacity="0.03" stroke-width="1.21905"/>
<rect x="60.9524" y="416.665" width="60.9524" height="60.9524" stroke="white" stroke-opacity="0.03" stroke-width="1.21905"/>
<rect x="121.905" y="416.665" width="60.9524" height="60.9524" stroke="white" stroke-opacity="0.03" stroke-width="1.21905"/>
<rect x="182.857" y="416.665" width="60.9524" height="60.9524" stroke="white" stroke-opacity="0.03" stroke-width="1.21905"/>
<rect x="243.81" y="416.665" width="60.9524" height="60.9524" stroke="white" stroke-opacity="0.03" stroke-width="1.21905"/>
<rect x="304.762" y="416.665" width="60.9524" height="60.9524" stroke="white" stroke-opacity="0.03" stroke-width="1.21905"/>
<rect x="365.714" y="416.665" width="60.9524" height="60.9524" stroke="white" stroke-opacity="0.03" stroke-width="1.21905"/>
<rect x="426.667" y="416.665" width="60.9524" height="60.9524" stroke="white" stroke-opacity="0.03" stroke-width="1.21905"/>
<rect x="487.619" y="416.665" width="60.9524" height="60.9524" fill="white" fill-opacity="0.02" stroke="white" stroke-opacity="0.03" stroke-width="1.21905"/>
<rect x="548.572" y="416.665" width="60.9524" height="60.9524" stroke="white" stroke-opacity="0.03" stroke-width="1.21905"/>
<rect x="609.524" y="416.665" width="60.9524" height="60.9524" stroke="white" stroke-opacity="0.03" stroke-width="1.21905"/>
<rect x="670.476" y="416.665" width="60.9524" height="60.9524" stroke="white" stroke-opacity="0.03" stroke-width="1.21905"/>
<rect x="731.429" y="416.665" width="60.9524" height="60.9524" stroke="white" stroke-opacity="0.03" stroke-width="1.21905"/>
<rect x="792.381" y="416.665" width="60.9524" height="60.9524" stroke="white" stroke-opacity="0.03" stroke-width="1.21905"/>
<rect x="853.333" y="416.665" width="60.9524" height="60.9524" stroke="white" stroke-opacity="0.03" stroke-width="1.21905"/>
<rect x="914.286" y="416.665" width="60.9524" height="60.9524" stroke="white" stroke-opacity="0.03" stroke-width="1.21905"/>
<rect x="975.238" y="416.665" width="60.9524" height="60.9524" stroke="white" stroke-opacity="0.03" stroke-width="1.21905"/>
<rect x="1036.19" y="416.665" width="60.9524" height="60.9524" stroke="white" stroke-opacity="0.03" stroke-width="1.21905"/>
<rect x="1097.14" y="416.665" width="60.9524" height="60.9524" stroke="white" stroke-opacity="0.03" stroke-width="1.21905"/>
<rect x="1158.1" y="416.665" width="60.9524" height="60.9524" stroke="white" stroke-opacity="0.03" stroke-width="1.21905"/>
<rect x="1219.05" y="416.665" width="60.9524" height="60.9524" stroke="white" stroke-opacity="0.03" stroke-width="1.21905"/>
<rect y="477.619" width="60.9524" height="60.9524" stroke="white" stroke-opacity="0.03" stroke-width="1.21905"/>
<rect x="60.9524" y="477.619" width="60.9524" height="60.9524" stroke="white" stroke-opacity="0.03" stroke-width="1.21905"/>
<rect x="121.905" y="477.619" width="60.9524" height="60.9524" stroke="white" stroke-opacity="0.03" stroke-width="1.21905"/>
<rect x="182.857" y="477.619" width="60.9524" height="60.9524" stroke="white" stroke-opacity="0.03" stroke-width="1.21905"/>
<rect x="243.81" y="477.619" width="60.9524" height="60.9524" fill="white" fill-opacity="0.02" stroke="white" stroke-opacity="0.03" stroke-width="1.21905"/>
<rect x="304.762" y="477.619" width="60.9524" height="60.9524" stroke="white" stroke-opacity="0.03" stroke-width="1.21905"/>
<rect x="365.714" y="477.619" width="60.9524" height="60.9524" stroke="white" stroke-opacity="0.03" stroke-width="1.21905"/>
<rect x="426.667" y="477.619" width="60.9524" height="60.9524" stroke="white" stroke-opacity="0.03" stroke-width="1.21905"/>
<rect x="487.619" y="477.619" width="60.9524" height="60.9524" stroke="white" stroke-opacity="0.03" stroke-width="1.21905"/>
<rect x="548.572" y="477.619" width="60.9524" height="60.9524" stroke="white" stroke-opacity="0.03" stroke-width="1.21905"/>
<rect x="609.524" y="477.619" width="60.9524" height="60.9524" stroke="white" stroke-opacity="0.03" stroke-width="1.21905"/>
<rect x="670.476" y="477.619" width="60.9524" height="60.9524" stroke="white" stroke-opacity="0.03" stroke-width="1.21905"/>
<rect x="731.429" y="477.619" width="60.9524" height="60.9524" stroke="white" stroke-opacity="0.03" stroke-width="1.21905"/>
<rect x="792.381" y="477.619" width="60.9524" height="60.9524" stroke="white" stroke-opacity="0.03" stroke-width="1.21905"/>
<rect x="853.333" y="477.619" width="60.9524" height="60.9524" stroke="white" stroke-opacity="0.03" stroke-width="1.21905"/>
<rect x="914.286" y="477.619" width="60.9524" height="60.9524" stroke="white" stroke-opacity="0.03" stroke-width="1.21905"/>
<rect x="975.238" y="477.619" width="60.9524" height="60.9524" stroke="white" stroke-opacity="0.03" stroke-width="1.21905"/>
<rect x="1036.19" y="477.619" width="60.9524" height="60.9524" stroke="white" stroke-opacity="0.03" stroke-width="1.21905"/>
<rect x="1097.14" y="477.619" width="60.9524" height="60.9524" stroke="white" stroke-opacity="0.03" stroke-width="1.21905"/>
<rect x="1158.1" y="477.619" width="60.9524" height="60.9524" stroke="white" stroke-opacity="0.03" stroke-width="1.21905"/>
<rect x="1219.05" y="477.619" width="60.9524" height="60.9524" stroke="white" stroke-opacity="0.03" stroke-width="1.21905"/>
<rect y="538.569" width="60.9524" height="60.9524" stroke="white" stroke-opacity="0.03" stroke-width="1.21905"/>
<rect x="60.9524" y="538.569" width="60.9524" height="60.9524" stroke="white" stroke-opacity="0.03" stroke-width="1.21905"/>
<rect x="121.905" y="538.569" width="60.9524" height="60.9524" stroke="white" stroke-opacity="0.03" stroke-width="1.21905"/>
<rect x="182.857" y="538.569" width="60.9524" height="60.9524" stroke="white" stroke-opacity="0.03" stroke-width="1.21905"/>
<rect x="243.81" y="538.569" width="60.9524" height="60.9524" stroke="white" stroke-opacity="0.03" stroke-width="1.21905"/>
<rect x="304.762" y="538.569" width="60.9524" height="60.9524" stroke="white" stroke-opacity="0.03" stroke-width="1.21905"/>
<rect x="365.714" y="538.569" width="60.9524" height="60.9524" stroke="white" stroke-opacity="0.03" stroke-width="1.21905"/>
<rect x="426.667" y="538.569" width="60.9524" height="60.9524" stroke="white" stroke-opacity="0.03" stroke-width="1.21905"/>
<rect x="487.619" y="538.569" width="60.9524" height="60.9524" stroke="white" stroke-opacity="0.03" stroke-width="1.21905"/>
<rect x="548.572" y="538.569" width="60.9524" height="60.9524" stroke="white" stroke-opacity="0.03" stroke-width="1.21905"/>
<rect x="609.524" y="538.569" width="60.9524" height="60.9524" stroke="white" stroke-opacity="0.03" stroke-width="1.21905"/>
<rect x="670.476" y="538.569" width="60.9524" height="60.9524" stroke="white" stroke-opacity="0.03" stroke-width="1.21905"/>
<rect x="731.429" y="538.569" width="60.9524" height="60.9524" stroke="white" stroke-opacity="0.03" stroke-width="1.21905"/>
<rect x="792.381" y="538.569" width="60.9524" height="60.9524" stroke="white" stroke-opacity="0.03" stroke-width="1.21905"/>
<rect x="853.333" y="538.569" width="60.9524" height="60.9524" stroke="white" stroke-opacity="0.03" stroke-width="1.21905"/>
<rect x="914.286" y="538.569" width="60.9524" height="60.9524" stroke="white" stroke-opacity="0.03" stroke-width="1.21905"/>
<rect x="975.238" y="538.569" width="60.9524" height="60.9524" stroke="white" stroke-opacity="0.03" stroke-width="1.21905"/>
<rect x="1036.19" y="538.569" width="60.9524" height="60.9524" stroke="white" stroke-opacity="0.03" stroke-width="1.21905"/>
<rect x="1097.14" y="538.569" width="60.9524" height="60.9524" stroke="white" stroke-opacity="0.03" stroke-width="1.21905"/>
<rect x="1158.1" y="538.569" width="60.9524" height="60.9524" stroke="white" stroke-opacity="0.03" stroke-width="1.21905"/>
<rect x="1219.05" y="538.569" width="60.9524" height="60.9524" stroke="white" stroke-opacity="0.03" stroke-width="1.21905"/>
<rect y="599.524" width="60.9524" height="60.9524" stroke="white" stroke-opacity="0.03" stroke-width="1.21905"/>
<rect x="60.9524" y="599.524" width="60.9524" height="60.9524" stroke="white" stroke-opacity="0.03" stroke-width="1.21905"/>
<rect x="121.905" y="599.524" width="60.9524" height="60.9524" stroke="white" stroke-opacity="0.03" stroke-width="1.21905"/>
<rect x="182.857" y="599.524" width="60.9524" height="60.9524" stroke="white" stroke-opacity="0.03" stroke-width="1.21905"/>
<rect x="243.809" y="599.524" width="60.9524" height="60.9524" stroke="white" stroke-opacity="0.03" stroke-width="1.21905"/>
<rect x="304.762" y="599.524" width="60.9524" height="60.9524" stroke="white" stroke-opacity="0.03" stroke-width="1.21905"/>
<rect x="365.714" y="599.524" width="60.9524" height="60.9524" stroke="white" stroke-opacity="0.03" stroke-width="1.21905"/>
<rect x="426.667" y="599.524" width="60.9524" height="60.9524" stroke="white" stroke-opacity="0.03" stroke-width="1.21905"/>
<rect x="487.619" y="599.524" width="60.9524" height="60.9524" stroke="white" stroke-opacity="0.03" stroke-width="1.21905"/>
<rect x="548.572" y="599.524" width="60.9524" height="60.9524" stroke="white" stroke-opacity="0.03" stroke-width="1.21905"/>
<rect x="609.524" y="599.524" width="60.9524" height="60.9524" stroke="white" stroke-opacity="0.03" stroke-width="1.21905"/>
<rect x="670.476" y="599.524" width="60.9524" height="60.9524" stroke="white" stroke-opacity="0.03" stroke-width="1.21905"/>
<rect x="731.429" y="599.524" width="60.9524" height="60.9524" stroke="white" stroke-opacity="0.03" stroke-width="1.21905"/>
<rect x="792.381" y="599.524" width="60.9524" height="60.9524" stroke="white" stroke-opacity="0.03" stroke-width="1.21905"/>
<rect x="853.333" y="599.524" width="60.9524" height="60.9524" stroke="white" stroke-opacity="0.03" stroke-width="1.21905"/>
<rect x="914.286" y="599.524" width="60.9524" height="60.9524" stroke="white" stroke-opacity="0.03" stroke-width="1.21905"/>
<rect x="975.238" y="599.524" width="60.9524" height="60.9524" stroke="white" stroke-opacity="0.03" stroke-width="1.21905"/>
<rect x="1036.19" y="599.524" width="60.9524" height="60.9524" stroke="white" stroke-opacity="0.03" stroke-width="1.21905"/>
<rect x="1097.14" y="599.524" width="60.9524" height="60.9524" stroke="white" stroke-opacity="0.03" stroke-width="1.21905"/>
<rect x="1158.1" y="599.524" width="60.9524" height="60.9524" stroke="white" stroke-opacity="0.03" stroke-width="1.21905"/>
<rect x="1219.05" y="599.524" width="60.9524" height="60.9524" stroke="white" stroke-opacity="0.03" stroke-width="1.21905"/>
<rect y="660.475" width="60.9524" height="60.9524" stroke="white" stroke-opacity="0.03" stroke-width="1.21905"/>
<rect x="60.9524" y="660.475" width="60.9524" height="60.9524" stroke="white" stroke-opacity="0.03" stroke-width="1.21905"/>
<rect x="121.905" y="660.475" width="60.9524" height="60.9524" stroke="white" stroke-opacity="0.03" stroke-width="1.21905"/>
<rect x="182.857" y="660.475" width="60.9524" height="60.9524" stroke="white" stroke-opacity="0.03" stroke-width="1.21905"/>
<rect x="243.809" y="660.475" width="60.9524" height="60.9524" stroke="white" stroke-opacity="0.03" stroke-width="1.21905"/>
<rect x="304.762" y="660.475" width="60.9524" height="60.9524" stroke="white" stroke-opacity="0.03" stroke-width="1.21905"/>
<rect x="365.714" y="660.475" width="60.9524" height="60.9524" stroke="white" stroke-opacity="0.03" stroke-width="1.21905"/>
<rect x="426.667" y="660.475" width="60.9524" height="60.9524" stroke="white" stroke-opacity="0.03" stroke-width="1.21905"/>
<rect x="487.619" y="660.475" width="60.9524" height="60.9524" stroke="white" stroke-opacity="0.03" stroke-width="1.21905"/>
<rect x="548.572" y="660.475" width="60.9524" height="60.9524" stroke="white" stroke-opacity="0.03" stroke-width="1.21905"/>
<rect x="609.524" y="660.475" width="60.9524" height="60.9524" stroke="white" stroke-opacity="0.03" stroke-width="1.21905"/>
<rect x="670.476" y="660.475" width="60.9524" height="60.9524" stroke="white" stroke-opacity="0.03" stroke-width="1.21905"/>
<rect x="731.429" y="660.475" width="60.9524" height="60.9524" stroke="white" stroke-opacity="0.03" stroke-width="1.21905"/>
<rect x="792.381" y="660.475" width="60.9524" height="60.9524" stroke="white" stroke-opacity="0.03" stroke-width="1.21905"/>
<rect x="853.333" y="660.475" width="60.9524" height="60.9524" stroke="white" stroke-opacity="0.03" stroke-width="1.21905"/>
<rect x="914.286" y="660.475" width="60.9524" height="60.9524" stroke="white" stroke-opacity="0.03" stroke-width="1.21905"/>
<rect x="975.238" y="660.475" width="60.9524" height="60.9524" stroke="white" stroke-opacity="0.03" stroke-width="1.21905"/>
<rect x="1036.19" y="660.475" width="60.9524" height="60.9524" stroke="white" stroke-opacity="0.03" stroke-width="1.21905"/>
<rect x="1097.14" y="660.475" width="60.9524" height="60.9524" stroke="white" stroke-opacity="0.03" stroke-width="1.21905"/>
<rect x="1158.1" y="660.475" width="60.9524" height="60.9524" stroke="white" stroke-opacity="0.03" stroke-width="1.21905"/>
<rect x="1219.05" y="660.475" width="60.9524" height="60.9524" stroke="white" stroke-opacity="0.03" stroke-width="1.21905"/>
<rect y="721.43" width="60.9524" height="60.9524" stroke="white" stroke-opacity="0.03" stroke-width="1.21905"/>
<rect x="60.9524" y="721.43" width="60.9524" height="60.9524" stroke="white" stroke-opacity="0.03" stroke-width="1.21905"/>
<rect x="121.905" y="721.43" width="60.9524" height="60.9524" stroke="white" stroke-opacity="0.03" stroke-width="1.21905"/>
<rect x="182.857" y="721.43" width="60.9524" height="60.9524" stroke="white" stroke-opacity="0.03" stroke-width="1.21905"/>
<rect x="243.809" y="721.43" width="60.9524" height="60.9524" stroke="white" stroke-opacity="0.03" stroke-width="1.21905"/>
<rect x="304.762" y="721.43" width="60.9524" height="60.9524" stroke="white" stroke-opacity="0.03" stroke-width="1.21905"/>
<rect x="365.714" y="721.43" width="60.9524" height="60.9524" stroke="white" stroke-opacity="0.03" stroke-width="1.21905"/>
<rect x="426.667" y="721.43" width="60.9524" height="60.9524" stroke="white" stroke-opacity="0.03" stroke-width="1.21905"/>
<rect x="487.619" y="721.43" width="60.9524" height="60.9524" stroke="white" stroke-opacity="0.03" stroke-width="1.21905"/>
<rect x="548.572" y="721.43" width="60.9524" height="60.9524" stroke="white" stroke-opacity="0.03" stroke-width="1.21905"/>
<rect x="609.524" y="721.43" width="60.9524" height="60.9524" stroke="white" stroke-opacity="0.03" stroke-width="1.21905"/>
<rect x="670.476" y="721.43" width="60.9524" height="60.9524" stroke="white" stroke-opacity="0.03" stroke-width="1.21905"/>
<rect x="731.429" y="721.43" width="60.9524" height="60.9524" stroke="white" stroke-opacity="0.03" stroke-width="1.21905"/>
<rect x="792.381" y="721.43" width="60.9524" height="60.9524" stroke="white" stroke-opacity="0.03" stroke-width="1.21905"/>
<rect x="853.333" y="721.43" width="60.9524" height="60.9524" stroke="white" stroke-opacity="0.03" stroke-width="1.21905"/>
<rect x="914.286" y="721.43" width="60.9524" height="60.9524" stroke="white" stroke-opacity="0.03" stroke-width="1.21905"/>
<rect x="975.238" y="721.43" width="60.9524" height="60.9524" stroke="white" stroke-opacity="0.03" stroke-width="1.21905"/>
<rect x="1036.19" y="721.43" width="60.9524" height="60.9524" stroke="white" stroke-opacity="0.03" stroke-width="1.21905"/>
<rect x="1097.14" y="721.43" width="60.9524" height="60.9524" stroke="white" stroke-opacity="0.03" stroke-width="1.21905"/>
<rect x="1158.1" y="721.43" width="60.9524" height="60.9524" stroke="white" stroke-opacity="0.03" stroke-width="1.21905"/>
<rect x="1219.05" y="721.43" width="60.9524" height="60.9524" stroke="white" stroke-opacity="0.03" stroke-width="1.21905"/>
<g filter="url(#filter0_f_79_39512)">
<rect x="-103.619" y="-869.53" width="1545.75" height="1217.46" fill="url(#paint0_radial_79_39512)"/>
</g>
<rect x="-274.895" y="-295.44" width="1759.09" height="1105.25" fill="url(#paint1_radial_79_39512)" stroke="#09090B" stroke-width="1.21905"/>
</g>
<defs>
<filter id="filter0_f_79_39512" x="-469.333" y="-1235.24" width="2277.18" height="1948.89" filterUnits="userSpaceOnUse" color-interpolation-filters="sRGB">
<feFlood flood-opacity="0" result="BackgroundImageFix"/>
<feBlend mode="normal" in="SourceGraphic" in2="BackgroundImageFix" result="shape"/>
<feGaussianBlur stdDeviation="182.857" result="effect1_foregroundBlur_79_39512"/>
</filter>
<radialGradient id="paint0_radial_79_39512" cx="0" cy="0" r="1" gradientUnits="userSpaceOnUse" gradientTransform="translate(669.257 -260.802) rotate(90) scale(608.729 772.876)">
<stop offset="0.015625" stop-color="#007AFF" stop-opacity="0.69"/>
<stop offset="0.223958" stop-color="#007AFF" stop-opacity="0.34"/>
<stop offset="0.911458" stop-color="#007AFF" stop-opacity="0"/>
</radialGradient>
<radialGradient id="paint1_radial_79_39512" cx="0" cy="0" r="1" gradientUnits="userSpaceOnUse" gradientTransform="translate(604.648 257.185) rotate(90) scale(552.015 878.933)">
<stop stop-color="#0A101F" stop-opacity="0"/>
<stop offset="0.833333" stop-color="#09090B"/>
</radialGradient>
<clipPath id="clip0_79_39512">
<rect width="1280" height="819.2" fill="white" transform="translate(0 -10)"/>
</clipPath>
</defs>
</svg>
