<svg width="96" height="59" viewBox="0 0 96 59" fill="none" xmlns="http://www.w3.org/2000/svg">
<g clip-path="url(#clip0_94_22389)">
<path fill-rule="evenodd" clip-rule="evenodd" d="M35.1612 55.2755C36.1343 55.5721 36.8168 55.0741 36.6861 54.1618C36.5577 53.2495 35.6613 52.2693 34.6882 51.9705C33.7129 51.6717 33.0304 52.1697 33.161 53.0843C33.2939 53.9965 34.1882 54.9767 35.1612 55.2755Z" fill="url(#paint0_radial_94_22389)"/>
<path fill-rule="evenodd" clip-rule="evenodd" d="M30.2505 52.8034C31.192 53.0887 31.8498 52.6065 31.7236 51.7236C31.5952 50.8408 30.728 49.89 29.7843 49.6025C28.8405 49.3128 28.1828 49.7972 28.3134 50.6801C28.4441 51.5629 29.3112 52.5137 30.2528 52.8012L30.2505 52.8034Z" fill="url(#paint1_radial_94_22389)"/>
<path fill-rule="evenodd" clip-rule="evenodd" d="M25.4259 49.6695C26.2908 49.9344 26.8945 49.4907 26.7728 48.6803C26.6535 47.8676 25.8516 46.9961 24.9844 46.729C24.1194 46.4641 23.5135 46.9078 23.6352 47.7205C23.7568 48.5332 24.5564 49.4047 25.4236 49.6695H25.4259Z" fill="url(#paint2_radial_94_22389)"/>
<path fill-rule="evenodd" clip-rule="evenodd" d="M20.7904 46.0122C21.572 46.2499 22.1126 45.8515 22.0023 45.1203C21.8896 44.3891 21.1689 43.6013 20.3873 43.3636C19.6057 43.126 19.0628 43.5244 19.1754 44.2578C19.2881 44.9867 20.0088 45.7745 20.7904 46.0122Z" fill="url(#paint3_radial_94_22389)"/>
<path fill-rule="evenodd" clip-rule="evenodd" d="M16.436 41.9326C17.1388 42.1476 17.6276 41.7877 17.5262 41.129C17.4249 40.4725 16.7717 39.7617 16.0689 39.5466C15.3639 39.3316 14.8751 39.6915 14.9787 40.3503C15.0801 41.0113 15.7355 41.7198 16.436 41.9326Z" fill="url(#paint4_radial_94_22389)"/>
<path fill-rule="evenodd" clip-rule="evenodd" d="M12.4496 37.5122C13.0848 37.7069 13.5217 37.3831 13.4294 36.7901C13.3393 36.197 12.7492 35.5586 12.114 35.3662C11.4788 35.1715 11.0395 35.4952 11.1319 36.0883C11.2242 36.6814 11.8166 37.3198 12.4496 37.5122V37.5122Z" fill="url(#paint5_radial_94_22389)"/>
<path fill-rule="evenodd" clip-rule="evenodd" d="M8.91088 32.8306C9.48301 33.0049 9.87719 32.7151 9.79385 32.1809C9.7105 31.6466 9.17667 31.0716 8.60455 30.8973C8.03242 30.723 7.63599 31.0128 7.72158 31.547C7.80718 32.0835 8.33876 32.6562 8.91088 32.8306Z" fill="url(#paint6_radial_94_22389)"/>
<path fill-rule="evenodd" clip-rule="evenodd" d="M5.87453 27.8367C6.30249 27.968 6.59982 27.7506 6.53675 27.35C6.47368 26.9493 6.07274 26.5169 5.64027 26.3879C5.2078 26.2566 4.91047 26.4739 4.97579 26.8746C5.04112 27.2753 5.4398 27.7076 5.87227 27.8367H5.87453Z" fill="url(#paint7_radial_94_22389)"/>
<path fill-rule="evenodd" clip-rule="evenodd" d="M3.43105 22.823C3.75541 22.9226 3.9784 22.7573 3.9311 22.4585C3.88155 22.1574 3.58197 21.8337 3.25761 21.7341C2.93326 21.6345 2.71027 21.7998 2.75982 22.0986C2.80712 22.3996 3.10895 22.7234 3.43331 22.823H3.43105Z" fill="url(#paint8_radial_94_22389)"/>
<path fill-rule="evenodd" clip-rule="evenodd" d="M1.64229 17.8762C1.88556 17.9509 2.05449 17.8287 2.01845 17.6023C1.98241 17.376 1.75491 17.1337 1.51165 17.059C1.26838 16.9843 1.09945 17.1066 1.13774 17.3329C1.17603 17.5593 1.40128 17.8015 1.64454 17.8762H1.64229Z" fill="url(#paint9_radial_94_22389)"/>
<path fill-rule="evenodd" clip-rule="evenodd" d="M0.55003 13.1767C0.782033 13.2469 0.941957 13.1315 0.90817 12.9164C0.874383 12.7014 0.658148 12.4705 0.426144 12.4003C0.194141 12.3279 0.0319644 12.4456 0.0680037 12.6606C0.104043 12.8757 0.320279 13.1066 0.552282 13.1767H0.55003Z" fill="url(#paint10_radial_94_22389)"/>
<path fill-rule="evenodd" clip-rule="evenodd" d="M44.8668 58.2584C43.8847 57.9573 42.986 56.9681 42.8576 56.0467C42.7337 55.1277 43.4274 54.6251 44.4118 54.9262C45.3961 55.2295 46.2948 56.2188 46.421 57.1378C46.5449 58.0569 45.8488 58.5595 44.8668 58.2584Z" fill="url(#paint11_radial_94_22389)"/>
<path fill-rule="evenodd" clip-rule="evenodd" d="M49.4887 58.6849C48.5472 58.3951 47.689 57.4489 47.5719 56.5683C47.4525 55.6877 48.1215 55.2078 49.0653 55.4975C50.0091 55.785 50.8672 56.7335 50.9844 57.6118C51.1015 58.4924 50.4325 58.9723 49.491 58.6826L49.4887 58.6849Z" fill="url(#paint12_radial_94_22389)"/>
<path fill-rule="evenodd" clip-rule="evenodd" d="M53.8315 58.356C52.9666 58.0912 52.1782 57.2219 52.0724 56.416C51.9665 55.6079 52.5837 55.1687 53.4509 55.4336C54.3181 55.6984 55.1042 56.5677 55.21 57.3758C55.3159 58.1817 54.6965 58.6209 53.8338 58.356H53.8315Z" fill="url(#paint13_radial_94_22389)"/>
<path fill-rule="evenodd" clip-rule="evenodd" d="M57.812 57.3331C57.0326 57.0954 56.3231 56.3145 56.2307 55.5878C56.1384 54.8612 56.6947 54.4673 57.4763 54.705C58.2579 54.9449 58.9652 55.7259 59.0576 56.4526C59.1499 57.1769 58.5913 57.5731 57.812 57.3331V57.3331Z" fill="url(#paint14_radial_94_22389)"/>
<path fill-rule="evenodd" clip-rule="evenodd" d="M61.3618 55.6712C60.6591 55.4562 60.0216 54.7544 59.9383 54.1002C59.8572 53.4482 60.3595 53.0928 61.0645 53.3079C61.7695 53.5252 62.407 54.2292 62.4881 54.8789C62.5691 55.5331 62.0646 55.8863 61.3641 55.6712H61.3618Z" fill="url(#paint15_radial_94_22389)"/>
<path fill-rule="evenodd" clip-rule="evenodd" d="M64.4112 53.4004C63.7783 53.2057 63.2039 52.5742 63.1296 51.9879C63.0575 51.3993 63.5125 51.0824 64.1477 51.2771C64.7829 51.4717 65.3573 52.1033 65.4271 52.6919C65.4992 53.2782 65.0419 53.5974 64.409 53.4027L64.4112 53.4004Z" fill="url(#paint16_radial_94_22389)"/>
<path fill-rule="evenodd" clip-rule="evenodd" d="M68.948 46.8043C69.252 46.8133 69.3939 46.5643 69.2656 46.2451C69.1349 45.926 68.7835 45.6588 68.4795 45.6498C68.1731 45.6385 68.0312 45.8897 68.1619 46.2112C68.2902 46.5304 68.6416 46.7975 68.9502 46.8065L68.948 46.8043Z" fill="url(#paint17_radial_94_22389)"/>
<path fill-rule="evenodd" clip-rule="evenodd" d="M67.038 50.3767C67.502 50.456 67.7768 50.1549 67.6551 49.6999C67.5358 49.2449 67.0605 48.8125 66.5987 48.731C66.1347 48.6495 65.8599 48.9528 65.9838 49.4079C66.1054 49.8629 66.5785 50.2952 67.038 50.3745V50.3767Z" fill="url(#paint18_radial_94_22389)"/>
<path fill-rule="evenodd" clip-rule="evenodd" d="M69.8958 43.0216C70.1256 43.0917 70.2945 42.9786 70.2675 42.7658C70.2427 42.553 70.0355 42.3243 69.8057 42.2542C69.576 42.184 69.4093 42.2972 69.4341 42.51C69.4611 42.7205 69.6661 42.9491 69.8981 43.0193L69.8958 43.0216Z" fill="url(#paint19_radial_94_22389)"/>
<path fill-rule="evenodd" clip-rule="evenodd" d="M15.695 32.4483C16.328 33.1251 17.2177 33.3923 17.6839 33.0437C18.1525 32.6928 18.0196 31.862 17.3866 31.1851C16.7537 30.5083 15.8617 30.2412 15.3932 30.5921C14.9269 30.9407 15.0621 31.7714 15.695 32.4483V32.4483Z" fill="url(#paint20_radial_94_22389)"/>
<path fill-rule="evenodd" clip-rule="evenodd" d="M13.2357 28.876C13.8371 29.5166 14.6817 29.7701 15.1255 29.4396C15.567 29.1091 15.4408 28.3214 14.8394 27.6785C14.238 27.0378 13.3933 26.7843 12.9496 27.1148C12.5081 27.4453 12.6365 28.2331 13.2357 28.876Z" fill="url(#paint21_radial_94_22389)"/>
<path fill-rule="evenodd" clip-rule="evenodd" d="M11.2422 25.1719C11.7851 25.7514 12.5464 25.9778 12.9473 25.6813C13.346 25.3824 13.2289 24.6739 12.6883 24.0967C12.1455 23.5171 11.3819 23.2908 10.9854 23.5873C10.5845 23.8861 10.7016 24.5947 11.2445 25.1719H11.2422Z" fill="url(#paint22_radial_94_22389)"/>
<path fill-rule="evenodd" clip-rule="evenodd" d="M9.71095 21.4532C10.1997 21.9739 10.8867 22.1799 11.2471 21.9128C11.6075 21.6457 11.5017 21.0073 11.0129 20.4866C10.5241 19.966 9.83484 19.76 9.4767 20.0271C9.1163 20.2942 9.22217 20.9326 9.71095 21.4532Z" fill="url(#paint23_radial_94_22389)"/>
<path fill-rule="evenodd" clip-rule="evenodd" d="M8.674 17.7886C9.11548 18.2572 9.73716 18.4428 10.0593 18.2006C10.3859 17.9584 10.289 17.3856 9.84978 16.9171C9.41055 16.4462 8.78662 16.2628 8.46227 16.5028C8.13792 16.7428 8.23252 17.3177 8.674 17.7886V17.7886Z" fill="url(#paint24_radial_94_22389)"/>
<path fill-rule="evenodd" clip-rule="evenodd" d="M8.15849 14.2525C8.55493 14.6735 9.11579 14.8433 9.40635 14.626C9.69917 14.4109 9.61358 13.8926 9.21715 13.4692C8.81846 13.0482 8.2576 12.8784 7.96478 13.0957C7.67196 13.3108 7.75981 13.8292 8.15624 14.2525H8.15849Z" fill="url(#paint25_radial_94_22389)"/>
<path fill-rule="evenodd" clip-rule="evenodd" d="M8.17851 10.9172C8.53665 11.2975 9.0412 11.4492 9.30699 11.2522C9.57053 11.0576 9.49394 10.5912 9.1358 10.2132C8.77541 9.8329 8.27311 9.68123 8.00732 9.87591C7.74378 10.0706 7.82037 10.5369 8.17851 10.9172Z" fill="url(#paint26_radial_94_22389)"/>
<path fill-rule="evenodd" clip-rule="evenodd" d="M8.81844 7.79629C9.08649 8.08152 9.4649 8.1947 9.66311 8.04982C9.86358 7.90495 9.80502 7.55407 9.53472 7.27111C9.26668 6.98362 8.88827 6.87269 8.6878 7.01757C8.48958 7.16245 8.54815 7.51333 8.81844 7.79629V7.79629Z" fill="url(#paint27_radial_94_22389)"/>
<path fill-rule="evenodd" clip-rule="evenodd" d="M9.96761 5.02791C10.1703 5.24297 10.4541 5.32672 10.6051 5.21806C10.756 5.10941 10.7132 4.84682 10.5105 4.63176C10.3077 4.41897 10.0239 4.33295 9.87301 4.44161C9.72435 4.55027 9.76489 4.81286 9.96761 5.02565V5.02791Z" fill="url(#paint28_radial_94_22389)"/>
<path fill-rule="evenodd" clip-rule="evenodd" d="M11.6229 2.66218C11.7738 2.8229 11.9878 2.88629 12.1004 2.80479C12.213 2.7233 12.1837 2.52636 12.0306 2.36563C11.8797 2.20491 11.6657 2.14152 11.5508 2.22302C11.4382 2.30451 11.4697 2.50146 11.6229 2.66218V2.66218Z" fill="url(#paint29_radial_94_22389)"/>
<path fill-rule="evenodd" clip-rule="evenodd" d="M13.7018 0.77835C13.846 0.930019 14.0487 0.991139 14.1568 0.914173C14.265 0.837207 14.2334 0.649318 14.0915 0.49765C13.9474 0.343717 13.7424 0.284861 13.6343 0.361827C13.5261 0.438793 13.5577 0.626681 13.7018 0.77835V0.77835Z" fill="url(#paint30_radial_94_22389)"/>
<path fill-rule="evenodd" clip-rule="evenodd" d="M21.734 38.9316C21.1033 38.2548 20.9726 37.424 21.4389 37.0754C21.9074 36.7268 22.7949 36.9916 23.4256 37.6707C24.0562 38.3453 24.1846 39.1761 23.7161 39.5247C23.2499 39.8733 22.3624 39.6085 21.734 38.9316Z" fill="url(#paint31_radial_94_22389)"/>
<path fill-rule="evenodd" clip-rule="evenodd" d="M25.2054 41.7225C24.6131 41.0819 24.4892 40.2964 24.9306 39.9659C25.3744 39.6354 26.2145 39.8867 26.8114 40.5273C27.4038 41.1656 27.5255 41.9534 27.0817 42.2839C26.638 42.6144 25.7978 42.3632 25.2054 41.7225Z" fill="url(#paint32_radial_94_22389)"/>
<path fill-rule="evenodd" clip-rule="evenodd" d="M28.8924 44.12C28.3586 43.5427 28.2504 42.8365 28.6514 42.5376C29.0501 42.2411 29.8069 42.4675 30.3407 43.0424C30.8745 43.6174 30.9827 44.3237 30.584 44.6225C30.1853 44.9191 29.4285 44.6927 28.8946 44.1177L28.8924 44.12Z" fill="url(#paint33_radial_94_22389)"/>
<path fill-rule="evenodd" clip-rule="evenodd" d="M32.6815 46.1075C32.2039 45.5891 32.1048 44.953 32.4675 44.6859C32.8279 44.4187 33.5081 44.6225 33.9856 45.1409C34.4632 45.657 34.56 46.2931 34.1996 46.5625C33.8392 46.8296 33.159 46.6259 32.6815 46.1075Z" fill="url(#paint34_radial_94_22389)"/>
<path fill-rule="evenodd" clip-rule="evenodd" d="M36.4971 47.6462C36.0668 47.1798 35.9813 46.6094 36.3056 46.3672C36.63 46.1272 37.2426 46.3106 37.6728 46.7769C38.1031 47.241 38.1887 47.8159 37.8621 48.0559C37.5377 48.2936 36.9273 48.1125 36.4971 47.6462Z" fill="url(#paint35_radial_94_22389)"/>
<path fill-rule="evenodd" clip-rule="evenodd" d="M40.2699 48.7125C39.8847 48.2937 39.8081 47.7798 40.1009 47.5625C40.3937 47.3474 40.9456 47.5104 41.3308 47.9315C41.7159 48.3503 41.7903 48.8641 41.4974 49.0792C41.2046 49.2942 40.6528 49.129 40.2676 48.7102L40.2699 48.7125Z" fill="url(#paint36_radial_94_22389)"/>
<path fill-rule="evenodd" clip-rule="evenodd" d="M43.9279 49.2779C43.581 48.9021 43.5134 48.4381 43.7792 48.2456C44.045 48.051 44.5406 48.2004 44.8874 48.5761C45.2343 48.9542 45.3019 49.416 45.0361 49.6107C44.7726 49.8053 44.277 49.6582 43.9302 49.2802L43.9279 49.2779Z" fill="url(#paint37_radial_94_22389)"/>
<path fill-rule="evenodd" clip-rule="evenodd" d="M47.4731 49.2782C47.2141 48.9953 47.1645 48.6489 47.3627 48.504C47.5609 48.3569 47.9326 48.4701 48.1939 48.753C48.4529 49.036 48.5025 49.3824 48.302 49.5272C48.1038 49.6721 47.7299 49.5612 47.4708 49.2782H47.4731Z" fill="url(#paint38_radial_94_22389)"/>
<path fill-rule="evenodd" clip-rule="evenodd" d="M50.7437 48.7853C50.5477 48.5725 50.5116 48.3144 50.6626 48.2058C50.8135 48.0971 51.0905 48.1809 51.2865 48.3936C51.4802 48.6064 51.5185 48.8645 51.3676 48.9754C51.2189 49.0841 50.9396 49.0003 50.7459 48.7875L50.7437 48.7853Z" fill="url(#paint39_radial_94_22389)"/>
<path fill-rule="evenodd" clip-rule="evenodd" d="M53.6787 47.7935C53.5323 47.6327 53.5052 47.4403 53.6179 47.3588C53.7305 47.2773 53.94 47.3407 54.0864 47.4992C54.2328 47.6576 54.2598 47.8546 54.1472 47.9338C54.0346 48.0153 53.8251 47.9519 53.6787 47.7935Z" fill="url(#paint40_radial_94_22389)"/>
<path fill-rule="evenodd" clip-rule="evenodd" d="M56.1722 46.376C56.3028 46.5186 56.492 46.5752 56.5934 46.5028C56.697 46.4281 56.6722 46.2538 56.5416 46.1089C56.4087 45.964 56.2195 45.9097 56.1159 45.9821C56.0145 46.0546 56.0371 46.2312 56.17 46.376H56.1722Z" fill="url(#paint41_radial_94_22389)"/>
<path fill-rule="evenodd" clip-rule="evenodd" d="M18.5311 35.8339C19.1843 36.5334 20.1011 36.8073 20.5831 36.4474C21.0651 36.0852 20.93 35.2272 20.279 34.5278C19.6258 33.8283 18.7068 33.5544 18.2248 33.9143C17.7427 34.2742 17.8801 35.1344 18.5333 35.8339H18.5311Z" fill="url(#paint42_radial_94_22389)"/>
<path fill-rule="evenodd" clip-rule="evenodd" d="M14.1321 11.909C14.1276 12.4252 14.6164 13.0567 15.2201 13.3171C15.8237 13.5774 16.3148 13.3669 16.3193 12.8485C16.3215 12.3323 15.835 11.7008 15.2291 11.4427C14.6254 11.1846 14.1321 11.3929 14.1299 11.9113L14.1321 11.909Z" fill="url(#paint43_radial_94_22389)"/>
<path fill-rule="evenodd" clip-rule="evenodd" d="M14.8149 9.76288C14.8127 10.2541 15.2745 10.8517 15.8466 11.0985C16.4187 11.3452 16.8872 11.1437 16.8895 10.657C16.894 10.1681 16.43 9.57047 15.8578 9.32372C15.2857 9.07924 14.8172 9.27618 14.8149 9.76515V9.76288Z" fill="url(#paint44_radial_94_22389)"/>
<path fill-rule="evenodd" clip-rule="evenodd" d="M15.9546 7.91629C15.9523 8.35772 16.3691 8.89422 16.8849 9.11606C17.4007 9.3379 17.8219 9.16134 17.8264 8.71991C17.8309 8.27849 17.4142 7.74199 16.8961 7.52014C16.3803 7.2983 15.9591 7.47713 15.9546 7.91629V7.91629Z" fill="url(#paint45_radial_94_22389)"/>
<path fill-rule="evenodd" clip-rule="evenodd" d="M17.4678 6.37692C17.4633 6.77306 17.8372 7.2575 18.3035 7.45671C18.7697 7.65591 19.1504 7.49745 19.1527 7.1013C19.1572 6.70289 18.781 6.22072 18.317 6.02151C17.8507 5.82004 17.4701 5.98077 17.4678 6.37918V6.37692Z" fill="url(#paint46_radial_94_22389)"/>
<path fill-rule="evenodd" clip-rule="evenodd" d="M19.3218 5.17636C19.3173 5.53403 19.6552 5.96866 20.0741 6.14749C20.4954 6.32633 20.8355 6.18371 20.84 5.82605C20.8445 5.46838 20.5066 5.03601 20.0877 4.85492C19.6687 4.67382 19.3263 4.81643 19.3218 5.1741V5.17636Z" fill="url(#paint47_radial_94_22389)"/>
<path fill-rule="evenodd" clip-rule="evenodd" d="M21.4817 4.33938C21.4795 4.66083 21.7813 5.05245 22.1575 5.21317C22.5359 5.3739 22.8445 5.24713 22.849 4.92568C22.8535 4.60423 22.5494 4.21261 22.171 4.04963C21.7948 3.8889 21.484 4.01793 21.4795 4.33712L21.4817 4.33938Z" fill="url(#paint48_radial_94_22389)"/>
<path fill-rule="evenodd" clip-rule="evenodd" d="M23.9124 3.88418C23.9079 4.17394 24.1805 4.52481 24.5206 4.67195C24.8584 4.81683 25.14 4.70138 25.1423 4.41389C25.1468 4.1264 24.8742 3.77326 24.5341 3.62838C24.194 3.48124 23.9147 3.59669 23.9102 3.88645L23.9124 3.88418Z" fill="url(#paint49_radial_94_22389)"/>
<path fill-rule="evenodd" clip-rule="evenodd" d="M26.6514 3.86184C26.6469 4.07915 26.8519 4.34174 27.1064 4.45267C27.3632 4.56132 27.5727 4.4753 27.5749 4.25799C27.5795 4.04067 27.3767 3.77808 27.1199 3.66716C26.8654 3.55624 26.6559 3.64452 26.6537 3.85957L26.6514 3.86184Z" fill="url(#paint50_radial_94_22389)"/>
<path fill-rule="evenodd" clip-rule="evenodd" d="M29.521 4.22135C29.521 4.38208 29.6719 4.58128 29.8634 4.66278C30.0548 4.74653 30.2125 4.68089 30.217 4.5179C30.217 4.35491 30.0661 4.15797 29.8746 4.07648C29.6832 3.99498 29.5255 4.05837 29.5233 4.22135H29.521Z" fill="url(#paint51_radial_94_22389)"/>
<path fill-rule="evenodd" clip-rule="evenodd" d="M32.4761 4.96168C32.4761 5.08392 32.5887 5.23106 32.7306 5.29444C32.8748 5.35557 32.9941 5.30576 32.9964 5.18579C32.9964 5.06581 32.886 4.9164 32.7419 4.85528C32.6 4.79416 32.4806 4.84397 32.4783 4.96394L32.4761 4.96168Z" fill="url(#paint52_radial_94_22389)"/>
<path fill-rule="evenodd" clip-rule="evenodd" d="M14.103 16.8644C14.103 16.346 14.5963 16.1378 15.1977 16.3958C15.8014 16.6562 16.2857 17.2855 16.2834 17.8016C16.2834 18.32 15.7901 18.5282 15.1887 18.2702C14.5851 18.0121 14.1008 17.3805 14.103 16.8644V16.8644Z" fill="url(#paint53_radial_94_22389)"/>
<path fill-rule="evenodd" clip-rule="evenodd" d="M14.7651 19.5877C14.7674 19.0965 15.2314 18.8973 15.8013 19.144C16.3711 19.3885 16.8329 19.9861 16.8284 20.4773C16.8261 20.9663 16.3599 21.1655 15.7923 20.9187C15.2224 20.6743 14.7629 20.0789 14.7651 19.5877V19.5877Z" fill="url(#paint54_radial_94_22389)"/>
<path fill-rule="evenodd" clip-rule="evenodd" d="M15.8711 22.3999C15.8734 21.9585 16.2901 21.7797 16.8036 22.0015C17.3149 22.2234 17.7294 22.7599 17.7249 23.199C17.7226 23.6405 17.3059 23.8193 16.7946 23.5975C16.2833 23.3779 15.8689 22.8414 15.8711 22.3999V22.3999Z" fill="url(#paint55_radial_94_22389)"/>
<path fill-rule="evenodd" clip-rule="evenodd" d="M17.3394 25.2198C17.3394 24.8214 17.7155 24.6607 18.175 24.8599C18.6345 25.0591 19.0062 25.5413 19.0039 25.9374C19.0039 26.3336 18.6278 26.4966 18.1683 26.2974C17.7088 26.1004 17.3371 25.616 17.3394 25.2198Z" fill="url(#paint56_radial_94_22389)"/>
<path fill-rule="evenodd" clip-rule="evenodd" d="M19.1419 27.9911C19.1419 27.6335 19.4798 27.4886 19.8942 27.6674C20.3087 27.844 20.642 28.2786 20.6375 28.6363C20.6353 28.994 20.2974 29.1389 19.8852 28.96C19.473 28.7812 19.1396 28.3488 19.1396 27.9911H19.1419Z" fill="url(#paint57_radial_94_22389)"/>
<path fill-rule="evenodd" clip-rule="evenodd" d="M21.2388 30.6595C21.241 30.338 21.5451 30.2067 21.9145 30.3675C22.2862 30.5259 22.5858 30.9175 22.5835 31.239C22.5812 31.5604 22.2772 31.6917 21.9055 31.531C21.5339 31.3703 21.2365 30.9809 21.2388 30.6595Z" fill="url(#paint58_radial_94_22389)"/>
<path fill-rule="evenodd" clip-rule="evenodd" d="M23.5947 33.1703C23.5947 32.8805 23.8695 32.7628 24.2029 32.9077C24.5363 33.0503 24.8066 33.4012 24.8043 33.6909C24.8043 33.9807 24.5295 34.0984 24.1961 33.9535C23.8628 33.8087 23.5925 33.4578 23.5947 33.168V33.1703Z" fill="url(#paint59_radial_94_22389)"/>
<path fill-rule="evenodd" clip-rule="evenodd" d="M26.2525 35.511C26.2525 35.2937 26.4574 35.2054 26.7097 35.3141C26.9597 35.4227 27.1602 35.6853 27.1579 35.9026C27.1557 36.1177 26.9507 36.206 26.7007 36.0996C26.4507 35.9909 26.2502 35.7283 26.2525 35.511Z" fill="url(#paint60_radial_94_22389)"/>
<path fill-rule="evenodd" clip-rule="evenodd" d="M29.041 37.5864C29.041 37.4234 29.1965 37.3578 29.3834 37.4393C29.5726 37.5208 29.7213 37.7177 29.719 37.8807C29.719 38.0437 29.5636 38.1093 29.3767 38.0279C29.1874 37.9486 29.0388 37.7494 29.041 37.5887V37.5864Z" fill="url(#paint61_radial_94_22389)"/>
<path fill-rule="evenodd" clip-rule="evenodd" d="M31.9175 39.352C31.9175 39.2298 32.0324 39.1823 32.1743 39.2434C32.3139 39.3022 32.4265 39.4517 32.4265 39.5739C32.4265 39.6939 32.3117 39.7459 32.1698 39.6848C32.0301 39.6237 31.9175 39.4766 31.9197 39.3543L31.9175 39.352Z" fill="url(#paint62_radial_94_22389)"/>
<path fill-rule="evenodd" clip-rule="evenodd" d="M35.4046 6.03975C35.4001 6.1552 35.5105 6.29781 35.6456 6.35441C35.7808 6.41326 35.8934 6.36573 35.8979 6.25254C35.9001 6.13709 35.792 5.99674 35.6546 5.93788C35.5172 5.87903 35.4046 5.9243 35.4023 6.03975H35.4046Z" fill="url(#paint63_radial_94_22389)"/>
<path fill-rule="evenodd" clip-rule="evenodd" d="M34.7827 40.7666C34.7827 40.8752 34.8818 41.0111 35.008 41.0631C35.1364 41.1175 35.24 41.0744 35.2422 40.9635C35.2422 40.8526 35.1431 40.7213 35.0147 40.667C34.8886 40.6127 34.7827 40.6557 34.7827 40.7666Z" fill="url(#paint64_radial_94_22389)"/>
<path fill-rule="evenodd" clip-rule="evenodd" d="M13.8755 14.2815C13.8732 14.818 14.3755 15.4676 14.9995 15.7348C15.6234 16.0019 16.1302 15.7868 16.1325 15.2526C16.1347 14.7184 15.6324 14.0664 15.0085 13.7993C14.3846 13.5322 13.8777 13.7472 13.8755 14.2815V14.2815Z" fill="url(#paint65_radial_94_22389)"/>
<path fill-rule="evenodd" clip-rule="evenodd" d="M26.6759 7.99557C26.32 8.09744 26.2705 8.52754 26.5633 8.95539C26.8584 9.38096 27.3832 9.64355 27.7391 9.54169C28.0927 9.43756 28.1445 9.00971 27.8517 8.58187C27.5566 8.15629 27.0318 7.8937 26.6782 7.99557H26.6759Z" fill="url(#paint66_radial_94_22389)"/>
<path fill-rule="evenodd" clip-rule="evenodd" d="M28.6722 7.98606C28.3343 8.0834 28.287 8.4886 28.5663 8.8938C28.8434 9.29674 29.3412 9.54802 29.6768 9.44841C30.0124 9.35334 30.062 8.94587 29.7849 8.54293C29.5079 8.13999 29.0101 7.89098 28.6722 7.98606V7.98606Z" fill="url(#paint67_radial_94_22389)"/>
<path fill-rule="evenodd" clip-rule="evenodd" d="M30.8185 8.31733C30.5144 8.40562 30.4693 8.77008 30.7194 9.13453C30.9694 9.49673 31.4176 9.72083 31.7194 9.63481C32.0213 9.54653 32.0686 9.18207 31.8163 8.81761C31.5685 8.45316 31.118 8.23131 30.8162 8.31733H30.8185Z" fill="url(#paint68_radial_94_22389)"/>
<path fill-rule="evenodd" clip-rule="evenodd" d="M33.0412 8.93417C32.7687 9.0134 32.7281 9.34164 32.9511 9.66987C33.1741 9.99585 33.5796 10.1996 33.8521 10.1204C34.1269 10.0434 34.1652 9.71288 33.9422 9.38691C33.7192 9.05867 33.3138 8.85946 33.0435 8.93643L33.0412 8.93417Z" fill="url(#paint69_radial_94_22389)"/>
<path fill-rule="evenodd" clip-rule="evenodd" d="M35.2942 9.83303C35.0486 9.90321 35.0126 10.1975 35.2131 10.494C35.4158 10.7883 35.7762 10.9694 36.0217 10.8992C36.2672 10.8291 36.3055 10.5348 36.1028 10.2382C35.9001 9.94395 35.5374 9.76286 35.2919 9.83529L35.2942 9.83303Z" fill="url(#paint70_radial_94_22389)"/>
<path fill-rule="evenodd" clip-rule="evenodd" d="M37.533 10.9854C37.3123 11.0487 37.2785 11.3159 37.4587 11.5784C37.6411 11.8433 37.9655 12.0063 38.1885 11.9429C38.4092 11.8795 38.443 11.6147 38.2606 11.3498C38.0804 11.085 37.7538 10.922 37.5308 10.9854H37.533Z" fill="url(#paint71_radial_94_22389)"/>
<path fill-rule="evenodd" clip-rule="evenodd" d="M39.7137 12.3772C39.5132 12.4338 39.484 12.6715 39.6461 12.9115C39.8083 13.1492 40.1034 13.2963 40.3016 13.2374C40.5021 13.1808 40.5313 12.9432 40.3692 12.7032C40.207 12.4655 39.9119 12.3184 39.7137 12.3772Z" fill="url(#paint72_radial_94_22389)"/>
<path fill-rule="evenodd" clip-rule="evenodd" d="M23.2796 8.98067C23.6332 8.87654 24.158 9.14139 24.4509 9.56697C24.7459 9.99481 24.6964 10.4227 24.3405 10.5245C23.9868 10.6264 23.462 10.3638 23.1692 9.93822C22.8764 9.51264 22.9237 9.08254 23.2796 8.98067Z" fill="url(#paint73_radial_94_22389)"/>
<path fill-rule="evenodd" clip-rule="evenodd" d="M21.9417 9.93796C22.275 9.83835 22.7751 10.0874 23.0499 10.4926C23.3292 10.8978 23.2819 11.303 22.9485 11.4003C22.6129 11.4977 22.1151 11.2509 21.8381 10.8457C21.561 10.4428 21.6061 10.0353 21.9417 9.93796Z" fill="url(#paint74_radial_94_22389)"/>
<path fill-rule="evenodd" clip-rule="evenodd" d="M20.8937 11.194C21.1955 11.1057 21.6415 11.3299 21.8915 11.6943C22.1416 12.0588 22.1033 12.4255 21.8014 12.5115C21.4996 12.5998 21.0536 12.3757 20.8036 12.0112C20.5536 11.6468 20.5941 11.2801 20.8937 11.1918V11.194Z" fill="url(#paint75_radial_94_22389)"/>
<path fill-rule="evenodd" clip-rule="evenodd" d="M20.1303 12.6813C20.4029 12.6021 20.8038 12.8035 21.0291 13.1318C21.2566 13.46 21.2183 13.7883 20.948 13.8675C20.6777 13.9467 20.2745 13.7452 20.0492 13.417C19.824 13.091 19.86 12.7605 20.1303 12.6813Z" fill="url(#paint76_radial_94_22389)"/>
<path fill-rule="evenodd" clip-rule="evenodd" d="M19.6687 14.3693C19.9097 14.2969 20.2724 14.4803 20.4751 14.7723C20.6756 15.0688 20.644 15.3654 20.4008 15.4356C20.1598 15.5057 19.7971 15.3246 19.5944 15.0303C19.3917 14.7361 19.4232 14.4395 19.6665 14.3671L19.6687 14.3693Z" fill="url(#paint77_radial_94_22389)"/>
<path fill-rule="evenodd" clip-rule="evenodd" d="M19.5063 16.2284C19.727 16.1628 20.0491 16.3257 20.2338 16.5906C20.4163 16.8555 20.387 17.1226 20.1685 17.1882C19.95 17.2516 19.6257 17.0909 19.4432 16.826C19.2608 16.5612 19.29 16.2941 19.5063 16.2284Z" fill="url(#paint78_radial_94_22389)"/>
<path fill-rule="evenodd" clip-rule="evenodd" d="M19.6576 18.2163C19.8536 18.1597 20.1464 18.3046 20.3108 18.5446C20.4752 18.7823 20.4482 19.0222 20.2522 19.0811C20.0563 19.1399 19.7657 18.9928 19.599 18.7551C19.4368 18.5151 19.4616 18.2752 19.6576 18.2186V18.2163Z" fill="url(#paint79_radial_94_22389)"/>
<path fill-rule="evenodd" clip-rule="evenodd" d="M20.1618 20.3636C20.3082 20.3184 20.529 20.4293 20.6506 20.6081C20.7722 20.787 20.7542 20.9681 20.6078 21.0111C20.4614 21.0541 20.2407 20.9432 20.119 20.7643C19.9974 20.5855 20.0177 20.4067 20.1641 20.3614L20.1618 20.3636Z" fill="url(#paint80_radial_94_22389)"/>
<path fill-rule="evenodd" clip-rule="evenodd" d="M20.9502 22.5419C21.0606 22.5079 21.2228 22.5894 21.3151 22.723C21.4075 22.8565 21.3917 22.9924 21.2814 23.0263C21.1732 23.058 21.0088 22.9765 20.9165 22.843C20.8241 22.7094 20.8376 22.5736 20.9502 22.5419Z" fill="url(#paint81_radial_94_22389)"/>
<path fill-rule="evenodd" clip-rule="evenodd" d="M41.9701 14.6006C42.1661 14.6889 42.3327 14.6277 42.3395 14.4625C42.3508 14.2972 42.1976 14.0935 42.0039 14.0052C41.8079 13.9169 41.6412 13.9781 41.6322 14.1433C41.6232 14.3086 41.7741 14.5123 41.9701 14.6028V14.6006Z" fill="url(#paint82_radial_94_22389)"/>
<path fill-rule="evenodd" clip-rule="evenodd" d="M43.86 16.2427C43.9997 16.3242 44.1303 16.2993 44.1574 16.1929C44.1844 16.0843 44.0943 15.9326 43.9569 15.8556C43.8195 15.7741 43.6866 15.7968 43.6596 15.9054C43.6325 16.0118 43.7226 16.1635 43.86 16.2427Z" fill="url(#paint83_radial_94_22389)"/>
<path fill-rule="evenodd" clip-rule="evenodd" d="M45.5585 18.1258C45.6891 18.2005 45.8152 18.1801 45.84 18.0782C45.8671 17.9764 45.7815 17.8315 45.6486 17.7568C45.5179 17.6798 45.3918 17.7025 45.3648 17.8043C45.3377 17.9062 45.4256 18.0511 45.5562 18.1258H45.5585Z" fill="url(#paint84_radial_94_22389)"/>
<path fill-rule="evenodd" clip-rule="evenodd" d="M23.3603 27.1509C23.4841 27.2211 23.6013 27.2007 23.626 27.1034C23.6463 27.0038 23.563 26.868 23.4391 26.7955C23.3175 26.7231 23.1981 26.7457 23.1756 26.8431C23.153 26.9404 23.2364 27.0785 23.3603 27.1509Z" fill="url(#paint85_radial_94_22389)"/>
<path fill-rule="evenodd" clip-rule="evenodd" d="M22.0743 25.0746C22.2049 25.1516 22.3288 25.129 22.3513 25.0248C22.3761 24.923 22.2882 24.7781 22.1576 24.7011C22.027 24.6264 21.9031 24.6468 21.8805 24.7487C21.858 24.8528 21.9436 24.9977 22.0743 25.0724V25.0746Z" fill="url(#paint86_radial_94_22389)"/>
<path fill-rule="evenodd" clip-rule="evenodd" d="M24.8561 8.3144C24.489 8.42079 24.4394 8.86448 24.7435 9.30364C25.0453 9.74507 25.5882 10.0167 25.9531 9.91032C26.3202 9.80392 26.3698 9.36024 26.0679 8.91881C25.7639 8.47739 25.221 8.20574 24.8539 8.31214L24.8561 8.3144Z" fill="url(#paint87_radial_94_22389)"/>
<path fill-rule="evenodd" clip-rule="evenodd" d="M40.0623 57.1018C41.0466 57.4029 41.7382 56.8981 41.6098 55.9768C41.4814 55.0554 40.5781 54.0639 39.5916 53.7629C38.6072 53.4618 37.9135 53.9666 38.0441 54.8879C38.1748 55.8115 39.078 56.803 40.0623 57.1041V57.1018Z" fill="url(#paint88_radial_94_22389)"/>
<path fill-rule="evenodd" clip-rule="evenodd" d="M44.1641 18.5041C44.0808 18.5472 44.0853 18.6694 44.1754 18.778C44.2655 18.8867 44.4051 18.9388 44.4885 18.8958C44.5718 18.8528 44.5651 18.7282 44.4772 18.6219C44.3871 18.5132 44.2475 18.4611 44.1664 18.5041H44.1641ZM30.566 49.0552C31.4805 49.56 32.3297 49.3676 32.4649 48.6228C32.6023 47.8781 31.9693 46.8639 31.0526 46.3568C30.1381 45.8498 29.2866 46.0422 29.1515 46.787C29.0186 47.5317 29.6493 48.5459 30.5638 49.0552H30.566ZM64.3912 43.6291C64.5804 43.7332 64.7583 43.6947 64.7921 43.5431C64.8237 43.3914 64.6953 43.1831 64.5083 43.0767C64.3191 42.9726 64.1389 43.0111 64.1074 43.165C64.0758 43.3167 64.202 43.5249 64.3912 43.6291ZM60.8683 49.3404C61.222 49.354 61.3864 49.0688 61.24 48.6998C61.0936 48.3308 60.6881 48.0207 60.3345 48.0071C59.9831 47.9912 59.8164 48.281 59.9629 48.6477C60.1115 49.0167 60.517 49.3268 60.8683 49.3427V49.3404ZM63.0127 46.8005C63.2469 46.7756 63.3258 46.5402 63.1861 46.2776C63.0465 46.0128 62.7424 45.8226 62.5059 45.8498C62.2716 45.8769 62.1928 46.1124 62.3324 46.375C62.4721 46.6353 62.7762 46.8277 63.0127 46.8005ZM57.8748 51.2148C57.3815 50.9409 57.0459 50.3953 57.127 49.9946C57.2104 49.594 57.6766 49.4921 58.1721 49.766C58.6654 50.0399 58.9988 50.5877 58.9177 50.9884C58.8366 51.3891 58.3681 51.4909 57.8748 51.2148V51.2148ZM54.7574 52.6409C54.2078 52.3353 53.8362 51.7286 53.9263 51.2827C54.0141 50.8367 54.5322 50.7235 55.0818 51.0292C55.6314 51.3348 56.003 51.9414 55.9129 52.3874C55.8228 52.8311 55.3048 52.9465 54.7574 52.6409ZM51.2526 53.5011C50.6444 53.1616 50.23 52.487 50.3246 51.9912C50.4237 51.4955 50.9981 51.3687 51.6085 51.7083C52.2189 52.0456 52.6311 52.7224 52.532 53.2182C52.4329 53.7139 51.8608 53.8407 51.2526 53.5011V53.5011ZM47.4347 53.7886C46.7567 53.4128 46.2972 52.6613 46.4031 52.1112C46.5112 51.5589 47.1464 51.4185 47.8244 51.7943C48.5024 52.1701 48.9619 52.9216 48.856 53.4717C48.7479 54.0218 48.1104 54.1644 47.4347 53.7886ZM43.3758 53.4921C42.6257 53.0755 42.1076 52.2402 42.2248 51.6268C42.3441 51.0133 43.0492 50.8548 43.8015 51.2736C44.556 51.6924 45.0696 52.5277 44.9525 53.1389C44.8353 53.7524 44.1303 53.9109 43.378 53.4921H43.3758ZM39.1501 52.6205C38.3145 52.1565 37.7379 51.2284 37.8662 50.547C37.9946 49.8656 38.7762 49.689 39.6142 50.1554C40.4521 50.6194 41.0242 51.5498 40.8958 52.2289C40.7674 52.9103 39.9858 53.0846 39.1501 52.6228V52.6205ZM34.8525 51.1152C33.9672 50.6262 33.3591 49.6438 33.492 48.9239C33.6249 48.204 34.4493 48.0184 35.3345 48.5096C36.2197 48.9986 36.8279 49.9811 36.6927 50.6986C36.5598 51.4208 35.7354 51.6064 34.8525 51.1152V51.1152ZM4.90829 7.0724C5.11101 7.18332 5.29797 7.14257 5.32725 6.98185C5.35653 6.81886 5.21463 6.59702 5.00965 6.4861C4.80693 6.37518 4.61772 6.41592 4.5907 6.57891C4.56367 6.73963 4.70557 6.96374 4.91054 7.07466L4.90829 7.0724ZM4.61322 10.7011C4.82495 10.8188 5.02317 10.7758 5.0547 10.6038C5.08173 10.434 4.93532 10.2008 4.71909 10.0831C4.5051 9.96542 4.30689 10.0084 4.2776 10.1805C4.24832 10.3503 4.39698 10.5834 4.61322 10.7011ZM4.92856 14.7034C5.21237 14.8596 5.47366 14.803 5.51195 14.5743C5.55024 14.348 5.35203 14.0356 5.06822 13.8816C4.78441 13.7254 4.52087 13.782 4.48258 14.0107C4.44429 14.237 4.6425 14.5494 4.92856 14.7056V14.7034ZM5.86108 18.9297C6.23949 19.138 6.58637 19.061 6.63818 18.7554C6.68999 18.4521 6.42645 18.0378 6.04804 17.8296C5.66962 17.6213 5.32274 17.7005 5.27094 18.0016C5.21913 18.3049 5.48267 18.7192 5.86108 18.9275V18.9297ZM7.38149 23.3032C7.88379 23.5794 8.34554 23.4775 8.41762 23.0723C8.48745 22.6671 8.13381 22.1148 7.63151 21.8386C7.12921 21.5602 6.66521 21.6643 6.59763 22.0695C6.53006 22.4747 6.88144 23.027 7.38374 23.3032H7.38149ZM9.48078 27.5929C10.0371 27.8985 10.5484 27.7854 10.6273 27.3349C10.7039 26.8867 10.3164 26.2732 9.75783 25.9653C9.19922 25.6597 8.68566 25.7752 8.60908 26.2234C8.5325 26.6739 8.92217 27.2873 9.48078 27.5929V27.5929ZM12.0869 31.8193C12.704 32.1589 13.2739 32.0321 13.3595 31.5318C13.4451 31.0338 13.0149 30.3524 12.3977 30.0129C11.7805 29.671 11.2107 29.8001 11.1251 30.3003C11.0395 30.8006 11.472 31.4797 12.0891 31.8216L12.0869 31.8193ZM15.1435 35.9008C15.826 36.2788 16.4589 36.1339 16.5557 35.5816C16.6526 35.027 16.1751 34.2732 15.4881 33.8951C14.8056 33.5148 14.1726 33.6597 14.0758 34.2143C13.9812 34.7689 14.4587 35.525 15.1435 35.903V35.9008ZM18.5897 39.7581C19.3488 40.1769 20.0471 40.0162 20.1574 39.4005C20.2655 38.7847 19.7362 37.9449 18.9771 37.5261C18.2181 37.1051 17.5153 37.2658 17.4094 37.8815C17.3036 38.4972 17.8329 39.3371 18.5897 39.7581V39.7581ZM22.3581 43.3122C23.196 43.7762 23.9776 43.5996 24.097 42.916C24.2186 42.2324 23.633 41.302 22.7928 40.8357C21.9504 40.3716 21.171 40.5482 21.0517 41.2318C20.9323 41.9154 21.5179 42.8458 22.3581 43.3122V43.3122ZM26.381 46.4202C27.2684 46.9115 28.0906 46.7258 28.219 46.0037C28.3496 45.2839 27.7347 44.2991 26.8472 43.8079C25.962 43.3167 25.1376 43.5023 25.0092 44.2267C24.8808 44.9466 25.4958 45.929 26.381 46.4202ZM12.8505 22.4815C13.141 23.1674 13.9024 23.7469 14.5511 23.7763C15.202 23.8035 15.4948 23.2693 15.2043 22.5856C14.916 21.8997 14.1546 21.3202 13.5014 21.2908C12.8505 21.2613 12.5576 21.7956 12.8482 22.4815H12.8505ZM44.1574 45.7366C44.2137 45.8769 44.3668 45.9947 44.4997 46.0014C44.6349 46.006 44.6934 45.8973 44.6371 45.7547C44.5808 45.6166 44.4277 45.4966 44.2925 45.4898C44.1596 45.4853 44.0988 45.594 44.1551 45.7366H44.1574ZM41.0467 45.3812C40.9814 45.225 41.0512 45.105 41.1999 45.1118C41.3485 45.1163 41.5175 45.2499 41.5828 45.4038C41.6459 45.56 41.576 45.68 41.4274 45.6755C41.281 45.6687 41.1098 45.5374 41.0467 45.3812V45.3812ZM37.7446 44.5821C37.6613 44.3761 37.7514 44.2131 37.9473 44.2222C38.1433 44.2312 38.3731 44.4055 38.4564 44.6138C38.542 44.8221 38.4519 44.985 38.2559 44.976C38.0577 44.9669 37.8302 44.7926 37.7469 44.5844L37.7446 44.5821ZM34.3569 43.3484C34.242 43.0699 34.3637 42.8549 34.6272 42.8662C34.8885 42.8775 35.1926 43.1107 35.3075 43.3891C35.4201 43.6653 35.2984 43.8804 35.0372 43.8713C34.7759 43.86 34.4695 43.6268 34.3569 43.3506V43.3484ZM30.9354 41.7049C30.7823 41.3359 30.9422 41.0484 31.2936 41.062C31.645 41.0779 32.0504 41.3903 32.2013 41.7593C32.3545 42.1282 32.1923 42.4157 31.8454 42.4021C31.4963 42.3886 31.0886 42.0762 30.9354 41.7049ZM27.6716 39.6925C27.5027 39.2828 27.6784 38.9613 28.0681 38.9771C28.4555 38.9953 28.9105 39.3416 29.0772 39.7536C29.2461 40.1656 29.0704 40.4848 28.6807 40.4689C28.291 40.4508 27.8383 40.1045 27.6694 39.6925H27.6716ZM24.5362 37.3495C24.3447 36.8923 24.543 36.5369 24.9732 36.555C25.4057 36.5731 25.9102 36.9602 26.0994 37.4152C26.2886 37.8747 26.0927 38.2279 25.6602 38.2098C25.23 38.1894 24.7254 37.8045 24.5362 37.3473V37.3495ZM21.581 34.7214C21.3692 34.212 21.5877 33.8182 22.0675 33.8385C22.5495 33.8589 23.1104 34.2867 23.3199 34.7961C23.5316 35.3054 23.3131 35.6993 22.8333 35.6789C22.3536 35.6585 21.7927 35.2307 21.581 34.7214ZM18.8713 31.8578C18.6348 31.2918 18.8758 30.8527 19.4119 30.8776C19.9457 30.9002 20.5719 31.3779 20.8084 31.9438C21.0426 32.5075 20.8016 32.9466 20.2678 32.9262C19.734 32.9013 19.11 32.426 18.8735 31.86L18.8713 31.8578ZM16.4544 28.8199C16.1909 28.1928 16.4589 27.7061 17.0535 27.731C17.6482 27.7582 18.3442 28.2879 18.6077 28.9172C18.8713 29.5443 18.601 30.0332 18.0086 30.0083C17.4162 29.9812 16.7179 29.4515 16.4544 28.8221V28.8199ZM14.4474 25.6711C14.1681 25.0078 14.452 24.4917 15.0804 24.5188C15.7111 24.546 16.4454 25.1074 16.7247 25.7707C17.004 26.4339 16.7202 26.95 16.0917 26.9206C15.4633 26.8912 14.7268 26.3321 14.4497 25.6688L14.4474 25.6711ZM25.8156 1.18675C25.8787 1.33615 26.0454 1.46066 26.1895 1.46971C26.3337 1.47424 26.399 1.36105 26.3382 1.21391C26.2751 1.06451 26.1084 0.93774 25.9643 0.930949C25.8224 0.924158 25.7548 1.03961 25.8156 1.18675ZM22.8266 1.26145C22.8919 1.41765 23.0676 1.55121 23.2185 1.558C23.3694 1.56479 23.4393 1.44481 23.3739 1.28862C23.3086 1.13242 23.1329 0.99886 22.9798 0.992069C22.8288 0.985278 22.759 1.10525 22.8266 1.26371V1.26145ZM20.0043 1.7821C20.0944 1.99037 20.3264 2.1692 20.5291 2.17825C20.7296 2.18731 20.8219 2.02659 20.7341 1.81832C20.6462 1.61006 20.412 1.43349 20.2092 1.42217C20.0088 1.41086 19.9164 1.57384 20.002 1.7821H20.0043ZM17.4702 2.75097C17.5874 3.02941 17.8982 3.26484 18.1685 3.27842C18.4366 3.28974 18.5582 3.07695 18.4411 2.79625C18.3239 2.51781 18.0086 2.28238 17.7428 2.2688C17.4748 2.25522 17.3531 2.47027 17.4702 2.75097ZM15.2583 4.14316C15.4138 4.5144 15.8327 4.82906 16.1886 4.84717C16.5445 4.86302 16.7067 4.57552 16.5512 4.20428C16.3936 3.83303 15.9769 3.51837 15.6187 3.50253C15.2628 3.48442 15.0984 3.77191 15.2583 4.14316ZM13.542 5.93602C13.7154 6.35027 14.1794 6.69889 14.5736 6.717C14.97 6.73511 15.1502 6.41592 14.9745 6.00393C14.7988 5.58967 14.3348 5.24106 13.9384 5.22295C13.5442 5.20484 13.364 5.52628 13.5397 5.93602H13.542ZM12.2558 8.0888C12.4495 8.54834 12.9653 8.9377 13.4023 8.95807C13.8415 8.97844 14.0398 8.62078 13.846 8.16351C13.6523 7.70624 13.1388 7.31688 12.6995 7.29651C12.2603 7.27613 12.0621 7.63153 12.2558 8.0888V8.0888ZM11.4201 10.554C11.6364 11.0611 12.2063 11.4934 12.6928 11.5161C13.1793 11.5387 13.4001 11.1426 13.1838 10.6332C12.9676 10.1216 12.3977 9.69151 11.9112 9.66888C11.4247 9.64624 11.2062 10.0401 11.4224 10.5517L11.4201 10.554ZM11.0462 13.284C11.2873 13.85 11.9179 14.3299 12.4585 14.3548C12.9991 14.3797 13.2424 13.9405 13.0014 13.3746C12.7604 12.8086 12.1297 12.3287 11.5891 12.3038C11.0485 12.2767 10.8052 12.7181 11.0462 13.284V13.284ZM11.1408 16.2223C11.4066 16.8516 12.1094 17.3836 12.7063 17.4108C13.3055 17.4379 13.5735 16.949 13.3077 16.3197C13.0419 15.6903 12.3391 15.1584 11.7422 15.1312C11.1431 15.104 10.8728 15.593 11.1408 16.2223ZM11.7648 19.3123C12.0441 19.9778 12.7829 20.537 13.4136 20.5641C14.0443 20.5913 14.3258 20.0774 14.0488 19.4119C13.7672 18.7464 13.0284 18.1872 12.3977 18.1601C11.767 18.1306 11.4832 18.6468 11.767 19.31L11.7648 19.3123ZM17.8824 10.305C17.6842 10.6581 17.9388 11.2535 18.4456 11.6383C18.9524 12.0209 19.5245 12.048 19.7204 11.6949C19.9187 11.344 19.6686 10.7464 19.1596 10.3638C18.6505 9.98127 18.0807 9.9541 17.8824 10.305ZM28.6312 34.821C28.5906 34.8979 28.6424 35.027 28.7528 35.1107C28.8609 35.1922 28.9826 35.199 29.0254 35.122C29.0681 35.0451 29.0141 34.916 28.906 34.8346C28.7979 34.7508 28.6762 34.7463 28.6312 34.821ZM41.6909 11.9416C41.6481 12.0163 41.6999 12.1454 41.8103 12.2291C41.9184 12.3129 42.0446 12.3174 42.0874 12.2427C42.1324 12.1657 42.0783 12.0367 41.9702 11.9552C41.8621 11.8715 41.7337 11.8647 41.6909 11.9416V11.9416ZM26.3697 32.9217C26.4125 32.8402 26.5409 32.847 26.6558 32.933C26.7706 33.0191 26.827 33.1549 26.7819 33.2364C26.7369 33.3179 26.6085 33.3111 26.4958 33.2251C26.381 33.1368 26.3247 33.001 26.3697 32.9217ZM24.2119 30.7848C24.2727 30.6761 24.4439 30.6852 24.5948 30.8029C24.7479 30.9183 24.8223 31.1017 24.7637 31.2081C24.7051 31.3145 24.5317 31.3077 24.3808 31.1922C24.2276 31.0745 24.151 30.8934 24.2119 30.787V30.7848ZM22.2477 28.4735C22.3265 28.3309 22.5563 28.34 22.7613 28.4962C22.964 28.6524 23.0676 28.8946 22.9865 29.0372C22.9077 29.1798 22.6779 29.1707 22.473 29.0146C22.2702 28.8584 22.1689 28.6161 22.2477 28.4735ZM20.5066 26.031C20.6124 25.8386 20.9188 25.8544 21.1913 26.0604C21.4639 26.2664 21.599 26.5879 21.4931 26.7803C21.3873 26.9704 21.0809 26.9568 20.8084 26.7508C20.5358 26.5426 20.4007 26.2211 20.5066 26.031ZM19.119 23.5794C19.2362 23.3666 19.5763 23.3824 19.8804 23.6133C20.1845 23.8442 20.3354 24.2019 20.216 24.4147C20.0989 24.6275 19.7587 24.6116 19.4547 24.3807C19.1528 24.1498 18.9997 23.7899 19.119 23.5794ZM18.0379 21.1119C18.1685 20.8765 18.5492 20.8946 18.8848 21.1482C19.2227 21.404 19.3893 21.8046 19.2587 22.0401C19.1281 22.2755 18.7496 22.2596 18.4118 22.0016C18.0762 21.7458 17.9072 21.3474 18.0379 21.1119V21.1119ZM17.2855 18.6784C17.4297 18.4181 17.8532 18.4362 18.2271 18.7215C18.6032 19.0067 18.7879 19.4504 18.6438 19.7107C18.4974 19.971 18.0762 19.9529 17.7022 19.67C17.3283 19.3847 17.1414 18.941 17.2855 18.6807V18.6784ZM16.8756 16.3264C17.0378 16.0344 17.5085 16.0548 17.9252 16.3717C18.3442 16.6886 18.5514 17.1821 18.3892 17.4719C18.2271 17.7639 17.7563 17.7413 17.3396 17.4243C16.9206 17.1074 16.7134 16.6139 16.8756 16.3242V16.3264ZM16.8193 14.099C16.9995 13.7752 17.5221 13.8001 17.9861 14.151C18.4501 14.5042 18.6821 15.052 18.4996 15.3734C18.3217 15.6971 17.7969 15.6722 17.3328 15.3214C16.8666 14.9705 16.6368 14.4227 16.817 14.099H16.8193ZM17.1662 12.0843C17.3576 11.7447 17.9095 11.7696 18.4028 12.1408C18.8938 12.5144 19.1348 13.0916 18.9434 13.4312C18.7541 13.7707 18.2023 13.7458 17.7113 13.3746C17.2202 13.0033 16.977 12.4261 17.1662 12.0843ZM39.265 10.2642C39.22 10.3435 39.274 10.4793 39.3912 10.5676C39.506 10.6559 39.6389 10.6604 39.684 10.5812C39.7313 10.5019 39.675 10.3661 39.5578 10.2778C39.443 10.1895 39.3101 10.185 39.2628 10.2642H39.265ZM36.6882 8.80867C36.6274 8.91506 36.7017 9.09616 36.8549 9.21387C37.0103 9.32932 37.1838 9.33837 37.2468 9.23198C37.3099 9.12559 37.2356 8.94449 37.0779 8.82678C36.9247 8.70906 36.749 8.70227 36.686 8.80867H36.6882ZM34.0506 7.6338C33.9695 7.77641 34.0686 8.01637 34.2758 8.17256C34.4808 8.32876 34.7151 8.34008 34.7984 8.19746C34.8817 8.05485 34.7804 7.81263 34.5732 7.6587C34.3659 7.5025 34.1339 7.49119 34.0506 7.6338ZM31.3994 6.75095C31.2891 6.9411 31.4242 7.26255 31.699 7.47081C31.9738 7.67907 32.2869 7.69266 32.3973 7.50477C32.5076 7.31462 32.3725 6.99317 32.0977 6.78491C31.8229 6.57665 31.5121 6.56306 31.4017 6.75095H31.3994ZM28.888 6.2552C28.7663 6.46572 28.9172 6.82565 29.2213 7.05655C29.5277 7.28745 29.8723 7.3033 29.9962 7.09504C30.1178 6.88451 29.9669 6.52458 29.6605 6.29368C29.3565 6.06278 29.0096 6.04467 28.888 6.25746V6.2552ZM26.4913 6.099C26.3584 6.33443 26.5229 6.73284 26.863 6.98864C27.2031 7.24444 27.5883 7.26481 27.7212 7.02939C27.8563 6.79396 27.6896 6.39555 27.3495 6.13975C27.0094 5.88395 26.6242 5.86584 26.4913 6.099ZM24.2546 6.2801C24.106 6.54043 24.2929 6.98411 24.6714 7.26934C25.0475 7.55457 25.4755 7.57268 25.6241 7.31462C25.7728 7.05429 25.5881 6.6106 25.2097 6.32537C24.8313 6.04015 24.4056 6.01977 24.2569 6.2801H24.2546ZM22.2252 6.79623C22.0608 7.08598 22.268 7.57947 22.6869 7.89413C23.1081 8.21104 23.5812 8.23368 23.7456 7.94393C23.91 7.65191 23.7028 7.16068 23.2838 6.84376C22.8626 6.52911 22.3896 6.50647 22.2252 6.79623V6.79623ZM20.4435 7.63833C20.6259 7.31462 21.153 7.33952 21.617 7.69266C22.0833 8.04579 22.313 8.59135 22.1306 8.91506C21.9481 9.23651 21.4233 9.21161 20.957 8.85847C20.4908 8.50759 20.261 7.95977 20.4435 7.63833ZM18.9952 8.82451C19.1844 8.48495 19.7407 8.50986 20.2318 8.8811C20.725 9.25235 20.9661 9.8296 20.7746 10.1714C20.5831 10.511 20.029 10.4861 19.538 10.1171C19.047 9.74358 18.8014 9.16633 18.9952 8.82678V8.82451ZM22.8063 22.7644C22.732 22.8029 22.741 22.9139 22.8198 23.0135C22.9009 23.1108 23.0271 23.1583 23.0991 23.1198C23.1735 23.0791 23.1645 22.9704 23.0834 22.8708C23.0023 22.7735 22.8761 22.726 22.8041 22.7667L22.8063 22.7644ZM22.1531 20.9331C22.0765 20.9738 22.0833 21.0916 22.1711 21.1934C22.2567 21.2953 22.3896 21.3451 22.4662 21.3044C22.5428 21.2613 22.5338 21.1459 22.4504 21.044C22.3648 20.9399 22.2319 20.8924 22.1531 20.9331V20.9331ZM45.4976 20.2857C45.4187 20.3264 45.4232 20.4441 45.5088 20.546C45.5944 20.6479 45.7251 20.6977 45.8062 20.6569C45.885 20.6162 45.8805 20.5007 45.7949 20.3989C45.7093 20.2947 45.5764 20.2472 45.4976 20.2857ZM21.8333 19.1221C21.9481 19.1289 22.081 19.2308 22.1306 19.3485C22.1824 19.4685 22.1306 19.5613 22.0157 19.559C21.9008 19.5522 21.7679 19.4526 21.7161 19.3327C21.6666 19.2127 21.7161 19.1176 21.8333 19.1221V19.1221ZM21.6891 17.3564C21.8423 17.3632 22.0225 17.4991 22.0878 17.6575C22.1554 17.8182 22.0878 17.9427 21.9324 17.9359C21.7792 17.9292 21.6013 17.7933 21.5337 17.6326C21.4661 17.4719 21.5359 17.3474 21.6891 17.3542V17.3564ZM21.8107 15.6836C22.0157 15.6926 22.2522 15.8737 22.3423 16.0865C22.4324 16.2993 22.3423 16.4668 22.1351 16.4577C21.9301 16.4487 21.6914 16.2676 21.6035 16.0548C21.5134 15.8398 21.6035 15.6745 21.8107 15.6836ZM22.2274 14.2189C22.4527 14.228 22.7185 14.4295 22.8198 14.6649C22.9212 14.9026 22.8153 15.0882 22.5878 15.0769C22.3626 15.0656 22.0968 14.8664 21.9954 14.6287C21.8963 14.391 21.9977 14.2076 22.2274 14.2189V14.2189ZM22.9054 12.9264C23.1577 12.9354 23.4528 13.1595 23.5654 13.4244C23.6758 13.6892 23.5609 13.893 23.3064 13.8816C23.0541 13.8703 22.759 13.6462 22.6486 13.3836C22.5383 13.1188 22.6531 12.915 22.9054 12.9264ZM23.8289 11.833C24.1105 11.8443 24.4371 12.0933 24.561 12.3876C24.6826 12.6796 24.5542 12.9082 24.2727 12.8947C23.9911 12.8811 23.6645 12.6343 23.5406 12.3423C23.4167 12.0503 23.5451 11.8217 23.8267 11.833H23.8289ZM24.9822 10.9615C24.6691 10.9479 24.5272 11.1991 24.6623 11.5251C24.7997 11.8511 25.1646 12.1273 25.4755 12.1408C25.7886 12.1544 25.9327 11.9009 25.7953 11.5772C25.6579 11.2512 25.2953 10.975 24.9799 10.9615H24.9822ZM26.3382 10.3254C26.6873 10.3412 27.0927 10.6491 27.2437 11.009C27.3946 11.3712 27.2346 11.6519 26.8878 11.636C26.5386 11.6202 26.1354 11.3146 25.9823 10.9524C25.8314 10.5902 25.9913 10.3095 26.3382 10.3254ZM27.8901 9.98127C27.5207 9.96316 27.3518 10.2597 27.5117 10.6423C27.6716 11.0226 28.0996 11.3463 28.469 11.3644C28.8361 11.3802 29.0051 11.086 28.8452 10.7034C28.6852 10.3208 28.2595 9.99938 27.8901 9.98127ZM42.6189 16.666C42.441 16.6592 42.3599 16.7996 42.4342 16.9852C42.5108 17.1708 42.7158 17.3247 42.8937 17.3338C43.0717 17.3429 43.1528 17.198 43.0784 17.0146C43.0041 16.8313 42.7969 16.6751 42.6189 16.666ZM40.9161 15.0565C40.6863 15.0475 40.5805 15.2308 40.6796 15.4662C40.7764 15.7039 41.04 15.9054 41.2697 15.9145C41.4995 15.9235 41.6053 15.7424 41.5085 15.5047C41.4116 15.2693 41.1458 15.0678 40.9161 15.0565ZM39.1119 13.6575C38.8573 13.644 38.7379 13.85 38.8483 14.1125C38.9564 14.3751 39.2493 14.597 39.506 14.6083C39.7606 14.6196 39.8777 14.4159 39.7696 14.1533C39.6615 13.8907 39.3664 13.6689 39.1119 13.6575ZM37.2175 12.4397C36.936 12.4261 36.8031 12.6524 36.9247 12.9467C37.0464 13.2387 37.373 13.4855 37.6568 13.4991C37.9383 13.5127 38.069 13.2863 37.9496 12.992C37.828 12.7 37.5013 12.451 37.2175 12.4374V12.4397ZM35.2759 11.43C34.9628 11.4165 34.8164 11.6677 34.9516 11.9937C35.0867 12.3174 35.4494 12.5936 35.7647 12.6072C36.0778 12.623 36.222 12.3695 36.0891 12.0458C35.9539 11.7198 35.589 11.4436 35.2759 11.4323V11.43ZM33.323 10.6468C32.9739 10.631 32.8117 10.9094 32.9626 11.2716C33.1136 11.6338 33.5168 11.9394 33.8659 11.9552C34.215 11.9711 34.3749 11.6926 34.2263 11.3304C34.0754 10.9682 33.6699 10.6626 33.323 10.6468ZM31.4152 10.1443C31.0481 10.1261 30.8791 10.4227 31.039 10.8053C31.199 11.1878 31.6247 11.5093 31.9918 11.5251C32.3612 11.541 32.5302 11.2467 32.3703 10.8641C32.2126 10.4815 31.7846 10.1601 31.4152 10.1443ZM29.5885 9.90883C29.2078 9.89072 29.0344 10.1963 29.1988 10.5902C29.3632 10.9841 29.8047 11.3191 30.1854 11.3372C30.5638 11.3553 30.7395 11.0475 30.575 10.6536C30.4106 10.2574 29.9691 9.92694 29.5885 9.90883V9.90883Z" fill="url(#paint89_radial_94_22389)"/>
<path fill-rule="evenodd" clip-rule="evenodd" d="M42.6146 25.2039L41.8037 25.8287C41.3577 25.2447 40.8216 24.801 40.1954 24.4999C39.5715 24.1988 38.8845 24.0472 38.1344 24.0472C37.3168 24.0472 36.56 24.2464 35.8617 24.6403C35.1635 25.0364 34.6251 25.5661 34.2422 26.2316C33.8593 26.8972 33.6656 27.6487 33.6656 28.4795C33.6656 29.7381 34.0935 30.7885 34.9517 31.6306C35.8099 32.4727 36.8911 32.8937 38.1975 32.8937C39.6346 32.8937 40.8351 32.3278 41.8014 31.1982L42.6123 31.8162C42.101 32.4704 41.4613 32.9775 40.6977 33.3329C39.9342 33.6906 39.0782 33.8694 38.1344 33.8694C36.3392 33.8694 34.9202 33.2695 33.8841 32.0675C33.0146 31.0556 32.5776 29.8287 32.5776 28.3957C32.5776 26.8881 33.1047 25.6159 34.1566 24.5859C35.2108 23.5537 36.5307 23.0398 38.1187 23.0398C39.076 23.0398 39.9409 23.23 40.7135 23.608C41.4861 23.9883 42.119 24.5203 42.6123 25.2017L42.6146 25.2039ZM43.7003 25.9872H44.7139L47.3312 31.8343L49.8743 25.9872H50.9149L46.3852 36.4002H45.3446L46.8312 32.9866L43.698 25.9872H43.7003ZM52.0344 23.0421H53.0052V33.6136H52.0344V23.0421ZM61.4451 31.085L62.2695 31.5197C61.9992 32.0494 61.6861 32.4772 61.3303 32.8032C60.9744 33.1269 60.5779 33.3759 60.1342 33.5457C59.6882 33.7155 59.1882 33.7992 58.6296 33.7992C57.3862 33.7992 56.4176 33.3918 55.7171 32.5791C55.0166 31.7642 54.6675 30.8451 54.6675 29.8219C54.6675 28.8575 54.9648 27.9951 55.5595 27.2413C56.3095 26.2814 57.3164 25.7993 58.5778 25.7993C59.8391 25.7993 60.9136 26.2928 61.6884 27.2752C62.238 27.9702 62.5195 28.8349 62.5286 29.8785H55.6676C55.6856 30.7613 55.9694 31.4857 56.5145 32.0471C57.0618 32.613 57.7398 32.8937 58.5417 32.8937C58.9291 32.8937 59.3098 32.8258 59.6747 32.6923C60.0418 32.5587 60.3527 32.3821 60.6117 32.158C60.8685 31.9362 61.1478 31.5785 61.4451 31.0828V31.085ZM61.4541 29.0319C61.3235 28.5067 61.132 28.0901 60.882 27.7778C60.6297 27.4631 60.2986 27.2118 59.8864 27.0217C59.4742 26.8293 59.0418 26.7342 58.589 26.7342C57.8389 26.7342 57.1947 26.9741 56.6564 27.454C56.26 27.8049 55.9649 28.3301 55.7622 29.0319H61.4519H61.4541ZM64.3238 25.9872H65.2946V27.3544C65.6865 26.8315 66.1212 26.4422 66.5942 26.1864C67.0695 25.9306 67.5876 25.8015 68.1462 25.8015C68.7048 25.8015 69.2206 25.9441 69.6621 26.2339C70.1036 26.5237 70.4302 26.913 70.6397 27.4042C70.8491 27.8932 70.955 28.6561 70.955 29.6929V33.6136H69.9842V29.9803C69.9842 29.1043 69.9459 28.518 69.8716 28.2237C69.7522 27.7212 69.5337 27.3431 69.2116 27.0873C68.8895 26.8338 68.4705 26.707 67.9547 26.707C67.3623 26.707 66.8308 26.904 66.3645 27.2956C65.896 27.6849 65.5851 28.1716 65.4387 28.7512C65.3464 29.1292 65.2991 29.8196 65.2991 30.8224V33.6159H64.3283V25.9894L64.3238 25.9872ZM73.3809 22.8564C73.6016 22.8564 73.7908 22.9357 73.9485 23.0964C74.1062 23.2549 74.185 23.4473 74.185 23.6714C74.185 23.8955 74.1062 24.0834 73.9485 24.2418C73.7908 24.4026 73.6039 24.4818 73.3809 24.4818C73.1579 24.4818 72.9755 24.4026 72.8178 24.2418C72.6601 24.0834 72.5813 23.8932 72.5813 23.6714C72.5813 23.4495 72.6601 23.2549 72.8178 23.0964C72.9755 22.9357 73.1602 22.8564 73.3809 22.8564ZM72.8966 25.9872H73.8674V33.6136H72.8966V25.9872V25.9872ZM75.7708 25.9872H76.7416V29.5457C76.7416 30.415 76.7889 31.0103 76.8812 31.3386C77.0186 31.8049 77.2889 32.1739 77.6808 32.4455C78.0728 32.7149 78.5458 32.853 79.0909 32.853C79.636 32.853 80.0977 32.7217 80.4806 32.4568C80.8591 32.192 81.1226 31.8456 81.2668 31.4155C81.3636 31.1213 81.4154 30.4987 81.4154 29.5457V25.9872H82.4155V29.7268C82.4155 30.7772 82.2939 31.5672 82.0484 32.0992C81.8051 32.6334 81.4357 33.0499 80.9447 33.3487C80.4536 33.6498 79.8387 33.8015 79.0976 33.8015C78.3566 33.8015 77.7394 33.6498 77.2439 33.3487C76.7483 33.0499 76.3767 32.6289 76.1334 32.0901C75.8879 31.5514 75.7663 30.741 75.7663 29.6589V25.9894L75.7708 25.9872ZM84.5869 25.9872H85.5577V27.3069C85.8978 26.8202 86.2469 26.4648 86.6051 26.2384C87.0984 25.9464 87.6164 25.8015 88.1615 25.8015C88.5309 25.8015 88.8778 25.874 89.2089 26.0189C89.54 26.1615 89.8081 26.3561 90.0198 26.5961C90.2293 26.8383 90.4095 27.1824 90.5649 27.6329C90.8893 27.0353 91.297 26.5803 91.7812 26.2679C92.27 25.9555 92.7926 25.8015 93.3557 25.8015C93.8805 25.8015 94.3445 25.9351 94.7455 26.2022C95.1486 26.4671 95.446 26.8383 95.6419 27.316C95.8379 27.7913 95.9348 28.5067 95.9348 29.4597V33.6181H94.9347V29.4574C94.9347 28.638 94.8784 28.0788 94.7612 27.7732C94.6441 27.4676 94.4459 27.2209 94.1666 27.033C93.885 26.8474 93.5516 26.7523 93.162 26.7523C92.6912 26.7523 92.2565 26.8926 91.8668 27.1733C91.4749 27.454 91.1888 27.8276 91.0064 28.2939C90.8262 28.7602 90.7361 29.5412 90.7361 30.6323V33.6181H89.763V29.7155C89.763 28.7964 89.7067 28.1716 89.5918 27.8411C89.477 27.5106 89.281 27.248 88.9972 27.0488C88.7111 26.8496 88.3755 26.7523 87.9858 26.7523C87.5331 26.7523 87.1119 26.8881 86.7177 27.162C86.3258 27.4359 86.033 27.8027 85.846 28.2645C85.6568 28.7263 85.5622 29.4348 85.5622 30.3878V33.6181H84.5914V25.9917L84.5869 25.9872Z" fill="#FAFAFA"/>
</g>
<defs>
<radialGradient id="paint0_radial_94_22389" cx="0" cy="0" r="1" gradientUnits="userSpaceOnUse" gradientTransform="translate(34.9247 53.1726) scale(2.85161 2.86586)">
<stop stop-color="#2B9FDA"/>
<stop offset="0.11" stop-color="#2B9FDA"/>
<stop offset="0.58" stop-color="#25457B"/>
<stop offset="0.88" stop-color="#061023"/>
<stop offset="1" stop-color="#000109"/>
</radialGradient>
<radialGradient id="paint1_radial_94_22389" cx="0" cy="0" r="1" gradientUnits="userSpaceOnUse" gradientTransform="translate(30.0163 50.7638) scale(2.76151 2.77531)">
<stop stop-color="#2B9FDA"/>
<stop offset="0.11" stop-color="#2B9FDA"/>
<stop offset="0.58" stop-color="#25457B"/>
<stop offset="0.88" stop-color="#061023"/>
<stop offset="1" stop-color="#000109"/>
</radialGradient>
<radialGradient id="paint2_radial_94_22389" cx="0" cy="0" r="1" gradientUnits="userSpaceOnUse" gradientTransform="translate(25.2051 47.7974) scale(2.53852 2.5512)">
<stop stop-color="#2B9FDA"/>
<stop offset="0.11" stop-color="#2B9FDA"/>
<stop offset="0.58" stop-color="#25457B"/>
<stop offset="0.88" stop-color="#061023"/>
<stop offset="1" stop-color="#000109"/>
</radialGradient>
<radialGradient id="paint3_radial_94_22389" cx="0" cy="0" r="1" gradientUnits="userSpaceOnUse" gradientTransform="translate(20.59 44.3257) scale(2.2885 2.29993)">
<stop stop-color="#2B9FDA"/>
<stop offset="0.11" stop-color="#2B9FDA"/>
<stop offset="0.58" stop-color="#25457B"/>
<stop offset="0.88" stop-color="#061023"/>
<stop offset="1" stop-color="#000109"/>
</radialGradient>
<radialGradient id="paint4_radial_94_22389" cx="0" cy="0" r="1" gradientUnits="userSpaceOnUse" gradientTransform="translate(16.2513 40.4136) scale(2.0655 2.07582)">
<stop stop-color="#2B9FDA"/>
<stop offset="0.11" stop-color="#2B9FDA"/>
<stop offset="0.58" stop-color="#25457B"/>
<stop offset="0.88" stop-color="#061023"/>
<stop offset="1" stop-color="#000109"/>
</radialGradient>
<radialGradient id="paint5_radial_94_22389" cx="0" cy="0" r="1" gradientUnits="userSpaceOnUse" gradientTransform="translate(12.2806 36.1449) scale(1.86053 1.86983)">
<stop stop-color="#2B9FDA"/>
<stop offset="0.11" stop-color="#2B9FDA"/>
<stop offset="0.58" stop-color="#25457B"/>
<stop offset="0.88" stop-color="#061023"/>
<stop offset="1" stop-color="#000109"/>
</radialGradient>
<radialGradient id="paint6_radial_94_22389" cx="0" cy="0" r="1" gradientUnits="userSpaceOnUse" gradientTransform="translate(8.75771 31.5991) scale(1.68033 1.68873)">
<stop stop-color="#2B9FDA"/>
<stop offset="0.11" stop-color="#2B9FDA"/>
<stop offset="0.58" stop-color="#25457B"/>
<stop offset="0.88" stop-color="#061023"/>
<stop offset="1" stop-color="#000109"/>
</radialGradient>
<radialGradient id="paint7_radial_94_22389" cx="0" cy="0" r="1" gradientUnits="userSpaceOnUse" gradientTransform="translate(5.75515 26.9131) scale(1.26363 1.26994)">
<stop stop-color="#2B9FDA"/>
<stop offset="0.11" stop-color="#2B9FDA"/>
<stop offset="0.58" stop-color="#25457B"/>
<stop offset="0.88" stop-color="#061023"/>
<stop offset="1" stop-color="#000109"/>
</radialGradient>
<radialGradient id="paint8_radial_94_22389" cx="0" cy="0" r="1" gradientUnits="userSpaceOnUse" gradientTransform="translate(3.34321 22.1303) scale(0.950537 0.955287)">
<stop stop-color="#2B9FDA"/>
<stop offset="0.11" stop-color="#2B9FDA"/>
<stop offset="0.58" stop-color="#25457B"/>
<stop offset="0.88" stop-color="#061023"/>
<stop offset="1" stop-color="#000109"/>
</radialGradient>
<radialGradient id="paint9_radial_94_22389" cx="0" cy="0" r="1" gradientUnits="userSpaceOnUse" gradientTransform="translate(1.57472 17.3556) scale(0.714029 0.717595)">
<stop stop-color="#2B9FDA"/>
<stop offset="0.11" stop-color="#2B9FDA"/>
<stop offset="0.58" stop-color="#25457B"/>
<stop offset="0.88" stop-color="#061023"/>
<stop offset="1" stop-color="#000109"/>
</radialGradient>
<radialGradient id="paint10_radial_94_22389" cx="0" cy="0" r="1" gradientUnits="userSpaceOnUse" gradientTransform="translate(0.486961 12.681) scale(0.680242 0.68364)">
<stop stop-color="#2B9FDA"/>
<stop offset="0.11" stop-color="#2B9FDA"/>
<stop offset="0.58" stop-color="#25457B"/>
<stop offset="0.88" stop-color="#061023"/>
<stop offset="1" stop-color="#000109"/>
</radialGradient>
<radialGradient id="paint11_radial_94_22389" cx="0" cy="0" r="1" gradientUnits="userSpaceOnUse" gradientTransform="translate(44.637 56.1373) scale(2.88089 2.89529)">
<stop stop-color="#2B9FDA"/>
<stop offset="0.11" stop-color="#2B9FDA"/>
<stop offset="0.58" stop-color="#25457B"/>
<stop offset="0.88" stop-color="#061023"/>
<stop offset="1" stop-color="#000109"/>
</radialGradient>
<radialGradient id="paint12_radial_94_22389" cx="0" cy="0" r="1" gradientUnits="userSpaceOnUse" gradientTransform="translate(49.2748 56.6566) scale(2.75701 2.77078)">
<stop stop-color="#2B9FDA"/>
<stop offset="0.11" stop-color="#2B9FDA"/>
<stop offset="0.58" stop-color="#25457B"/>
<stop offset="0.88" stop-color="#061023"/>
<stop offset="1" stop-color="#000109"/>
</radialGradient>
<radialGradient id="paint13_radial_94_22389" cx="0" cy="0" r="1" gradientUnits="userSpaceOnUse" gradientTransform="translate(53.6401 56.4953) scale(2.53401 2.54668)">
<stop stop-color="#2B9FDA"/>
<stop offset="0.11" stop-color="#2B9FDA"/>
<stop offset="0.58" stop-color="#25457B"/>
<stop offset="0.88" stop-color="#061023"/>
<stop offset="1" stop-color="#000109"/>
</radialGradient>
<radialGradient id="paint14_radial_94_22389" cx="0" cy="0" r="1" gradientUnits="userSpaceOnUse" gradientTransform="translate(57.643 55.6603) scale(2.28174 2.29314)">
<stop stop-color="#2B9FDA"/>
<stop offset="0.11" stop-color="#2B9FDA"/>
<stop offset="0.58" stop-color="#25457B"/>
<stop offset="0.88" stop-color="#061023"/>
<stop offset="1" stop-color="#000109"/>
</radialGradient>
<radialGradient id="paint15_radial_94_22389" cx="0" cy="0" r="1" gradientUnits="userSpaceOnUse" gradientTransform="translate(61.2132 54.1658) scale(2.05649 2.06677)">
<stop stop-color="#2B9FDA"/>
<stop offset="0.11" stop-color="#2B9FDA"/>
<stop offset="0.58" stop-color="#25457B"/>
<stop offset="0.88" stop-color="#061023"/>
<stop offset="1" stop-color="#000109"/>
</radialGradient>
<radialGradient id="paint16_radial_94_22389" cx="0" cy="0" r="1" gradientUnits="userSpaceOnUse" gradientTransform="translate(64.2806 52.0467) scale(1.85377 1.86303)">
<stop stop-color="#2B9FDA"/>
<stop offset="0.11" stop-color="#2B9FDA"/>
<stop offset="0.58" stop-color="#25457B"/>
<stop offset="0.88" stop-color="#061023"/>
<stop offset="1" stop-color="#000109"/>
</radialGradient>
<radialGradient id="paint17_radial_94_22389" cx="0" cy="0" r="1" gradientUnits="userSpaceOnUse" gradientTransform="translate(68.7115 46.0754) scale(0.961798 0.966605)">
<stop stop-color="#2B9FDA"/>
<stop offset="0.11" stop-color="#2B9FDA"/>
<stop offset="0.58" stop-color="#25457B"/>
<stop offset="0.88" stop-color="#061023"/>
<stop offset="1" stop-color="#000109"/>
</radialGradient>
<radialGradient id="paint18_radial_94_22389" cx="0" cy="0" r="1" gradientUnits="userSpaceOnUse" gradientTransform="translate(66.8172 49.3377) scale(1.38526 1.39218)">
<stop stop-color="#2B9FDA"/>
<stop offset="0.11" stop-color="#2B9FDA"/>
<stop offset="0.58" stop-color="#25457B"/>
<stop offset="0.88" stop-color="#061023"/>
<stop offset="1" stop-color="#000109"/>
</radialGradient>
<radialGradient id="paint19_radial_94_22389" cx="0" cy="0" r="1" gradientUnits="userSpaceOnUse" gradientTransform="translate(69.8508 42.5349) scale(0.671234 0.674586)">
<stop stop-color="#2B9FDA"/>
<stop offset="0.11" stop-color="#2B9FDA"/>
<stop offset="0.58" stop-color="#25457B"/>
<stop offset="0.88" stop-color="#061023"/>
<stop offset="1" stop-color="#000109"/>
</radialGradient>
<radialGradient id="paint20_radial_94_22389" cx="0" cy="0" r="1" gradientUnits="userSpaceOnUse" gradientTransform="translate(16.5397 31.4591) scale(2.28174 2.29314)">
<stop stop-color="#2B9FDA"/>
<stop offset="0.11" stop-color="#2B9FDA"/>
<stop offset="0.58" stop-color="#25457B"/>
<stop offset="0.88" stop-color="#061023"/>
<stop offset="1" stop-color="#000109"/>
</radialGradient>
<radialGradient id="paint21_radial_94_22389" cx="0" cy="0" r="1" gradientUnits="userSpaceOnUse" gradientTransform="translate(14.0353 27.9365) scale(2.16461 2.17543)">
<stop stop-color="#2B9FDA"/>
<stop offset="0.11" stop-color="#2B9FDA"/>
<stop offset="0.58" stop-color="#25457B"/>
<stop offset="0.88" stop-color="#061023"/>
<stop offset="1" stop-color="#000109"/>
</radialGradient>
<radialGradient id="paint22_radial_94_22389" cx="0" cy="0" r="1" gradientUnits="userSpaceOnUse" gradientTransform="translate(11.963 24.3298) scale(1.95288 1.96264)">
<stop stop-color="#2B9FDA"/>
<stop offset="0.11" stop-color="#2B9FDA"/>
<stop offset="0.58" stop-color="#25457B"/>
<stop offset="0.88" stop-color="#061023"/>
<stop offset="1" stop-color="#000109"/>
</radialGradient>
<radialGradient id="paint23_radial_94_22389" cx="0" cy="0" r="1" gradientUnits="userSpaceOnUse" gradientTransform="translate(10.3619 20.6926) scale(1.76142 1.77022)">
<stop stop-color="#2B9FDA"/>
<stop offset="0.11" stop-color="#2B9FDA"/>
<stop offset="0.58" stop-color="#25457B"/>
<stop offset="0.88" stop-color="#061023"/>
<stop offset="1" stop-color="#000109"/>
</radialGradient>
<radialGradient id="paint24_radial_94_22389" cx="0" cy="0" r="1" gradientUnits="userSpaceOnUse" gradientTransform="translate(9.26189 17.1049) scale(1.58798 1.59592)">
<stop stop-color="#2B9FDA"/>
<stop offset="0.11" stop-color="#2B9FDA"/>
<stop offset="0.58" stop-color="#25457B"/>
<stop offset="0.88" stop-color="#061023"/>
<stop offset="1" stop-color="#000109"/>
</radialGradient>
<radialGradient id="paint25_radial_94_22389" cx="0" cy="0" r="1" gradientUnits="userSpaceOnUse" gradientTransform="translate(8.68782 13.6368) scale(1.43256 1.43972)">
<stop stop-color="#2B9FDA"/>
<stop offset="0.11" stop-color="#2B9FDA"/>
<stop offset="0.58" stop-color="#25457B"/>
<stop offset="0.88" stop-color="#061023"/>
<stop offset="1" stop-color="#000109"/>
</radialGradient>
<radialGradient id="paint26_radial_94_22389" cx="0" cy="0" r="1" gradientUnits="userSpaceOnUse" gradientTransform="translate(8.65828 10.3626) scale(1.29066 1.29711)">
<stop stop-color="#2B9FDA"/>
<stop offset="0.11" stop-color="#2B9FDA"/>
<stop offset="0.58" stop-color="#25457B"/>
<stop offset="0.88" stop-color="#061023"/>
<stop offset="1" stop-color="#000109"/>
</radialGradient>
<radialGradient id="paint27_radial_94_22389" cx="0" cy="0" r="1" gradientUnits="userSpaceOnUse" gradientTransform="translate(9.17658 7.38203) scale(0.970809 0.97566)">
<stop stop-color="#2B9FDA"/>
<stop offset="0.11" stop-color="#2B9FDA"/>
<stop offset="0.58" stop-color="#25457B"/>
<stop offset="0.88" stop-color="#061023"/>
<stop offset="1" stop-color="#000109"/>
</radialGradient>
<radialGradient id="paint28_radial_94_22389" cx="0" cy="0" r="1" gradientUnits="userSpaceOnUse" gradientTransform="translate(10.2402 4.71778) scale(0.729796 0.733443)">
<stop stop-color="#2B9FDA"/>
<stop offset="0.11" stop-color="#2B9FDA"/>
<stop offset="0.58" stop-color="#25457B"/>
<stop offset="0.88" stop-color="#061023"/>
<stop offset="1" stop-color="#000109"/>
</radialGradient>
<radialGradient id="paint29_radial_94_22389" cx="0" cy="0" r="1" gradientUnits="userSpaceOnUse" gradientTransform="translate(11.8256 2.43128) scale(0.547347 0.550082)">
<stop stop-color="#2B9FDA"/>
<stop offset="0.11" stop-color="#2B9FDA"/>
<stop offset="0.58" stop-color="#25457B"/>
<stop offset="0.88" stop-color="#061023"/>
<stop offset="1" stop-color="#000109"/>
</radialGradient>
<radialGradient id="paint30_radial_94_22389" cx="0" cy="0" r="1" gradientUnits="userSpaceOnUse" gradientTransform="translate(13.8956 0.556506) scale(0.520318 0.522917)">
<stop stop-color="#2B9FDA"/>
<stop offset="0.11" stop-color="#2B9FDA"/>
<stop offset="0.58" stop-color="#25457B"/>
<stop offset="0.88" stop-color="#061023"/>
<stop offset="1" stop-color="#000109"/>
</radialGradient>
<radialGradient id="paint31_radial_94_22389" cx="0" cy="0" r="1" gradientUnits="userSpaceOnUse" gradientTransform="translate(22.5809 37.9424) scale(2.27498 2.28635)">
<stop stop-color="#2B9FDA"/>
<stop offset="0.11" stop-color="#2B9FDA"/>
<stop offset="0.58" stop-color="#25457B"/>
<stop offset="0.88" stop-color="#061023"/>
<stop offset="1" stop-color="#000109"/>
</radialGradient>
<radialGradient id="paint32_radial_94_22389" cx="0" cy="0" r="1" gradientUnits="userSpaceOnUse" gradientTransform="translate(26.0073 40.7853) scale(2.1511 2.16184)">
<stop stop-color="#2B9FDA"/>
<stop offset="0.11" stop-color="#2B9FDA"/>
<stop offset="0.58" stop-color="#25457B"/>
<stop offset="0.88" stop-color="#061023"/>
<stop offset="1" stop-color="#000109"/>
</radialGradient>
<radialGradient id="paint33_radial_94_22389" cx="0" cy="0" r="1" gradientUnits="userSpaceOnUse" gradientTransform="translate(29.6154 43.2756) scale(1.93261 1.94226)">
<stop stop-color="#2B9FDA"/>
<stop offset="0.11" stop-color="#2B9FDA"/>
<stop offset="0.58" stop-color="#25457B"/>
<stop offset="0.88" stop-color="#061023"/>
<stop offset="1" stop-color="#000109"/>
</radialGradient>
<radialGradient id="paint34_radial_94_22389" cx="0" cy="0" r="1" gradientUnits="userSpaceOnUse" gradientTransform="translate(33.3347 45.3491) scale(1.7389 1.74759)">
<stop stop-color="#2B9FDA"/>
<stop offset="0.11" stop-color="#2B9FDA"/>
<stop offset="0.58" stop-color="#25457B"/>
<stop offset="0.88" stop-color="#061023"/>
<stop offset="1" stop-color="#000109"/>
</radialGradient>
<radialGradient id="paint35_radial_94_22389" cx="0" cy="0" r="1" gradientUnits="userSpaceOnUse" gradientTransform="translate(37.085 46.9648) scale(1.56546 1.57328)">
<stop stop-color="#2B9FDA"/>
<stop offset="0.11" stop-color="#2B9FDA"/>
<stop offset="0.58" stop-color="#25457B"/>
<stop offset="0.88" stop-color="#061023"/>
<stop offset="1" stop-color="#000109"/>
</radialGradient>
<radialGradient id="paint36_radial_94_22389" cx="0" cy="0" r="1" gradientUnits="userSpaceOnUse" gradientTransform="translate(40.8014 48.1013) scale(1.40779 1.41482)">
<stop stop-color="#2B9FDA"/>
<stop offset="0.11" stop-color="#2B9FDA"/>
<stop offset="0.58" stop-color="#25457B"/>
<stop offset="0.88" stop-color="#061023"/>
<stop offset="1" stop-color="#000109"/>
</radialGradient>
<radialGradient id="paint37_radial_94_22389" cx="0" cy="0" r="1" gradientUnits="userSpaceOnUse" gradientTransform="translate(44.4077 48.7278) scale(1.26588 1.27221)">
<stop stop-color="#2B9FDA"/>
<stop offset="0.11" stop-color="#2B9FDA"/>
<stop offset="0.58" stop-color="#25457B"/>
<stop offset="0.88" stop-color="#061023"/>
<stop offset="1" stop-color="#000109"/>
</radialGradient>
<radialGradient id="paint38_radial_94_22389" cx="0" cy="0" r="1" gradientUnits="userSpaceOnUse" gradientTransform="translate(47.8335 48.8685) scale(0.950537 0.955285)">
<stop stop-color="#2B9FDA"/>
<stop offset="0.11" stop-color="#2B9FDA"/>
<stop offset="0.58" stop-color="#25457B"/>
<stop offset="0.88" stop-color="#061023"/>
<stop offset="1" stop-color="#000109"/>
</radialGradient>
<radialGradient id="paint39_radial_94_22389" cx="0" cy="0" r="1" gradientUnits="userSpaceOnUse" gradientTransform="translate(51.0162 48.4751) scale(0.71403 0.717596)">
<stop stop-color="#2B9FDA"/>
<stop offset="0.11" stop-color="#2B9FDA"/>
<stop offset="0.58" stop-color="#25457B"/>
<stop offset="0.88" stop-color="#061023"/>
<stop offset="1" stop-color="#000109"/>
</radialGradient>
<radialGradient id="paint40_radial_94_22389" cx="0" cy="0" r="1" gradientUnits="userSpaceOnUse" gradientTransform="translate(53.8836 47.5603) scale(0.533832 0.5365)">
<stop stop-color="#2B9FDA"/>
<stop offset="0.11" stop-color="#2B9FDA"/>
<stop offset="0.58" stop-color="#25457B"/>
<stop offset="0.88" stop-color="#061023"/>
<stop offset="1" stop-color="#000109"/>
</radialGradient>
<radialGradient id="paint41_radial_94_22389" cx="0" cy="0" r="1" gradientUnits="userSpaceOnUse" gradientTransform="translate(56.3569 46.1678) scale(0.484277 0.486698)">
<stop stop-color="#2B9FDA"/>
<stop offset="0.11" stop-color="#2B9FDA"/>
<stop offset="0.58" stop-color="#25457B"/>
<stop offset="0.88" stop-color="#061023"/>
<stop offset="1" stop-color="#000109"/>
</radialGradient>
<radialGradient id="paint42_radial_94_22389" cx="0" cy="0" r="1" gradientUnits="userSpaceOnUse" gradientTransform="translate(19.405 34.8085) scale(2.35382 2.36558)">
<stop stop-color="#2B9FDA"/>
<stop offset="0.11" stop-color="#2B9FDA"/>
<stop offset="0.58" stop-color="#25457B"/>
<stop offset="0.88" stop-color="#061023"/>
<stop offset="1" stop-color="#000109"/>
</radialGradient>
<radialGradient id="paint43_radial_94_22389" cx="0" cy="0" r="1" gradientUnits="userSpaceOnUse" gradientTransform="translate(15.2246 12.106) scale(1.75016 1.7589)">
<stop stop-color="#2B9FDA"/>
<stop offset="0.11" stop-color="#2B9FDA"/>
<stop offset="0.58" stop-color="#25457B"/>
<stop offset="0.88" stop-color="#061023"/>
<stop offset="1" stop-color="#000109"/>
</radialGradient>
<radialGradient id="paint44_radial_94_22389" cx="0" cy="0" r="1" gradientUnits="userSpaceOnUse" gradientTransform="translate(15.8533 9.95077) scale(1.66006 1.66836)">
<stop stop-color="#2B9FDA"/>
<stop offset="0.11" stop-color="#2B9FDA"/>
<stop offset="0.58" stop-color="#25457B"/>
<stop offset="0.88" stop-color="#061023"/>
<stop offset="1" stop-color="#000109"/>
</radialGradient>
<radialGradient id="paint45_radial_94_22389" cx="0" cy="0" r="1" gradientUnits="userSpaceOnUse" gradientTransform="translate(16.8894 8.08607) scale(1.49789 1.50537)">
<stop stop-color="#2B9FDA"/>
<stop offset="0.11" stop-color="#2B9FDA"/>
<stop offset="0.58" stop-color="#25457B"/>
<stop offset="0.88" stop-color="#061023"/>
<stop offset="1" stop-color="#000109"/>
</radialGradient>
<radialGradient id="paint46_radial_94_22389" cx="0" cy="0" r="1" gradientUnits="userSpaceOnUse" gradientTransform="translate(18.3102 6.52858) scale(1.34922 1.35596)">
<stop stop-color="#2B9FDA"/>
<stop offset="0.11" stop-color="#2B9FDA"/>
<stop offset="0.58" stop-color="#25457B"/>
<stop offset="0.88" stop-color="#061023"/>
<stop offset="1" stop-color="#000109"/>
</radialGradient>
<radialGradient id="paint47_radial_94_22389" cx="0" cy="0" r="1" gradientUnits="userSpaceOnUse" gradientTransform="translate(20.0809 5.31445) scale(1.21407 1.22014)">
<stop stop-color="#2B9FDA"/>
<stop offset="0.11" stop-color="#2B9FDA"/>
<stop offset="0.58" stop-color="#25457B"/>
<stop offset="0.88" stop-color="#061023"/>
<stop offset="1" stop-color="#000109"/>
</radialGradient>
<radialGradient id="paint48_radial_94_22389" cx="0" cy="0" r="1" gradientUnits="userSpaceOnUse" gradientTransform="translate(22.1665 4.46162) scale(1.09469 1.10016)">
<stop stop-color="#2B9FDA"/>
<stop offset="0.11" stop-color="#2B9FDA"/>
<stop offset="0.58" stop-color="#25457B"/>
<stop offset="0.88" stop-color="#061023"/>
<stop offset="1" stop-color="#000109"/>
</radialGradient>
<radialGradient id="paint49_radial_94_22389" cx="0" cy="0" r="1" gradientUnits="userSpaceOnUse" gradientTransform="translate(24.5273 3.99511) scale(0.984324 0.989242)">
<stop stop-color="#2B9FDA"/>
<stop offset="0.11" stop-color="#2B9FDA"/>
<stop offset="0.58" stop-color="#25457B"/>
<stop offset="0.88" stop-color="#061023"/>
<stop offset="1" stop-color="#000109"/>
</radialGradient>
<radialGradient id="paint50_radial_94_22389" cx="0" cy="0" r="1" gradientUnits="userSpaceOnUse" gradientTransform="translate(27.1109 3.9456) scale(0.738806 0.742497)">
<stop stop-color="#2B9FDA"/>
<stop offset="0.11" stop-color="#2B9FDA"/>
<stop offset="0.58" stop-color="#25457B"/>
<stop offset="0.88" stop-color="#061023"/>
<stop offset="1" stop-color="#000109"/>
</radialGradient>
<radialGradient id="paint51_radial_94_22389" cx="0" cy="0" r="1" gradientUnits="userSpaceOnUse" gradientTransform="translate(29.8679 4.28474) scale(0.554107 0.556873)">
<stop stop-color="#2B9FDA"/>
<stop offset="0.11" stop-color="#2B9FDA"/>
<stop offset="0.58" stop-color="#25457B"/>
<stop offset="0.88" stop-color="#061023"/>
<stop offset="1" stop-color="#000109"/>
</radialGradient>
<radialGradient id="paint52_radial_94_22389" cx="0" cy="0" r="1" gradientUnits="userSpaceOnUse" gradientTransform="translate(32.7351 5.00922) scale(0.416704 0.418787)">
<stop stop-color="#2B9FDA"/>
<stop offset="0.11" stop-color="#2B9FDA"/>
<stop offset="0.58" stop-color="#25457B"/>
<stop offset="0.88" stop-color="#061023"/>
<stop offset="1" stop-color="#000109"/>
</radialGradient>
<radialGradient id="paint53_radial_94_22389" cx="0" cy="0" r="1" gradientUnits="userSpaceOnUse" gradientTransform="translate(15.1932 17.0591) scale(1.74565 1.75438)">
<stop stop-color="#2B9FDA"/>
<stop offset="0.11" stop-color="#2B9FDA"/>
<stop offset="0.58" stop-color="#25457B"/>
<stop offset="0.88" stop-color="#061023"/>
<stop offset="1" stop-color="#000109"/>
</radialGradient>
<radialGradient id="paint54_radial_94_22389" cx="0" cy="0" r="1" gradientUnits="userSpaceOnUse" gradientTransform="translate(15.7968 19.7733) scale(1.65105 1.6593)">
<stop stop-color="#2B9FDA"/>
<stop offset="0.11" stop-color="#2B9FDA"/>
<stop offset="0.58" stop-color="#25457B"/>
<stop offset="0.88" stop-color="#061023"/>
<stop offset="1" stop-color="#000109"/>
</radialGradient>
<radialGradient id="paint55_radial_94_22389" cx="0" cy="0" r="1" gradientUnits="userSpaceOnUse" gradientTransform="translate(16.7991 22.5675) scale(1.48437 1.49179)">
<stop stop-color="#2B9FDA"/>
<stop offset="0.11" stop-color="#2B9FDA"/>
<stop offset="0.58" stop-color="#25457B"/>
<stop offset="0.88" stop-color="#061023"/>
<stop offset="1" stop-color="#000109"/>
</radialGradient>
<radialGradient id="paint56_radial_94_22389" cx="0" cy="0" r="1" gradientUnits="userSpaceOnUse" gradientTransform="translate(18.1728 25.3692) scale(1.33345 1.34012)">
<stop stop-color="#2B9FDA"/>
<stop offset="0.11" stop-color="#2B9FDA"/>
<stop offset="0.58" stop-color="#25457B"/>
<stop offset="0.88" stop-color="#061023"/>
<stop offset="1" stop-color="#000109"/>
</radialGradient>
<radialGradient id="paint57_radial_94_22389" cx="0" cy="0" r="1" gradientUnits="userSpaceOnUse" gradientTransform="translate(19.8897 28.127) scale(1.19831 1.2043)">
<stop stop-color="#2B9FDA"/>
<stop offset="0.11" stop-color="#2B9FDA"/>
<stop offset="0.58" stop-color="#25457B"/>
<stop offset="0.88" stop-color="#061023"/>
<stop offset="1" stop-color="#000109"/>
</radialGradient>
<radialGradient id="paint58_radial_94_22389" cx="0" cy="0" r="1" gradientUnits="userSpaceOnUse" gradientTransform="translate(21.9123 30.7795) scale(1.07893 1.08432)">
<stop stop-color="#2B9FDA"/>
<stop offset="0.11" stop-color="#2B9FDA"/>
<stop offset="0.58" stop-color="#25457B"/>
<stop offset="0.88" stop-color="#061023"/>
<stop offset="1" stop-color="#000109"/>
</radialGradient>
<radialGradient id="paint59_radial_94_22389" cx="0" cy="0" r="1" gradientUnits="userSpaceOnUse" gradientTransform="translate(24.1984 33.279) scale(0.968556 0.973395)">
<stop stop-color="#2B9FDA"/>
<stop offset="0.11" stop-color="#2B9FDA"/>
<stop offset="0.58" stop-color="#25457B"/>
<stop offset="0.88" stop-color="#061023"/>
<stop offset="1" stop-color="#000109"/>
</radialGradient>
<radialGradient id="paint60_radial_94_22389" cx="0" cy="0" r="1" gradientUnits="userSpaceOnUse" gradientTransform="translate(26.7052 35.5925) scale(0.725292 0.728915)">
<stop stop-color="#2B9FDA"/>
<stop offset="0.11" stop-color="#2B9FDA"/>
<stop offset="0.58" stop-color="#25457B"/>
<stop offset="0.88" stop-color="#061023"/>
<stop offset="1" stop-color="#000109"/>
</radialGradient>
<radialGradient id="paint61_radial_94_22389" cx="0" cy="0" r="1" gradientUnits="userSpaceOnUse" gradientTransform="translate(29.3789 37.6453) scale(0.542841 0.545553)">
<stop stop-color="#2B9FDA"/>
<stop offset="0.11" stop-color="#2B9FDA"/>
<stop offset="0.58" stop-color="#25457B"/>
<stop offset="0.88" stop-color="#061023"/>
<stop offset="1" stop-color="#000109"/>
</radialGradient>
<radialGradient id="paint62_radial_94_22389" cx="0" cy="0" r="1" gradientUnits="userSpaceOnUse" gradientTransform="translate(32.1698 39.3996) scale(0.407697 0.409731)">
<stop stop-color="#2B9FDA"/>
<stop offset="0.11" stop-color="#2B9FDA"/>
<stop offset="0.58" stop-color="#25457B"/>
<stop offset="0.88" stop-color="#061023"/>
<stop offset="1" stop-color="#000109"/>
</radialGradient>
<radialGradient id="paint63_radial_94_22389" cx="0" cy="0" r="1" gradientUnits="userSpaceOnUse" gradientTransform="translate(35.6501 6.08503) scale(0.394182 0.39615)">
<stop stop-color="#2B9FDA"/>
<stop offset="0.11" stop-color="#2B9FDA"/>
<stop offset="0.58" stop-color="#25457B"/>
<stop offset="0.88" stop-color="#061023"/>
<stop offset="1" stop-color="#000109"/>
</radialGradient>
<radialGradient id="paint64_radial_94_22389" cx="0" cy="0" r="1" gradientUnits="userSpaceOnUse" gradientTransform="translate(35.0125 40.8073) scale(0.367152 0.368985)">
<stop stop-color="#2B9FDA"/>
<stop offset="0.11" stop-color="#2B9FDA"/>
<stop offset="0.58" stop-color="#25457B"/>
<stop offset="0.88" stop-color="#061023"/>
<stop offset="1" stop-color="#000109"/>
</radialGradient>
<radialGradient id="paint65_radial_94_22389" cx="0" cy="0" r="1" gradientUnits="userSpaceOnUse" gradientTransform="translate(15.004 14.4875) scale(1.80647 1.8155)">
<stop stop-color="#2B9FDA"/>
<stop offset="0.11" stop-color="#2B9FDA"/>
<stop offset="0.58" stop-color="#25457B"/>
<stop offset="0.88" stop-color="#061023"/>
<stop offset="1" stop-color="#000109"/>
</radialGradient>
<radialGradient id="paint66_radial_94_22389" cx="0" cy="0" r="1" gradientUnits="userSpaceOnUse" gradientTransform="translate(27.2075 8.5615) scale(1.33345 1.34012)">
<stop stop-color="#2B9FDA"/>
<stop offset="0.11" stop-color="#2B9FDA"/>
<stop offset="0.58" stop-color="#25457B"/>
<stop offset="0.88" stop-color="#061023"/>
<stop offset="1" stop-color="#000109"/>
</radialGradient>
<radialGradient id="paint67_radial_94_22389" cx="0" cy="0" r="1" gradientUnits="userSpaceOnUse" gradientTransform="translate(29.1745 8.52256) scale(1.26363 1.26994)">
<stop stop-color="#2B9FDA"/>
<stop offset="0.11" stop-color="#2B9FDA"/>
<stop offset="0.58" stop-color="#25457B"/>
<stop offset="0.88" stop-color="#061023"/>
<stop offset="1" stop-color="#000109"/>
</radialGradient>
<radialGradient id="paint68_radial_94_22389" cx="0" cy="0" r="1" gradientUnits="userSpaceOnUse" gradientTransform="translate(31.269 8.7995) scale(1.13749 1.14317)">
<stop stop-color="#2B9FDA"/>
<stop offset="0.11" stop-color="#2B9FDA"/>
<stop offset="0.58" stop-color="#25457B"/>
<stop offset="0.88" stop-color="#061023"/>
<stop offset="1" stop-color="#000109"/>
</radialGradient>
<radialGradient id="paint69_radial_94_22389" cx="0" cy="0" r="1" gradientUnits="userSpaceOnUse" gradientTransform="translate(33.4467 9.3688) scale(1.02262 1.02773)">
<stop stop-color="#2B9FDA"/>
<stop offset="0.11" stop-color="#2B9FDA"/>
<stop offset="0.58" stop-color="#25457B"/>
<stop offset="0.88" stop-color="#061023"/>
<stop offset="1" stop-color="#000109"/>
</radialGradient>
<radialGradient id="paint70_radial_94_22389" cx="0" cy="0" r="1" gradientUnits="userSpaceOnUse" gradientTransform="translate(35.6591 10.2224) scale(0.921254 0.925858)">
<stop stop-color="#2B9FDA"/>
<stop offset="0.11" stop-color="#2B9FDA"/>
<stop offset="0.58" stop-color="#25457B"/>
<stop offset="0.88" stop-color="#061023"/>
<stop offset="1" stop-color="#000109"/>
</radialGradient>
<radialGradient id="paint71_radial_94_22389" cx="0" cy="0" r="1" gradientUnits="userSpaceOnUse" gradientTransform="translate(37.8619 11.3362) scale(0.828904 0.833046)">
<stop stop-color="#2B9FDA"/>
<stop offset="0.11" stop-color="#2B9FDA"/>
<stop offset="0.58" stop-color="#25457B"/>
<stop offset="0.88" stop-color="#061023"/>
<stop offset="1" stop-color="#000109"/>
</radialGradient>
<radialGradient id="paint72_radial_94_22389" cx="0" cy="0" r="1" gradientUnits="userSpaceOnUse" gradientTransform="translate(40.0088 12.6941) scale(0.745562 0.749288)">
<stop stop-color="#2B9FDA"/>
<stop offset="0.11" stop-color="#2B9FDA"/>
<stop offset="0.58" stop-color="#25457B"/>
<stop offset="0.88" stop-color="#061023"/>
<stop offset="1" stop-color="#000109"/>
</radialGradient>
<radialGradient id="paint73_radial_94_22389" cx="0" cy="0" r="1" gradientUnits="userSpaceOnUse" gradientTransform="translate(23.8112 9.5466) scale(1.33345 1.34012)">
<stop stop-color="#2B9FDA"/>
<stop offset="0.11" stop-color="#2B9FDA"/>
<stop offset="0.58" stop-color="#25457B"/>
<stop offset="0.88" stop-color="#061023"/>
<stop offset="1" stop-color="#000109"/>
</radialGradient>
<radialGradient id="paint74_radial_94_22389" cx="0" cy="0" r="1" gradientUnits="userSpaceOnUse" gradientTransform="translate(22.4462 10.4745) scale(1.26138 1.26768)">
<stop stop-color="#2B9FDA"/>
<stop offset="0.11" stop-color="#2B9FDA"/>
<stop offset="0.58" stop-color="#25457B"/>
<stop offset="0.88" stop-color="#061023"/>
<stop offset="1" stop-color="#000109"/>
</radialGradient>
<radialGradient id="paint75_radial_94_22389" cx="0" cy="0" r="1" gradientUnits="userSpaceOnUse" gradientTransform="translate(21.3487 11.6762) scale(1.13524 1.14091)">
<stop stop-color="#2B9FDA"/>
<stop offset="0.11" stop-color="#2B9FDA"/>
<stop offset="0.58" stop-color="#25457B"/>
<stop offset="0.88" stop-color="#061023"/>
<stop offset="1" stop-color="#000109"/>
</radialGradient>
<radialGradient id="paint76_radial_94_22389" cx="0" cy="0" r="1" gradientUnits="userSpaceOnUse" gradientTransform="translate(20.5403 13.1159) scale(1.02036 1.02546)">
<stop stop-color="#2B9FDA"/>
<stop offset="0.11" stop-color="#2B9FDA"/>
<stop offset="0.58" stop-color="#25457B"/>
<stop offset="0.88" stop-color="#061023"/>
<stop offset="1" stop-color="#000109"/>
</radialGradient>
<radialGradient id="paint77_radial_94_22389" cx="0" cy="0" r="1" gradientUnits="userSpaceOnUse" gradientTransform="translate(20.0336 14.761) scale(0.91675 0.92133)">
<stop stop-color="#2B9FDA"/>
<stop offset="0.11" stop-color="#2B9FDA"/>
<stop offset="0.58" stop-color="#25457B"/>
<stop offset="0.88" stop-color="#061023"/>
<stop offset="1" stop-color="#000109"/>
</radialGradient>
<radialGradient id="paint78_radial_94_22389" cx="0" cy="0" r="1" gradientUnits="userSpaceOnUse" gradientTransform="translate(19.8374 16.5793) scale(0.824398 0.828519)">
<stop stop-color="#2B9FDA"/>
<stop offset="0.11" stop-color="#2B9FDA"/>
<stop offset="0.58" stop-color="#25457B"/>
<stop offset="0.88" stop-color="#061023"/>
<stop offset="1" stop-color="#000109"/>
</radialGradient>
<radialGradient id="paint79_radial_94_22389" cx="0" cy="0" r="1" gradientUnits="userSpaceOnUse" gradientTransform="translate(19.9549 18.5333) scale(0.741059 0.744761)">
<stop stop-color="#2B9FDA"/>
<stop offset="0.11" stop-color="#2B9FDA"/>
<stop offset="0.58" stop-color="#25457B"/>
<stop offset="0.88" stop-color="#061023"/>
<stop offset="1" stop-color="#000109"/>
</radialGradient>
<radialGradient id="paint80_radial_94_22389" cx="0" cy="0" r="1" gradientUnits="userSpaceOnUse" gradientTransform="translate(20.3848 20.6013) scale(0.556357 0.559137)">
<stop stop-color="#2B9FDA"/>
<stop offset="0.11" stop-color="#2B9FDA"/>
<stop offset="0.58" stop-color="#25457B"/>
<stop offset="0.88" stop-color="#061023"/>
<stop offset="1" stop-color="#000109"/>
</radialGradient>
<radialGradient id="paint81_radial_94_22389" cx="0" cy="0" r="1" gradientUnits="userSpaceOnUse" gradientTransform="translate(21.1169 22.7185) scale(0.416705 0.418787)">
<stop stop-color="#2B9FDA"/>
<stop offset="0.11" stop-color="#2B9FDA"/>
<stop offset="0.58" stop-color="#25457B"/>
<stop offset="0.88" stop-color="#061023"/>
<stop offset="1" stop-color="#000109"/>
</radialGradient>
<radialGradient id="paint82_radial_94_22389" cx="0" cy="0" r="1" gradientUnits="userSpaceOnUse" gradientTransform="translate(41.9859 14.2157) scale(0.567619 0.570455)">
<stop stop-color="#2B9FDA"/>
<stop offset="0.11" stop-color="#2B9FDA"/>
<stop offset="0.58" stop-color="#25457B"/>
<stop offset="0.88" stop-color="#061023"/>
<stop offset="1" stop-color="#000109"/>
</radialGradient>
<radialGradient id="paint83_radial_94_22389" cx="0" cy="0" r="1" gradientUnits="userSpaceOnUse" gradientTransform="translate(43.9096 15.9869) scale(0.405443 0.407469)">
<stop stop-color="#2B9FDA"/>
<stop offset="0.11" stop-color="#2B9FDA"/>
<stop offset="0.58" stop-color="#25457B"/>
<stop offset="0.88" stop-color="#061023"/>
<stop offset="1" stop-color="#000109"/>
</radialGradient>
<radialGradient id="paint84_radial_94_22389" cx="0" cy="0" r="1" gradientUnits="userSpaceOnUse" gradientTransform="translate(45.6035 17.879) scale(0.387423 0.389359)">
<stop stop-color="#2B9FDA"/>
<stop offset="0.11" stop-color="#2B9FDA"/>
<stop offset="0.58" stop-color="#25457B"/>
<stop offset="0.88" stop-color="#061023"/>
<stop offset="1" stop-color="#000109"/>
</radialGradient>
<radialGradient id="paint85_radial_94_22389" cx="0" cy="0" r="1" gradientUnits="userSpaceOnUse" gradientTransform="translate(23.4008 26.9178) scale(0.364898 0.366721)">
<stop stop-color="#2B9FDA"/>
<stop offset="0.11" stop-color="#2B9FDA"/>
<stop offset="0.58" stop-color="#25457B"/>
<stop offset="0.88" stop-color="#061023"/>
<stop offset="1" stop-color="#000109"/>
</radialGradient>
<radialGradient id="paint86_radial_94_22389" cx="0" cy="0" r="1" gradientUnits="userSpaceOnUse" gradientTransform="translate(22.1171 24.8302) scale(0.382917 0.384831)">
<stop stop-color="#2B9FDA"/>
<stop offset="0.11" stop-color="#2B9FDA"/>
<stop offset="0.58" stop-color="#25457B"/>
<stop offset="0.88" stop-color="#061023"/>
<stop offset="1" stop-color="#000109"/>
</radialGradient>
<radialGradient id="paint87_radial_94_22389" cx="0" cy="0" r="1" gradientUnits="userSpaceOnUse" gradientTransform="translate(25.4057 8.9007) scale(1.3785 1.38539)">
<stop stop-color="#2B9FDA"/>
<stop offset="0.11" stop-color="#2B9FDA"/>
<stop offset="0.58" stop-color="#25457B"/>
<stop offset="0.88" stop-color="#061023"/>
<stop offset="1" stop-color="#000109"/>
</radialGradient>
<radialGradient id="paint88_radial_94_22389" cx="0" cy="0" r="1" gradientUnits="userSpaceOnUse" gradientTransform="translate(39.8281 54.974) scale(2.8854 2.89981)">
<stop stop-color="#2B9FDA"/>
<stop offset="0.11" stop-color="#2B9FDA"/>
<stop offset="0.58" stop-color="#25457B"/>
<stop offset="0.88" stop-color="#061023"/>
<stop offset="1" stop-color="#000109"/>
</radialGradient>
<radialGradient id="paint89_radial_94_22389" cx="0" cy="0" r="1" gradientUnits="userSpaceOnUse" gradientTransform="translate(34.5349 0.92416) scale(60.8659 61.17)">
<stop stop-color="#BBBCC1"/>
<stop offset="0.33" stop-color="#A3A5AB"/>
<stop offset="0.57" stop-color="#8A8C91"/>
<stop offset="0.83" stop-color="#7B7A80"/>
<stop offset="1" stop-color="#626164"/>
</radialGradient>
<clipPath id="clip0_94_22389">
<rect width="95.8781" height="58.44" fill="white" transform="translate(0.0610352 0.328125)"/>
</clipPath>
</defs>
</svg>
