<svg width="116" height="76" viewBox="0 0 116 76" fill="none" xmlns="http://www.w3.org/2000/svg">
<g clip-path="url(#clip0_5_9987)">
<path fill-rule="evenodd" clip-rule="evenodd" d="M45.6469 71.4575C46.9124 71.8432 47.8 71.1955 47.6301 70.0091C47.4631 68.8227 46.2972 67.548 45.0318 67.1594C43.7634 66.7708 42.8758 67.4185 43.0457 68.6078C43.2186 69.7942 44.3815 71.0689 45.6469 71.4575Z" fill="url(#paint0_radial_5_9987)"/>
<path fill-rule="evenodd" clip-rule="evenodd" d="M39.261 68.2428C40.4855 68.6137 41.3408 67.9867 41.1768 66.8385C41.0098 65.6904 39.882 64.454 38.6547 64.0801C37.4273 63.7033 36.5719 64.3333 36.7418 65.4814C36.9117 66.6295 38.0395 67.866 39.2639 68.2399L39.261 68.2428Z" fill="url(#paint1_radial_5_9987)"/>
<path fill-rule="evenodd" clip-rule="evenodd" d="M32.9866 64.1684C34.1114 64.5129 34.8964 63.9359 34.7383 62.8819C34.583 61.8251 33.5402 60.6917 32.4124 60.3443C31.2876 59.9999 30.4996 60.5769 30.6578 61.6337C30.816 62.6906 31.8558 63.824 32.9836 64.1684H32.9866Z" fill="url(#paint2_radial_5_9987)"/>
<path fill-rule="evenodd" clip-rule="evenodd" d="M26.9581 59.4111C27.9746 59.7202 28.6776 59.202 28.5341 58.2512C28.3876 57.3003 27.4503 56.2758 26.4338 55.9667C25.4173 55.6576 24.7114 56.1757 24.8579 57.1295C25.0043 58.0775 25.9417 59.102 26.9581 59.4111Z" fill="url(#paint3_radial_5_9987)"/>
<path fill-rule="evenodd" clip-rule="evenodd" d="M21.2958 54.1062C22.2098 54.3858 22.8454 53.9177 22.7136 53.0611C22.5818 52.2073 21.7323 51.2829 20.8184 51.0033C19.9015 50.7236 19.2658 51.1917 19.4006 52.0484C19.5324 52.908 20.3848 53.8294 21.2958 54.1062Z" fill="url(#paint4_radial_5_9987)"/>
<path fill-rule="evenodd" clip-rule="evenodd" d="M16.1109 48.3567C16.937 48.6099 17.5053 48.1889 17.3852 47.4176C17.268 46.6463 16.5005 45.8161 15.6745 45.5659C14.8484 45.3127 14.2772 45.7337 14.3973 46.505C14.5174 47.2763 15.2878 48.1065 16.1109 48.3567Z" fill="url(#paint5_radial_5_9987)"/>
<path fill-rule="evenodd" clip-rule="evenodd" d="M11.5092 42.2687C12.2532 42.4954 12.7658 42.1186 12.6574 41.4238C12.5491 40.729 11.8548 39.9813 11.1108 39.7546C10.3667 39.5279 9.85119 39.9048 9.9625 40.5995C10.0738 41.2972 10.7651 42.042 11.5092 42.2687Z" fill="url(#paint6_radial_5_9987)"/>
<path fill-rule="evenodd" clip-rule="evenodd" d="M7.56049 35.7744C8.11705 35.9451 8.50371 35.6625 8.42169 35.1414C8.33967 34.6204 7.81826 34.0581 7.25584 33.8903C6.69342 33.7195 6.30676 34.0022 6.39171 34.5232C6.47666 35.0443 6.99514 35.6066 7.55756 35.7744H7.56049Z" fill="url(#paint7_radial_5_9987)"/>
<path fill-rule="evenodd" clip-rule="evenodd" d="M4.38225 29.2536C4.80407 29.3832 5.09407 29.1683 5.03255 28.7797C4.96811 28.3881 4.57851 27.9672 4.1567 27.8376C3.73488 27.7081 3.44488 27.923 3.50933 28.3116C3.57084 28.7031 3.96337 29.1241 4.38518 29.2536H4.38225Z" fill="url(#paint8_radial_5_9987)"/>
<path fill-rule="evenodd" clip-rule="evenodd" d="M2.05627 22.8212C2.37263 22.9183 2.59232 22.7594 2.54546 22.465C2.49859 22.1706 2.20273 21.8556 1.88637 21.7584C1.57001 21.6613 1.35031 21.8203 1.40011 22.1147C1.44991 22.409 1.74284 22.724 2.0592 22.8212H2.05627Z" fill="url(#paint9_radial_5_9987)"/>
<path fill-rule="evenodd" clip-rule="evenodd" d="M0.635585 16.7096C0.9373 16.8009 1.14528 16.6508 1.10134 16.3711C1.0574 16.0914 0.77619 15.7911 0.474474 15.6999C0.172759 15.6057 -0.0381486 15.7587 0.00871975 16.0384C0.0555881 16.3181 0.336799 16.6184 0.638514 16.7096H0.635585Z" fill="url(#paint10_radial_5_9987)"/>
<path fill-rule="evenodd" clip-rule="evenodd" d="M58.2691 75.3376C56.9919 74.9461 55.8232 73.6596 55.6562 72.4614C55.4951 71.2662 56.3973 70.6127 57.6774 71.0042C58.9575 71.3987 60.1263 72.6852 60.2903 73.8804C60.4514 75.0756 59.5463 75.7292 58.2691 75.3376Z" fill="url(#paint11_radial_5_9987)"/>
<path fill-rule="evenodd" clip-rule="evenodd" d="M64.28 75.8911C63.0556 75.5143 61.9395 74.2837 61.7872 73.1385C61.632 71.9934 62.502 71.3692 63.7293 71.7461C64.9567 72.1199 66.0728 73.3534 66.2251 74.4957C66.3774 75.6409 65.5074 76.265 64.283 75.8881L64.28 75.8911Z" fill="url(#paint12_radial_5_9987)"/>
<path fill-rule="evenodd" clip-rule="evenodd" d="M69.9276 75.4642C68.8028 75.1198 67.7776 73.9893 67.6399 72.9413C67.5022 71.8903 68.3048 71.3192 69.4326 71.6637C70.5604 72.0081 71.5827 73.1386 71.7204 74.1895C71.858 75.2376 71.0525 75.8087 69.9306 75.4642H69.9276Z" fill="url(#paint13_radial_5_9987)"/>
<path fill-rule="evenodd" clip-rule="evenodd" d="M75.1037 74.1336C74.0902 73.8245 73.1674 72.8088 73.0473 71.8638C72.9272 70.9188 73.6508 70.4066 74.6672 70.7157C75.6837 71.0278 76.6035 72.0434 76.7236 72.9884C76.8437 73.9304 76.1172 74.4456 75.1037 74.1336Z" fill="url(#paint14_radial_5_9987)"/>
<path fill-rule="evenodd" clip-rule="evenodd" d="M79.7201 71.9727C78.8062 71.693 77.9772 70.7804 77.8688 69.9296C77.7634 69.0818 78.4166 68.6196 79.3335 68.8993C80.2503 69.1819 81.0793 70.0974 81.1848 70.9423C81.2902 71.7931 80.6341 72.2524 79.7231 71.9727H79.7201Z" fill="url(#paint15_radial_5_9987)"/>
<path fill-rule="evenodd" clip-rule="evenodd" d="M83.6864 69.02C82.8633 68.7668 82.1163 67.9454 82.0197 67.183C81.9259 66.4176 82.5176 66.0054 83.3437 66.2586C84.1697 66.5118 84.9167 67.3331 85.0075 68.0985C85.1013 68.861 84.5066 69.2761 83.6835 69.0229L83.6864 69.02Z" fill="url(#paint16_radial_5_9987)"/>
<path fill-rule="evenodd" clip-rule="evenodd" d="M89.586 60.4414C89.9814 60.4532 90.166 60.1294 89.999 59.7143C89.8291 59.2992 89.3721 58.9518 88.9767 58.9401C88.5783 58.9253 88.3938 59.2521 88.5637 59.6701C88.7306 60.0852 89.1876 60.4326 89.5889 60.4444L89.586 60.4414Z" fill="url(#paint17_radial_5_9987)"/>
<path fill-rule="evenodd" clip-rule="evenodd" d="M87.1019 65.0869C87.7053 65.19 88.0627 64.7984 87.9045 64.2067C87.7493 63.615 87.1312 63.0527 86.5307 62.9467C85.9273 62.8407 85.5699 63.2352 85.731 63.8269C85.8892 64.4187 86.5043 64.981 87.1019 65.084V65.0869Z" fill="url(#paint18_radial_5_9987)"/>
<path fill-rule="evenodd" clip-rule="evenodd" d="M90.8193 55.5221C91.118 55.6134 91.3377 55.4662 91.3026 55.1895C91.2704 54.9127 91.0009 54.6154 90.7021 54.5241C90.4033 54.4329 90.1865 54.5801 90.2188 54.8568C90.2539 55.1306 90.5205 55.4279 90.8222 55.5192L90.8193 55.5221Z" fill="url(#paint19_radial_5_9987)"/>
<path fill-rule="evenodd" clip-rule="evenodd" d="M20.3321 41.7711C21.1552 42.6514 22.3123 42.9987 22.9187 42.5454C23.5279 42.0891 23.3551 41.0087 22.532 40.1284C21.7089 39.2482 20.5489 38.9008 19.9396 39.3571C19.3332 39.8105 19.509 40.8909 20.3321 41.7711Z" fill="url(#paint20_radial_5_9987)"/>
<path fill-rule="evenodd" clip-rule="evenodd" d="M17.1333 37.1256C17.9154 37.9588 19.0139 38.2885 19.591 37.8587C20.1651 37.4289 20.0011 36.4044 19.2189 35.5683C18.4368 34.7352 17.3384 34.4055 16.7613 34.8353C16.1871 35.2651 16.3541 36.2896 17.1333 37.1256Z" fill="url(#paint21_radial_5_9987)"/>
<path fill-rule="evenodd" clip-rule="evenodd" d="M14.5409 32.3094C15.2469 33.063 16.237 33.3574 16.7584 32.9718C17.2768 32.5832 17.1245 31.6617 16.4215 30.911C15.7155 30.1574 14.7225 29.863 14.207 30.2487C13.6856 30.6373 13.8379 31.5587 14.5438 32.3094H14.5409Z" fill="url(#paint22_radial_5_9987)"/>
<path fill-rule="evenodd" clip-rule="evenodd" d="M12.549 27.4726C13.1847 28.1497 14.0781 28.4176 14.5468 28.0702C15.0155 27.7228 14.8778 26.8926 14.2421 26.2155C13.6065 25.5384 12.7101 25.2705 12.2444 25.6179C11.7757 25.9653 11.9134 26.7955 12.549 27.4726Z" fill="url(#paint23_radial_5_9987)"/>
<path fill-rule="evenodd" clip-rule="evenodd" d="M11.2015 22.7064C11.7757 23.3158 12.5842 23.5572 13.003 23.2422C13.4278 22.9272 13.3018 22.1824 12.7306 21.573C12.1594 20.9607 11.348 20.7222 10.9262 21.0343C10.5044 21.3463 10.6274 22.0941 11.2015 22.7064Z" fill="url(#paint24_radial_5_9987)"/>
<path fill-rule="evenodd" clip-rule="evenodd" d="M10.5307 18.108C11.0463 18.6556 11.7757 18.8764 12.1535 18.5938C12.5344 18.3141 12.423 17.6399 11.9075 17.0894C11.389 16.5419 10.6596 16.3211 10.2788 16.6037C9.898 16.8834 10.0122 17.5575 10.5278 18.108H10.5307Z" fill="url(#paint25_radial_5_9987)"/>
<path fill-rule="evenodd" clip-rule="evenodd" d="M10.5571 13.7716C11.0228 14.2662 11.679 14.4634 12.0246 14.2073C12.3674 13.9541 12.2678 13.3477 11.802 12.856C11.3333 12.3615 10.6801 12.1642 10.3344 12.4174C9.99172 12.6706 10.0913 13.277 10.5571 13.7716Z" fill="url(#paint26_radial_5_9987)"/>
<path fill-rule="evenodd" clip-rule="evenodd" d="M11.3891 9.71201C11.7377 10.0829 12.2298 10.2301 12.4876 10.0417C12.7483 9.85332 12.6721 9.39701 12.3206 9.02902C11.972 8.65514 11.4799 8.51089 11.2192 8.6993C10.9614 8.88771 11.0376 9.34402 11.3891 9.71201Z" fill="url(#paint27_radial_5_9987)"/>
<path fill-rule="evenodd" clip-rule="evenodd" d="M12.883 6.11154C13.1466 6.39121 13.5157 6.50014 13.712 6.35883C13.9082 6.21752 13.8526 5.87603 13.5889 5.59636C13.3253 5.31963 12.9562 5.20776 12.76 5.34907C12.5666 5.49038 12.6193 5.83187 12.883 6.1086V6.11154Z" fill="url(#paint28_radial_5_9987)"/>
<path fill-rule="evenodd" clip-rule="evenodd" d="M15.0359 3.03516C15.2321 3.24417 15.5104 3.3266 15.6569 3.22062C15.8033 3.11464 15.7653 2.85852 15.5661 2.6495C15.3698 2.44049 15.0915 2.35806 14.9421 2.46404C14.7957 2.57002 14.8367 2.82614 15.0359 3.03516Z" fill="url(#paint29_radial_5_9987)"/>
<path fill-rule="evenodd" clip-rule="evenodd" d="M17.7397 0.585814C17.9272 0.783056 18.1908 0.862541 18.3314 0.762448C18.472 0.662355 18.431 0.418011 18.2464 0.220769C18.059 0.0205828 17.7924 -0.0559589 17.6518 0.0441341C17.5112 0.144227 17.5522 0.388572 17.7397 0.585814Z" fill="url(#paint30_radial_5_9987)"/>
<path fill-rule="evenodd" clip-rule="evenodd" d="M28.1855 50.2025C27.3653 49.3223 27.1954 48.2418 27.8017 47.7885C28.411 47.3351 29.5651 47.6796 30.3853 48.5627C31.2055 49.44 31.3725 50.5204 30.7632 50.9738C30.1569 51.4272 29.0027 51.0827 28.1855 50.2025Z" fill="url(#paint31_radial_5_9987)"/>
<path fill-rule="evenodd" clip-rule="evenodd" d="M32.6996 53.8324C31.9292 52.9992 31.7681 51.9777 32.3422 51.5479C32.9193 51.1181 34.0119 51.4449 34.7881 52.278C35.5585 53.1082 35.7167 54.1326 35.1397 54.5625C34.5626 54.9923 33.47 54.6655 32.6996 53.8324Z" fill="url(#paint32_radial_5_9987)"/>
<path fill-rule="evenodd" clip-rule="evenodd" d="M37.4947 56.9499C36.8005 56.1992 36.6599 55.2807 37.1813 54.8921C37.6998 54.5065 38.684 54.8009 39.3782 55.5486C40.0725 56.2964 40.2131 57.2149 39.6946 57.6035C39.1761 57.9891 38.1919 57.6947 37.4977 56.947L37.4947 56.9499Z" fill="url(#paint33_radial_5_9987)"/>
<path fill-rule="evenodd" clip-rule="evenodd" d="M42.4218 59.5347C41.8008 58.8606 41.6719 58.0333 42.1435 57.6859C42.6122 57.3386 43.4968 57.6035 44.1178 58.2777C44.7388 58.9489 44.8648 59.7761 44.3961 60.1264C43.9274 60.4738 43.0428 60.2089 42.4218 59.5347Z" fill="url(#paint34_radial_5_9987)"/>
<path fill-rule="evenodd" clip-rule="evenodd" d="M47.384 61.5366C46.8245 60.9302 46.7132 60.1883 47.135 59.8733C47.5568 59.5612 48.3536 59.7997 48.9131 60.4061C49.4725 61.0096 49.5839 61.7574 49.1591 62.0694C48.7373 62.3786 47.9435 62.143 47.384 61.5366Z" fill="url(#paint35_radial_5_9987)"/>
<path fill-rule="evenodd" clip-rule="evenodd" d="M52.2905 62.9231C51.7896 62.3785 51.69 61.7102 52.0708 61.4276C52.4516 61.148 53.1693 61.3599 53.6702 61.9075C54.1711 62.4521 54.2678 63.1204 53.887 63.4C53.5062 63.6797 52.7885 63.4648 52.2876 62.9202L52.2905 62.9231Z" fill="url(#paint36_radial_5_9987)"/>
<path fill-rule="evenodd" clip-rule="evenodd" d="M57.0477 63.6591C56.5965 63.1704 56.5087 62.5669 56.8543 62.3167C57.2 62.0635 57.8444 62.2578 58.2955 62.7465C58.7466 63.2381 58.8345 63.8387 58.4889 64.0919C58.1461 64.345 57.5017 64.1537 57.0506 63.6621L57.0477 63.6591Z" fill="url(#paint37_radial_5_9987)"/>
<path fill-rule="evenodd" clip-rule="evenodd" d="M61.6582 63.6591C61.3214 63.2911 61.2569 62.8407 61.5147 62.6523C61.7725 62.4609 62.2558 62.6081 62.5956 62.9761C62.9325 63.3441 62.9969 63.7945 62.7362 63.9829C62.4784 64.1713 61.9922 64.0271 61.6553 63.6591H61.6582Z" fill="url(#paint38_radial_5_9987)"/>
<path fill-rule="evenodd" clip-rule="evenodd" d="M65.9116 63.0173C65.6568 62.7406 65.6099 62.405 65.8062 62.2637C66.0024 62.1224 66.3627 62.2313 66.6176 62.508C66.8695 62.7848 66.9193 63.1204 66.723 63.2646C66.5297 63.4059 66.1665 63.297 65.9146 63.0203L65.9116 63.0173Z" fill="url(#paint39_radial_5_9987)"/>
<path fill-rule="evenodd" clip-rule="evenodd" d="M69.7284 61.7279C69.538 61.5189 69.5029 61.2686 69.6494 61.1627C69.7958 61.0567 70.0682 61.1391 70.2586 61.3452C70.449 61.5513 70.4842 61.8074 70.3377 61.9104C70.1913 62.0164 69.9188 61.934 69.7284 61.7279Z" fill="url(#paint40_radial_5_9987)"/>
<path fill-rule="evenodd" clip-rule="evenodd" d="M72.9712 59.885C73.1411 60.0705 73.3871 60.1441 73.5189 60.0499C73.6537 59.9527 73.6215 59.7261 73.4516 59.5376C73.2787 59.3492 73.0327 59.2786 72.8979 59.3728C72.7661 59.467 72.7954 59.6966 72.9682 59.885H72.9712Z" fill="url(#paint41_radial_5_9987)"/>
<path fill-rule="evenodd" clip-rule="evenodd" d="M24.02 46.1752C24.8695 47.0849 26.0617 47.4411 26.6886 46.973C27.3155 46.502 27.1397 45.3863 26.2931 44.4766C25.4437 43.5669 24.2485 43.2107 23.6216 43.6788C22.9948 44.1469 23.1735 45.2656 24.023 46.1752H24.02Z" fill="url(#paint42_radial_5_9987)"/>
<path fill-rule="evenodd" clip-rule="evenodd" d="M18.2992 15.061C18.2933 15.7323 18.929 16.5536 19.714 16.8922C20.4991 17.2307 21.1377 16.9569 21.1435 16.2828C21.1464 15.6116 20.5137 14.7902 19.7257 14.4546C18.9407 14.119 18.2992 14.3898 18.2963 15.064L18.2992 15.061Z" fill="url(#paint43_radial_5_9987)"/>
<path fill-rule="evenodd" clip-rule="evenodd" d="M19.1868 12.2702C19.1838 12.909 19.7844 13.6862 20.5284 14.0071C21.2724 14.328 21.8817 14.066 21.8846 13.433C21.8905 12.7972 21.2871 12.02 20.543 11.6991C19.799 11.3811 19.1897 11.6373 19.1868 12.2731V12.2702Z" fill="url(#paint44_radial_5_9987)"/>
<path fill-rule="evenodd" clip-rule="evenodd" d="M20.669 9.86799C20.666 10.4421 21.2079 11.1398 21.8787 11.4283C22.5496 11.7168 23.0973 11.4871 23.1032 10.9131C23.109 10.339 22.5671 9.64131 21.8934 9.35281C21.2226 9.0643 20.6748 9.29687 20.669 9.86799Z" fill="url(#paint45_radial_5_9987)"/>
<path fill-rule="evenodd" clip-rule="evenodd" d="M22.6374 7.86615C22.6315 8.38134 23.1178 9.01134 23.7241 9.2704C24.3305 9.52946 24.8256 9.32339 24.8285 8.80821C24.8343 8.29008 24.3451 7.66302 23.7417 7.40396C23.1354 7.14195 22.6403 7.35097 22.6374 7.8691V7.86615Z" fill="url(#paint46_radial_5_9987)"/>
<path fill-rule="evenodd" clip-rule="evenodd" d="M25.0483 6.30583C25.0424 6.77097 25.4818 7.3362 26.0267 7.56877C26.5744 7.80134 27.0167 7.61587 27.0226 7.15073C27.0285 6.68559 26.5891 6.12331 26.0442 5.88779C25.4994 5.65228 25.0541 5.83775 25.0483 6.30289V6.30583Z" fill="url(#paint47_radial_5_9987)"/>
<path fill-rule="evenodd" clip-rule="evenodd" d="M27.8574 5.21664C27.8545 5.63467 28.247 6.14397 28.7362 6.35298C29.2283 6.562 29.6296 6.39714 29.6355 5.97911C29.6414 5.56107 29.2459 5.05178 28.7538 4.83981C28.2646 4.6308 27.8604 4.7986 27.8545 5.21369L27.8574 5.21664Z" fill="url(#paint48_radial_5_9987)"/>
<path fill-rule="evenodd" clip-rule="evenodd" d="M31.0181 4.62491C31.0122 5.00173 31.3666 5.45804 31.809 5.64939C32.2484 5.8378 32.6145 5.68766 32.6175 5.31378C32.6233 4.93991 32.2689 4.48066 31.8265 4.29225C31.3842 4.10089 31.021 4.25103 31.0151 4.62785L31.0181 4.62491Z" fill="url(#paint49_radial_5_9987)"/>
<path fill-rule="evenodd" clip-rule="evenodd" d="M34.5801 4.59547C34.5742 4.87808 34.8408 5.21958 35.1718 5.36383C35.5057 5.50514 35.7781 5.39327 35.7811 5.11065C35.7869 4.82804 35.5233 4.48654 35.1893 4.34229C34.8583 4.19804 34.5859 4.31285 34.583 4.59253L34.5801 4.59547Z" fill="url(#paint50_radial_5_9987)"/>
<path fill-rule="evenodd" clip-rule="evenodd" d="M38.312 5.06351C38.312 5.27252 38.5083 5.53159 38.7573 5.63757C39.0063 5.74649 39.2113 5.66112 39.2172 5.44916C39.2172 5.2372 39.0209 4.98108 38.7719 4.87509C38.5229 4.76911 38.3179 4.85154 38.3149 5.06351H38.312Z" fill="url(#paint51_radial_5_9987)"/>
<path fill-rule="evenodd" clip-rule="evenodd" d="M42.1552 6.02617C42.1552 6.18515 42.3016 6.3765 42.4862 6.45893C42.6736 6.53841 42.8289 6.47365 42.8318 6.31762C42.8318 6.16159 42.6883 5.9673 42.5008 5.88781C42.3163 5.80832 42.161 5.87309 42.1581 6.02912L42.1552 6.02617Z" fill="url(#paint52_radial_5_9987)"/>
<path fill-rule="evenodd" clip-rule="evenodd" d="M18.2611 21.5053C18.2611 20.8311 18.9026 20.5603 19.6847 20.8959C20.4698 21.2344 21.0996 22.0528 21.0967 22.724C21.0967 23.3982 20.4551 23.669 19.673 23.3334C18.888 22.9978 18.2582 22.1765 18.2611 21.5053Z" fill="url(#paint53_radial_5_9987)"/>
<path fill-rule="evenodd" clip-rule="evenodd" d="M19.1223 25.0468C19.1253 24.4079 19.7287 24.1489 20.4698 24.4698C21.2109 24.7877 21.8114 25.5649 21.8055 26.2037C21.8026 26.8396 21.1963 27.0987 20.4581 26.7778C19.717 26.4598 19.1194 25.6856 19.1223 25.0468Z" fill="url(#paint54_radial_5_9987)"/>
<path fill-rule="evenodd" clip-rule="evenodd" d="M20.5606 28.7031C20.5635 28.1291 21.1054 27.8965 21.7733 28.185C22.4382 28.4735 22.9772 29.1712 22.9714 29.7423C22.9684 30.3164 22.4265 30.549 21.7616 30.2605C21.0966 29.9749 20.5576 29.2772 20.5606 28.7031Z" fill="url(#paint55_radial_5_9987)"/>
<path fill-rule="evenodd" clip-rule="evenodd" d="M22.4705 32.3712C22.4705 31.8531 22.9597 31.6441 23.5572 31.9032C24.1548 32.1622 24.6381 32.7893 24.6352 33.3045C24.6352 33.8196 24.146 34.0316 23.5484 33.7725C22.9509 33.5164 22.4675 32.8864 22.4705 32.3712Z" fill="url(#paint56_radial_5_9987)"/>
<path fill-rule="evenodd" clip-rule="evenodd" d="M24.8138 35.9746C24.8138 35.5095 25.2532 35.3211 25.7922 35.5536C26.3312 35.7832 26.7647 36.3485 26.7589 36.8136C26.756 37.2788 26.3166 37.4672 25.7805 37.2346C25.2444 37.002 24.8109 36.4397 24.8109 35.9746H24.8138Z" fill="url(#paint57_radial_5_9987)"/>
<path fill-rule="evenodd" clip-rule="evenodd" d="M27.541 39.4455C27.544 39.0274 27.9394 38.8567 28.4198 39.0657C28.9031 39.2718 29.2927 39.7811 29.2898 40.1991C29.2869 40.6171 28.8914 40.7879 28.4081 40.5789C27.9248 40.3699 27.5381 39.8635 27.541 39.4455Z" fill="url(#paint58_radial_5_9987)"/>
<path fill-rule="evenodd" clip-rule="evenodd" d="M30.605 42.7103C30.605 42.3335 30.9624 42.1804 31.3959 42.3688C31.8294 42.5542 32.1809 43.0106 32.178 43.3874C32.178 43.7642 31.8206 43.9173 31.3871 43.7289C30.9536 43.5405 30.6021 43.0841 30.605 42.7073V42.7103Z" fill="url(#paint59_radial_5_9987)"/>
<path fill-rule="evenodd" clip-rule="evenodd" d="M34.0615 45.7543C34.0615 45.4717 34.3281 45.3568 34.6562 45.4982C34.9813 45.6395 35.242 45.981 35.2391 46.2636C35.2362 46.5432 34.9696 46.6581 34.6445 46.5197C34.3193 46.3784 34.0586 46.0369 34.0615 45.7543Z" fill="url(#paint60_radial_5_9987)"/>
<path fill-rule="evenodd" clip-rule="evenodd" d="M37.688 48.4538C37.688 48.2419 37.8901 48.1565 38.1333 48.2625C38.3793 48.3685 38.5727 48.6246 38.5697 48.8365C38.5697 49.0485 38.3676 49.1339 38.1245 49.0279C37.8784 48.9249 37.6851 48.6658 37.688 48.4568V48.4538Z" fill="url(#paint61_radial_5_9987)"/>
<path fill-rule="evenodd" clip-rule="evenodd" d="M41.4287 50.7501C41.4287 50.5911 41.5781 50.5293 41.7627 50.6087C41.9443 50.6853 42.0907 50.8796 42.0907 51.0386C42.0907 51.1946 41.9413 51.2623 41.7568 51.1828C41.5752 51.1033 41.4287 50.912 41.4316 50.753L41.4287 50.7501Z" fill="url(#paint62_radial_5_9987)"/>
<path fill-rule="evenodd" clip-rule="evenodd" d="M45.9633 7.42747C45.9574 7.57761 46.1009 7.76308 46.2767 7.83667C46.4524 7.91322 46.5989 7.85139 46.6048 7.7042C46.6077 7.55406 46.4671 7.37154 46.2884 7.29499C46.1097 7.21845 45.9633 7.27733 45.9603 7.42747H45.9633Z" fill="url(#paint63_radial_5_9987)"/>
<path fill-rule="evenodd" clip-rule="evenodd" d="M45.1548 52.5901C45.1548 52.7314 45.2837 52.908 45.4477 52.9757C45.6147 53.0464 45.7494 52.9904 45.7524 52.8462C45.7524 52.7019 45.6235 52.5312 45.4565 52.4605C45.2925 52.3899 45.1548 52.4458 45.1548 52.5901Z" fill="url(#paint64_radial_5_9987)"/>
<path fill-rule="evenodd" clip-rule="evenodd" d="M17.9652 18.1462C17.9623 18.8439 18.6155 19.6888 19.4269 20.0362C20.2383 20.3836 20.8974 20.1039 20.9004 19.4092C20.9033 18.7144 20.2501 17.8666 19.4386 17.5192C18.6272 17.1718 17.9681 17.4515 17.9652 18.1462Z" fill="url(#paint65_radial_5_9987)"/>
<path fill-rule="evenodd" clip-rule="evenodd" d="M34.6123 9.97104C34.1495 10.1035 34.085 10.6629 34.4658 11.2193C34.8496 11.7727 35.5321 12.1142 35.9949 11.9817C36.4548 11.8463 36.5222 11.2899 36.1414 10.7335C35.7576 10.1801 35.0751 9.83856 34.6152 9.97104H34.6123Z" fill="url(#paint66_radial_5_9987)"/>
<path fill-rule="evenodd" clip-rule="evenodd" d="M37.2077 9.95924C36.7683 10.0858 36.7068 10.6128 37.07 11.1397C37.4303 11.6638 38.0777 11.9905 38.5142 11.861C38.9506 11.7374 39.0151 11.2075 38.6548 10.6834C38.2945 10.1594 37.6471 9.83559 37.2077 9.95924Z" fill="url(#paint67_radial_5_9987)"/>
<path fill-rule="evenodd" clip-rule="evenodd" d="M39.9993 10.3891C39.6038 10.5039 39.5452 10.9778 39.8704 11.4518C40.1955 11.9228 40.7785 12.2143 41.171 12.1024C41.5635 11.9876 41.625 11.5136 41.2969 11.0397C40.9747 10.5657 40.3889 10.2772 39.9963 10.3891H39.9993Z" fill="url(#paint68_radial_5_9987)"/>
<path fill-rule="evenodd" clip-rule="evenodd" d="M42.8904 11.1928C42.5359 11.2958 42.4832 11.7227 42.7732 12.1496C43.0632 12.5735 43.5905 12.8384 43.9449 12.7354C44.3023 12.6353 44.3521 12.2055 44.0621 11.7816C43.7721 11.3547 43.2448 11.0956 42.8933 11.1957L42.8904 11.1928Z" fill="url(#paint69_radial_5_9987)"/>
<path fill-rule="evenodd" clip-rule="evenodd" d="M45.8197 12.3615C45.5005 12.4528 45.4536 12.8355 45.7143 13.2211C45.9779 13.6038 46.4466 13.8393 46.7659 13.7481C47.0852 13.6568 47.135 13.2741 46.8714 12.8885C46.6077 12.5057 46.1361 12.2702 45.8168 12.3644L45.8197 12.3615Z" fill="url(#paint70_radial_5_9987)"/>
<path fill-rule="evenodd" clip-rule="evenodd" d="M48.7314 13.8599C48.4443 13.9424 48.4004 14.2898 48.6347 14.6312C48.872 14.9757 49.2938 15.1876 49.5838 15.1052C49.8709 15.0228 49.9148 14.6784 49.6776 14.3339C49.4432 13.9895 49.0185 13.7775 48.7285 13.8599H48.7314Z" fill="url(#paint71_radial_5_9987)"/>
<path fill-rule="evenodd" clip-rule="evenodd" d="M51.567 15.6704C51.3063 15.744 51.2682 16.0531 51.4791 16.3652C51.69 16.6743 52.0737 16.8657 52.3315 16.7891C52.5922 16.7155 52.6303 16.4064 52.4194 16.0944C52.2085 15.7852 51.8247 15.5939 51.567 15.6704Z" fill="url(#paint72_radial_5_9987)"/>
<path fill-rule="evenodd" clip-rule="evenodd" d="M30.1949 11.2516C30.6548 11.1162 31.3373 11.4607 31.7181 12.0141C32.1019 12.5705 32.0374 13.1269 31.5746 13.2594C31.1147 13.3919 30.4322 13.0504 30.0514 12.4969C29.6706 11.9435 29.7321 11.3841 30.1949 11.2516Z" fill="url(#paint73_radial_5_9987)"/>
<path fill-rule="evenodd" clip-rule="evenodd" d="M28.4549 12.4969C28.8884 12.3673 29.5387 12.6912 29.8961 13.2181C30.2593 13.7451 30.1978 14.272 29.7643 14.3986C29.3278 14.5252 28.6805 14.2043 28.3202 13.6774C27.9599 13.1533 28.0184 12.6234 28.4549 12.4969Z" fill="url(#paint74_radial_5_9987)"/>
<path fill-rule="evenodd" clip-rule="evenodd" d="M27.0928 14.1308C27.4854 14.016 28.0654 14.3074 28.3905 14.7814C28.7157 15.2554 28.6659 15.7323 28.2733 15.8441C27.8808 15.9589 27.3008 15.6675 26.9757 15.1935C26.6505 14.7196 26.7032 14.2426 27.0928 14.1278V14.1308Z" fill="url(#paint75_radial_5_9987)"/>
<path fill-rule="evenodd" clip-rule="evenodd" d="M26.0999 16.065C26.4543 15.9619 26.9757 16.2239 27.2687 16.6508C27.5645 17.0777 27.5147 17.5045 27.1632 17.6076C26.8117 17.7106 26.2874 17.4486 25.9944 17.0217C25.7015 16.5978 25.7484 16.168 26.0999 16.065Z" fill="url(#paint76_radial_5_9987)"/>
<path fill-rule="evenodd" clip-rule="evenodd" d="M25.4994 18.2611C25.8128 18.1669 26.2844 18.4053 26.548 18.7851C26.8087 19.1707 26.7677 19.5564 26.4514 19.6476C26.1379 19.7389 25.6663 19.5034 25.4027 19.1207C25.1391 18.738 25.1801 18.3523 25.4964 18.2581L25.4994 18.2611Z" fill="url(#paint77_radial_5_9987)"/>
<path fill-rule="evenodd" clip-rule="evenodd" d="M25.2883 20.678C25.5754 20.5926 25.9943 20.8046 26.2345 21.149C26.4718 21.4935 26.4337 21.8409 26.1495 21.9262C25.8654 22.0087 25.4436 21.7997 25.2063 21.4552C24.969 21.1108 25.0071 20.7634 25.2883 20.678Z" fill="url(#paint78_radial_5_9987)"/>
<path fill-rule="evenodd" clip-rule="evenodd" d="M25.4848 23.2628C25.7396 23.1892 26.1204 23.3776 26.3342 23.6897C26.5481 23.9988 26.5129 24.3108 26.2581 24.3874C26.0032 24.4639 25.6254 24.2726 25.4086 23.9635C25.1977 23.6514 25.2299 23.3393 25.4848 23.2657V23.2628Z" fill="url(#paint79_radial_5_9987)"/>
<path fill-rule="evenodd" clip-rule="evenodd" d="M26.1408 26.0566C26.3312 25.9977 26.6183 26.1419 26.7765 26.3745C26.9347 26.6071 26.9112 26.8426 26.7208 26.8985C26.5304 26.9545 26.2434 26.8102 26.0852 26.5776C25.927 26.3451 25.9534 26.1125 26.1438 26.0536L26.1408 26.0566Z" fill="url(#paint80_radial_5_9987)"/>
<path fill-rule="evenodd" clip-rule="evenodd" d="M27.1661 28.8886C27.3096 28.8444 27.5206 28.9504 27.6407 29.1241C27.7608 29.2978 27.7402 29.4744 27.5967 29.5186C27.4561 29.5598 27.2423 29.4538 27.1222 29.2801C27.0021 29.1064 27.0196 28.9298 27.1661 28.8886Z" fill="url(#paint81_radial_5_9987)"/>
<path fill-rule="evenodd" clip-rule="evenodd" d="M54.5021 18.5613C54.757 18.6761 54.9738 18.5966 54.9825 18.3817C54.9972 18.1668 54.798 17.9019 54.5461 17.7871C54.2912 17.6723 54.0745 17.7517 54.0628 17.9667C54.051 18.1816 54.2473 18.4465 54.5021 18.5643V18.5613Z" fill="url(#paint82_radial_5_9987)"/>
<path fill-rule="evenodd" clip-rule="evenodd" d="M56.9598 20.6957C57.1414 20.8017 57.3113 20.7693 57.3465 20.6309C57.3816 20.4896 57.2645 20.2924 57.0858 20.1923C56.9071 20.0863 56.7343 20.1158 56.6991 20.2571C56.664 20.3954 56.7811 20.5927 56.9598 20.6957Z" fill="url(#paint83_radial_5_9987)"/>
<path fill-rule="evenodd" clip-rule="evenodd" d="M59.1684 23.145C59.3383 23.2422 59.5024 23.2157 59.5346 23.0832C59.5697 22.9507 59.4584 22.7623 59.2856 22.6652C59.1157 22.5651 58.9517 22.5945 58.9165 22.727C58.8814 22.8595 58.9956 23.0479 59.1655 23.145H59.1684Z" fill="url(#paint84_radial_5_9987)"/>
<path fill-rule="evenodd" clip-rule="evenodd" d="M30.3004 34.8824C30.4615 34.9737 30.6138 34.9472 30.6461 34.8206C30.6724 34.691 30.564 34.5144 30.4029 34.4202C30.2447 34.326 30.0895 34.3554 30.0602 34.482C30.0309 34.6086 30.1393 34.7882 30.3004 34.8824Z" fill="url(#paint85_radial_5_9987)"/>
<path fill-rule="evenodd" clip-rule="evenodd" d="M28.6278 32.1828C28.7977 32.2829 28.9588 32.2535 28.9881 32.1181C29.0203 31.9856 28.9061 31.7972 28.7362 31.6971C28.5663 31.6 28.4052 31.6264 28.3759 31.7589C28.3466 31.8943 28.4579 32.0828 28.6278 32.1799V32.1828Z" fill="url(#paint86_radial_5_9987)"/>
<path fill-rule="evenodd" clip-rule="evenodd" d="M32.2454 10.3861C31.768 10.5245 31.7035 11.1015 32.099 11.6726C32.4915 12.2467 33.1974 12.5999 33.672 12.4616C34.1495 12.3232 34.2139 11.7462 33.8214 11.1721C33.4259 10.5981 32.72 10.2448 32.2425 10.3832L32.2454 10.3861Z" fill="url(#paint87_radial_5_9987)"/>
<path fill-rule="evenodd" clip-rule="evenodd" d="M52.021 73.8333C53.3011 74.2248 54.2004 73.5683 54.0334 72.3701C53.8665 71.172 52.6918 69.8825 51.4088 69.491C50.1287 69.0995 49.2265 69.756 49.3964 70.9541C49.5663 72.1552 50.7409 73.4447 52.021 73.8362V73.8333Z" fill="url(#paint88_radial_5_9987)"/>
<path fill-rule="evenodd" clip-rule="evenodd" d="M57.3553 23.6367C57.2469 23.6926 57.2527 23.8516 57.3699 23.9929C57.4871 24.1342 57.6687 24.2019 57.7771 24.146C57.8855 24.09 57.8767 23.9281 57.7624 23.7897C57.6453 23.6484 57.4636 23.5807 57.3582 23.6367H57.3553ZM39.6712 63.3677C40.8605 64.0242 41.9649 63.7739 42.1406 62.8054C42.3193 61.8368 41.4962 60.518 40.304 59.8585C39.1147 59.1991 38.0074 59.4493 37.8316 60.4179C37.6588 61.3864 38.479 62.7053 39.6683 63.3677H39.6712ZM83.6601 56.3111C83.9062 56.4465 84.1376 56.3965 84.1816 56.1993C84.2226 56.002 84.0556 55.7312 83.8125 55.5928C83.5664 55.4574 83.3321 55.5074 83.2911 55.7076C83.25 55.9049 83.4141 56.1757 83.6601 56.3111ZM79.0788 63.7386C79.5387 63.7563 79.7525 63.3853 79.5621 62.9055C79.3717 62.4256 78.8444 62.0223 78.3845 62.0047C77.9276 61.984 77.7108 62.3609 77.9012 62.8378C78.0945 63.3176 78.6218 63.721 79.0788 63.7416V63.7386ZM81.8674 60.4355C82.1721 60.4032 82.2746 60.097 82.093 59.7555C81.9114 59.4111 81.5159 59.1638 81.2084 59.1991C80.9037 59.2344 80.8012 59.5406 80.9828 59.8821C81.1644 60.2206 81.5599 60.4709 81.8674 60.4355ZM75.1858 66.1762C74.5443 65.82 74.1078 65.1105 74.2132 64.5894C74.3216 64.0683 74.928 63.9359 75.5724 64.2921C76.2139 64.6483 76.6475 65.3607 76.542 65.8818C76.4366 66.4029 75.8273 66.5353 75.1858 66.1762ZM71.1316 68.0308C70.4169 67.6334 69.9336 66.8444 70.0507 66.2645C70.165 65.6845 70.8387 65.5373 71.5535 65.9348C72.2682 66.3322 72.7515 67.1212 72.6344 67.7011C72.5172 68.2781 71.8435 68.4283 71.1316 68.0308ZM66.5737 69.1495C65.7828 68.7079 65.2438 67.8307 65.3668 67.1859C65.4957 66.5412 66.2427 66.3764 67.0365 66.8179C67.8303 67.2566 68.3664 68.1368 68.2375 68.7815C68.1086 69.4263 67.3646 69.5911 66.5737 69.1495ZM61.6086 69.5234C60.7269 69.0347 60.1293 68.0573 60.267 67.342C60.4076 66.6236 61.2336 66.4411 62.1153 66.9298C62.997 67.4185 63.5946 68.3959 63.4569 69.1113C63.3163 69.8266 62.4874 70.0121 61.6086 69.5234ZM56.33 69.1377C55.3546 68.5961 54.6808 67.5098 54.8332 66.712C54.9884 65.9142 55.9053 65.7081 56.8836 66.2527C57.865 66.7973 58.5328 67.8836 58.3805 68.6785C58.2282 69.4763 57.3113 69.6824 56.3329 69.1377H56.33ZM50.8347 68.0043C49.7479 67.4008 48.998 66.1938 49.165 65.3077C49.332 64.4216 50.3484 64.192 51.4381 64.7984C52.5278 65.4019 53.2719 66.6119 53.1049 67.495C52.9379 68.3812 51.9215 68.6078 50.8347 68.0073V68.0043ZM45.2456 66.0466C44.0944 65.4108 43.3035 64.1331 43.4764 63.1969C43.6492 62.2608 44.7213 62.0194 45.8725 62.6582C47.0237 63.2941 47.8146 64.5717 47.6389 65.505C47.466 66.4441 46.3939 66.6855 45.2456 66.0466ZM6.30386 8.76992C6.5675 8.91417 6.81063 8.86118 6.84871 8.65216C6.88679 8.4402 6.70224 8.15169 6.43568 8.00744C6.17204 7.86319 5.92599 7.91618 5.89083 8.12814C5.85568 8.33716 6.04023 8.62861 6.30679 8.77286L6.30386 8.76992ZM5.92013 13.489C6.19548 13.6421 6.45325 13.5862 6.49426 13.3624C6.52942 13.1416 6.33901 12.8384 6.0578 12.6853C5.77952 12.5322 5.52175 12.5882 5.48366 12.8119C5.44558 13.0327 5.63892 13.3359 5.92013 13.489ZM6.33023 18.6938C6.69931 18.897 7.03911 18.8234 7.08891 18.526C7.13871 18.2316 6.88093 17.8254 6.51184 17.6252C6.14275 17.4221 5.80003 17.4957 5.75023 17.793C5.70043 18.0874 5.95821 18.4937 6.33023 18.6968V18.6938ZM7.54295 24.1901C8.03506 24.461 8.48617 24.3609 8.55354 23.9634C8.62092 23.569 8.27819 23.0302 7.78607 22.7594C7.29396 22.4885 6.84285 22.5916 6.77548 22.9831C6.7081 23.3776 7.05083 23.9163 7.54295 24.1872V24.1901ZM9.52021 29.8778C10.1734 30.2369 10.7739 30.1044 10.8677 29.5775C10.9585 29.0505 10.4986 28.3322 9.84536 27.973C9.19213 27.6109 8.5887 27.7464 8.50082 28.2733C8.41294 28.8003 8.86991 29.5186 9.52313 29.8778H9.52021ZM12.2503 35.4565C12.9738 35.8539 13.6388 35.7067 13.7413 35.1209C13.8409 34.538 13.3371 33.7402 12.6106 33.3398C11.8841 32.9424 11.2163 33.0925 11.1167 33.6754C11.0171 34.2612 11.5238 35.059 12.2503 35.4565ZM15.6395 40.9527C16.4421 41.3943 17.1832 41.2295 17.2945 40.5789C17.4058 39.9312 16.8463 39.0451 16.0437 38.6035C15.2411 38.159 14.5 38.3268 14.3887 38.9774C14.2773 39.628 14.8398 40.5112 15.6424 40.9557L15.6395 40.9527ZM19.6145 46.2606C20.5021 46.7523 21.3252 46.5638 21.4511 45.8455C21.5771 45.1243 20.9561 44.1439 20.0627 43.6523C19.1751 43.1577 18.352 43.3461 18.226 44.0674C18.103 44.7887 18.724 45.7719 19.6145 46.2636V46.2606ZM24.0963 51.277C25.0834 51.8217 25.9915 51.6126 26.1351 50.8119C26.2757 50.0112 25.5873 48.919 24.6001 48.3743C23.6129 47.8268 22.699 48.0358 22.5613 48.8365C22.4237 49.6373 23.112 50.7295 24.0963 51.277ZM28.997 55.899C30.0866 56.5025 31.1031 56.2729 31.2584 55.3838C31.4165 54.4947 30.6549 53.2848 29.5623 52.6783C28.4668 52.0748 27.4532 52.3045 27.298 53.1935C27.1427 54.0826 27.9043 55.2925 28.997 55.899ZM34.2286 59.941C35.3828 60.5798 36.452 60.3384 36.6189 59.3993C36.7888 58.4631 35.9891 57.1825 34.835 56.5437C33.6838 55.9049 32.6117 56.1463 32.4447 57.0883C32.2777 58.0245 33.0774 59.3021 34.2286 59.941ZM16.6325 28.8091C17.0104 29.7011 18.0005 30.4548 18.8441 30.493C19.6906 30.5284 20.0715 29.8336 19.6936 28.9445C19.3186 28.0525 18.3285 27.2989 17.479 27.2606C16.6325 27.2223 16.2517 27.9171 16.6296 28.8091H16.6325ZM57.3465 59.0519C57.4197 59.2344 57.6189 59.3875 57.7917 59.3963C57.9675 59.4022 58.0436 59.2609 57.9704 59.0755C57.8972 58.8959 57.698 58.7399 57.5222 58.731C57.3494 58.7251 57.2703 58.8664 57.3435 59.0519H57.3465ZM53.3011 58.5897C53.2162 58.3866 53.307 58.2306 53.5003 58.2394C53.6937 58.2453 53.9134 58.419 53.9983 58.6192C54.0803 58.8223 53.9895 58.9783 53.7962 58.9724C53.6058 58.9636 53.3832 58.7928 53.3011 58.5897ZM49.0068 57.5505C48.8984 57.2826 49.0156 57.0707 49.2705 57.0824C49.5253 57.0942 49.8241 57.3209 49.9325 57.5917C50.0438 57.8626 49.9266 58.0745 49.6718 58.0628C49.414 58.051 49.1181 57.8243 49.0098 57.5535L49.0068 57.5505ZM44.6012 55.9461C44.4518 55.584 44.61 55.3043 44.9527 55.319C45.2925 55.3338 45.688 55.637 45.8374 55.9991C45.9838 56.3582 45.8256 56.6379 45.4858 56.6261C45.146 56.6114 44.7477 56.3082 44.6012 55.949V55.9461ZM40.1516 53.8088C39.9524 53.3289 40.1604 52.9551 40.6174 52.9727C41.0744 52.9933 41.6016 53.3996 41.7979 53.8795C41.9971 54.3593 41.7862 54.7332 41.3351 54.7155C40.881 54.6979 40.3508 54.2916 40.1516 53.8088ZM35.9071 51.1917C35.6874 50.6588 35.9159 50.2408 36.4227 50.2614C36.9265 50.2849 37.5182 50.7354 37.735 51.2712C37.9547 51.8069 37.7262 52.222 37.2194 52.2014C36.7127 52.1779 36.1239 51.7275 35.9042 51.1917H35.9071ZM31.8296 48.1447C31.5806 47.55 31.8383 47.0879 32.3978 47.1114C32.9603 47.135 33.6164 47.6384 33.8625 48.2301C34.1085 48.8277 33.8537 49.287 33.2913 49.2634C32.7318 49.2369 32.0756 48.7364 31.8296 48.1418V48.1447ZM27.9864 44.7268C27.711 44.0645 27.9951 43.5522 28.6191 43.5787C29.2459 43.6052 29.9753 44.1616 30.2478 44.824C30.5231 45.4864 30.239 45.9986 29.615 45.9721C28.9911 45.9456 28.2617 45.3892 27.9864 44.7268ZM24.4624 41.0028C24.1549 40.2668 24.4683 39.6957 25.1655 39.7281C25.8597 39.7575 26.674 40.3787 26.9816 41.1147C27.2863 41.8477 26.9728 42.4188 26.2786 42.3923C25.5843 42.3599 24.7729 41.7417 24.4654 41.0057L24.4624 41.0028ZM21.3193 37.0521C20.9766 36.2366 21.3252 35.6037 22.0985 35.636C22.8718 35.6714 23.777 36.3602 24.1197 37.1787C24.4624 37.9941 24.1109 38.63 23.3405 38.5976C22.5701 38.5623 21.662 37.8734 21.3193 37.055V37.0521ZM18.7093 32.9571C18.3461 32.0945 18.7152 31.4233 19.5325 31.4586C20.3527 31.494 21.3076 32.2241 21.6708 33.0866C22.0341 33.9492 21.665 34.6204 20.8477 34.5821C20.0304 34.5439 19.0726 33.8167 18.7123 32.9541L18.7093 32.9571ZM33.4934 1.11575C33.5754 1.31005 33.7922 1.47196 33.9796 1.48374C34.1671 1.48962 34.2521 1.34243 34.173 1.15107C34.091 0.956776 33.8742 0.791917 33.6867 0.783085C33.5022 0.774254 33.4143 0.924393 33.4934 1.11575ZM29.6062 1.2129C29.6912 1.41603 29.9197 1.58972 30.1159 1.59855C30.3122 1.60738 30.403 1.45135 30.3181 1.24822C30.2331 1.04509 30.0046 0.871403 29.8054 0.862571C29.6092 0.853739 29.5184 1.00977 29.6062 1.21584V1.2129ZM25.9359 1.89C26.053 2.16084 26.3547 2.3934 26.6184 2.40518C26.8791 2.41696 26.9992 2.20794 26.8849 1.9371C26.7707 1.66626 26.4661 1.43663 26.2024 1.42191C25.9417 1.40719 25.8216 1.61916 25.9329 1.89H25.9359ZM22.6404 3.14999C22.7927 3.51209 23.197 3.81826 23.5485 3.83592C23.8971 3.85064 24.0553 3.57391 23.9029 3.20887C23.7506 2.84677 23.3405 2.5406 22.9949 2.52294C22.6463 2.50527 22.4881 2.78494 22.6404 3.14999ZM19.7639 4.96049C19.966 5.4433 20.5108 5.8525 20.9737 5.87605C21.4365 5.89666 21.6474 5.52278 21.4453 5.03998C21.2402 4.55718 20.6983 4.14798 20.2326 4.12737C19.7697 4.10382 19.5559 4.47769 19.7639 4.96049ZM17.5318 7.29207C17.7573 7.83081 18.3608 8.28417 18.8734 8.30772C19.3889 8.33127 19.6233 7.91618 19.3948 7.38039C19.1663 6.84165 18.5629 6.38829 18.0473 6.36474C17.5347 6.34119 17.3004 6.75922 17.5288 7.29207H17.5318ZM15.8592 10.0917C16.1111 10.6893 16.7819 11.1957 17.3502 11.2222C17.9214 11.2487 18.1791 10.7836 17.9272 10.1889C17.6753 9.59421 17.0074 9.08786 16.4362 9.06136C15.865 9.03487 15.6072 9.49706 15.8592 10.0917ZM14.7724 13.2976C15.0536 13.9571 15.7947 14.5194 16.4274 14.5488C17.0602 14.5782 17.3472 14.0631 17.066 13.4007C16.7848 12.7354 16.0437 12.176 15.411 12.1466C14.7783 12.1171 14.4941 12.6294 14.7753 13.2947L14.7724 13.2976ZM14.2861 16.848C14.5996 17.584 15.4198 18.2081 16.1228 18.2405C16.8258 18.2729 17.1422 17.7017 16.8287 16.9658C16.5153 16.2298 15.6951 15.6057 14.9921 15.5733C14.2891 15.538 13.9727 16.112 14.2861 16.848ZM14.4092 20.6692C14.7548 21.4876 15.6688 22.1794 16.445 22.2148C17.2242 22.2501 17.5728 21.6142 17.2271 20.7958C16.8815 19.9774 15.9675 19.2856 15.1913 19.2502C14.4121 19.2149 14.0606 19.8508 14.4092 20.6692ZM15.2206 24.6876C15.5838 25.5531 16.5446 26.2803 17.3648 26.3156C18.185 26.3509 18.5512 25.6827 18.1909 24.8172C17.8247 23.9517 16.8639 23.2245 16.0437 23.1892C15.2235 23.1509 14.8544 23.8221 15.2235 24.6847L15.2206 24.6876ZM23.1765 12.9738C22.9187 13.4331 23.2497 14.2073 23.9088 14.7078C24.5679 15.2053 25.3119 15.2406 25.5668 14.7814C25.8245 14.3251 25.4994 13.5479 24.8374 13.0504C24.1754 12.5528 23.4343 12.5175 23.1765 12.9738ZM37.155 44.8564C37.1023 44.9565 37.1696 45.1243 37.3132 45.2332C37.4538 45.3392 37.6119 45.348 37.6676 45.2479C37.7233 45.1478 37.653 44.98 37.5124 44.874C37.3717 44.7651 37.2136 44.7592 37.155 44.8564ZM54.1389 15.1023C54.0833 15.1994 54.1506 15.3672 54.2942 15.4761C54.4348 15.5851 54.5988 15.591 54.6545 15.4938C54.7131 15.3937 54.6428 15.2259 54.5021 15.1199C54.3615 15.011 54.1946 15.0022 54.1389 15.1023ZM34.214 42.3864C34.2696 42.2804 34.4366 42.2893 34.586 42.4011C34.7354 42.513 34.8086 42.6897 34.75 42.7956C34.6915 42.9016 34.5245 42.8928 34.378 42.7809C34.2286 42.6661 34.1554 42.4895 34.214 42.3864ZM31.4077 39.6074C31.4868 39.4661 31.7095 39.4778 31.9057 39.6309C32.1049 39.7811 32.2016 40.0195 32.1254 40.1579C32.0493 40.2963 31.8237 40.2874 31.6274 40.1373C31.4283 39.9842 31.3287 39.7487 31.4077 39.6103V39.6074ZM28.8534 36.6016C28.9559 36.4162 29.2547 36.428 29.5213 36.6311C29.7849 36.8342 29.9197 37.1492 29.8142 37.3347C29.7117 37.5201 29.4129 37.5084 29.1463 37.3052C28.8827 37.1021 28.7509 36.7871 28.8534 36.6016ZM26.5891 33.4252C26.7268 33.1749 27.1251 33.1955 27.4796 33.4634C27.834 33.7313 28.0098 34.1494 27.8721 34.3996C27.7344 34.6469 27.3361 34.6292 26.9816 34.3613C26.6272 34.0905 26.4514 33.6725 26.5891 33.4252ZM24.7847 30.2369C24.937 29.9602 25.3793 29.9808 25.7747 30.2811C26.1702 30.5813 26.3665 31.0465 26.2112 31.3232C26.0589 31.5999 25.6166 31.5793 25.2211 31.2791C24.8286 30.9788 24.6294 30.5107 24.7847 30.2369ZM23.3786 27.028C23.5485 26.7219 24.0435 26.7454 24.48 27.0752C24.9194 27.4078 25.1362 27.9289 24.9663 28.2351C24.7964 28.5412 24.3043 28.5206 23.8649 28.185C23.4284 27.8523 23.2087 27.3342 23.3786 27.028ZM22.4002 23.8633C22.5877 23.5248 23.1384 23.5483 23.6247 23.9193C24.1139 24.2902 24.3541 24.8672 24.1666 25.2058C23.9762 25.5443 23.4284 25.5208 22.9421 25.1528C22.4559 24.7818 22.2128 24.2048 22.4002 23.8663V23.8633ZM21.8671 20.8046C22.078 20.4249 22.6902 20.4514 23.2321 20.8635C23.777 21.2756 24.0465 21.9174 23.8356 22.2942C23.6247 22.674 23.0124 22.6446 22.4705 22.2324C21.9257 21.8203 21.6562 21.1785 21.8671 20.8017V20.8046ZM21.7939 17.9078C22.0282 17.4868 22.7078 17.5192 23.3112 17.9755C23.9147 18.4348 24.2164 19.1472 23.9791 19.5652C23.7477 19.9862 23.0652 19.9538 22.4617 19.4975C21.8554 19.0412 21.5566 18.3288 21.7909 17.9078H21.7939ZM22.245 15.2877C22.494 14.8461 23.2116 14.8785 23.8531 15.3613C24.4917 15.8471 24.8052 16.5978 24.5562 17.0394C24.3101 17.4809 23.5924 17.4486 22.9539 16.9658C22.3153 16.483 21.9989 15.7323 22.245 15.2877ZM50.9841 12.9208C50.9255 13.0239 50.9958 13.2005 51.1481 13.3153C51.2975 13.4301 51.4703 13.436 51.5289 13.333C51.5905 13.2299 51.5172 13.0533 51.3649 12.9385C51.2155 12.8237 51.0427 12.8178 50.9812 12.9208H50.9841ZM47.633 11.0279C47.5539 11.1663 47.6506 11.4018 47.8498 11.5549C48.0519 11.705 48.2774 11.7168 48.3595 11.5784C48.4415 11.44 48.3448 11.2045 48.1398 11.0514C47.9406 10.8984 47.7121 10.8895 47.6301 11.0279H47.633ZM44.2028 9.5C44.0974 9.68547 44.2262 9.99753 44.4957 10.2007C44.7623 10.4038 45.067 10.4185 45.1753 10.233C45.2837 10.0476 45.1519 9.73257 44.8824 9.53239C44.6129 9.32926 44.3112 9.31454 44.2028 9.5ZM40.7551 8.35188C40.6115 8.59917 40.7873 9.0172 41.1447 9.28804C41.502 9.55888 41.9092 9.57655 42.0527 9.3322C42.1963 9.08491 42.0205 8.66688 41.6631 8.39604C41.3058 8.1252 40.9015 8.10754 40.758 8.35188H40.7551ZM37.4889 7.70716C37.3307 7.98095 37.527 8.44903 37.9225 8.74931C38.3208 9.04959 38.769 9.07019 38.9301 8.79935C39.0883 8.52557 38.892 8.05749 38.4937 7.75721C38.0982 7.45693 37.6471 7.43338 37.4889 7.71011V7.70716ZM34.3722 7.50403C34.1993 7.8102 34.4132 8.32833 34.8555 8.66099C35.2978 8.99365 35.7987 9.02015 35.9716 8.71398C36.1473 8.40781 35.9305 7.88969 35.4882 7.55702C35.0459 7.22436 34.545 7.20081 34.3722 7.50403ZM31.4634 7.73955C31.2701 8.0781 31.5132 8.6551 32.0053 9.02604C32.4945 9.39697 33.0511 9.42052 33.2444 9.08491C33.4377 8.74636 33.1975 8.16936 32.7054 7.79842C32.2133 7.42749 31.6597 7.401 31.4663 7.73955H31.4634ZM28.8241 8.41076C28.6103 8.78758 28.8798 9.42935 29.4246 9.83855C29.9724 10.2507 30.5875 10.2801 30.8014 9.90332C31.0152 9.52356 30.7457 8.88473 30.2009 8.47258C29.6531 8.06338 29.038 8.03394 28.8241 8.41076ZM26.5071 9.50589C26.7443 9.08491 27.4298 9.1173 28.0332 9.57655C28.6396 10.0358 28.9384 10.7453 28.7011 11.1663C28.4638 11.5843 27.7813 11.5519 27.1749 11.0927C26.5686 10.6364 26.2698 9.92393 26.5071 9.50589ZM24.6235 11.0485C24.8696 10.6069 25.5931 10.6393 26.2317 11.1221C26.8732 11.6049 27.1867 12.3556 26.9377 12.8001C26.6887 13.2417 25.9681 13.2093 25.3295 12.7295C24.6909 12.2437 24.3716 11.493 24.6235 11.0514V11.0485ZM29.5799 29.1771C29.4832 29.2271 29.4949 29.3714 29.5975 29.5009C29.7029 29.6275 29.8669 29.6893 29.9607 29.6393C30.0574 29.5863 30.0456 29.445 29.9402 29.3155C29.8347 29.1889 29.6707 29.1271 29.577 29.18L29.5799 29.1771ZM28.7304 26.7955C28.6308 26.8485 28.6396 27.0016 28.7538 27.134C28.8651 27.2665 29.038 27.3313 29.1376 27.2783C29.2372 27.2223 29.2254 27.0722 29.1171 26.9397C29.0057 26.8043 28.8329 26.7425 28.7304 26.7955ZM59.0894 25.9535C58.9869 26.0065 58.9927 26.1596 59.104 26.2921C59.2154 26.4245 59.3852 26.4893 59.4907 26.4363C59.5932 26.3833 59.5874 26.2332 59.4761 26.1007C59.3647 25.9653 59.1919 25.9035 59.0894 25.9535ZM28.3144 24.4403C28.4638 24.4492 28.6367 24.5817 28.7011 24.7347C28.7685 24.8908 28.7011 25.0115 28.5517 25.0085C28.4023 24.9997 28.2295 24.8702 28.1621 24.7141C28.0977 24.5581 28.1621 24.4345 28.3144 24.4403ZM28.127 22.1441C28.3261 22.1529 28.5605 22.3296 28.6454 22.5356C28.7333 22.7447 28.6454 22.9066 28.4433 22.8977C28.2441 22.8889 28.0127 22.7123 27.9248 22.5033C27.837 22.2942 27.9278 22.1323 28.127 22.1412V22.1441ZM28.2851 19.9685C28.5517 19.9803 28.8593 20.2158 28.9764 20.4926C29.0936 20.7693 28.9764 20.9871 28.707 20.9754C28.4404 20.9636 28.1299 20.7281 28.0156 20.4514C27.8985 20.1717 28.0156 19.9568 28.2851 19.9685ZM28.8271 18.0638C29.12 18.0756 29.4656 18.3376 29.5975 18.6438C29.7293 18.9529 29.5916 19.1943 29.2957 19.1796C29.0028 19.1649 28.6572 18.9058 28.5253 18.5967C28.3965 18.2876 28.5283 18.0491 28.8271 18.0638ZM29.7088 16.3829C30.0368 16.3946 30.4206 16.6861 30.567 17.0305C30.7106 17.375 30.5612 17.6399 30.2302 17.6252C29.9021 17.6105 29.5184 17.319 29.3748 16.9775C29.2313 16.6331 29.3807 16.3681 29.7088 16.3829ZM30.9098 14.961C31.2759 14.9757 31.7007 15.2995 31.8618 15.6822C32.02 16.062 31.853 16.3593 31.4868 16.3417C31.1207 16.324 30.6959 16.0031 30.5348 15.6233C30.3737 15.2436 30.5407 14.9462 30.9068 14.961H30.9098ZM32.4096 13.8276C32.0024 13.8099 31.8178 14.1367 31.9936 14.5606C32.1723 14.9845 32.6468 15.3437 33.0511 15.3613C33.4582 15.379 33.6457 15.0493 33.467 14.6283C33.2883 14.2044 32.8167 13.8452 32.4066 13.8276H32.4096ZM34.173 13.0003C34.627 13.0209 35.1543 13.4213 35.3505 13.8894C35.5468 14.3604 35.3388 14.7254 34.8877 14.7048C34.4337 14.6842 33.9093 14.2868 33.7102 13.8158C33.5139 13.3448 33.7219 12.9797 34.173 13.0003ZM36.1913 12.5528C35.7109 12.5293 35.4912 12.9149 35.6991 13.4125C35.9071 13.907 36.4637 14.328 36.9441 14.3516C37.4215 14.3722 37.6412 13.9895 37.4333 13.4919C37.2253 12.9944 36.6717 12.5764 36.1913 12.5528ZM55.3458 21.2462C55.1144 21.2374 55.0089 21.4199 55.1056 21.6613C55.2052 21.9027 55.4717 22.1029 55.7032 22.1147C55.9346 22.1264 56.04 21.938 55.9433 21.6996C55.8467 21.4611 55.5772 21.258 55.3458 21.2462ZM53.1312 19.1531C52.8325 19.1413 52.6948 19.3798 52.8237 19.6859C52.9496 19.995 53.2924 20.2571 53.5911 20.2688C53.8899 20.2806 54.0276 20.0451 53.9016 19.736C53.7757 19.4298 53.43 19.1678 53.1312 19.1531ZM50.7849 17.3338C50.4539 17.3161 50.2986 17.584 50.4422 17.9255C50.5828 18.267 50.9636 18.5555 51.2975 18.5702C51.6285 18.5849 51.7808 18.32 51.6402 17.9785C51.4996 17.637 51.1159 17.3485 50.7849 17.3338ZM48.3214 15.7499C47.9552 15.7323 47.7824 16.0267 47.9406 16.4094C48.0988 16.7891 48.5235 17.11 48.8926 17.1277C49.2587 17.1453 49.4286 16.851 49.2734 16.4682C49.1152 16.0885 48.6905 15.7646 48.3214 15.747V15.7499ZM45.7963 14.4369C45.3892 14.4193 45.1988 14.7461 45.3745 15.17C45.5503 15.591 46.0219 15.9501 46.432 15.9678C46.8392 15.9884 47.0266 15.6587 46.8538 15.2377C46.6781 14.8138 46.2035 14.4546 45.7963 14.4399V14.4369ZM43.2567 13.4184C42.8026 13.3977 42.5917 13.7598 42.788 14.2309C42.9842 14.7019 43.5086 15.0993 43.9626 15.1199C44.4167 15.1405 44.6246 14.7784 44.4313 14.3074C44.235 13.8364 43.7078 13.439 43.2567 13.4184ZM40.7756 12.7648C40.2981 12.7413 40.0784 13.1269 40.2864 13.6244C40.4944 14.1219 41.048 14.54 41.5255 14.5606C42.0059 14.5812 42.2256 14.1985 42.0176 13.701C41.8125 13.2034 41.256 12.7854 40.7756 12.7648ZM38.3999 12.4586C37.9049 12.4351 37.6793 12.8325 37.8932 13.3448C38.107 13.857 38.6811 14.2927 39.1762 14.3162C39.6683 14.3398 39.8968 13.9394 39.6829 13.4272C39.4691 12.912 38.895 12.4822 38.3999 12.4586Z" fill="url(#paint89_radial_5_9987)"/>
<path fill-rule="evenodd" clip-rule="evenodd" d="M55.3398 32.3506L54.2853 33.1631C53.7053 32.4036 53.0081 31.8266 52.1938 31.4351C51.3824 31.0435 50.489 30.8463 49.5135 30.8463C48.4502 30.8463 47.4659 31.1054 46.5579 31.6176C45.6498 32.1328 44.9497 32.8217 44.4517 33.6872C43.9537 34.5527 43.7018 35.5301 43.7018 36.6105C43.7018 38.2473 44.2584 39.6133 45.3744 40.7084C46.4905 41.8035 47.8965 42.3511 49.5955 42.3511C51.4644 42.3511 53.0257 41.6151 54.2824 40.1461L55.3369 40.9498C54.672 41.8006 53.84 42.46 52.847 42.9222C51.854 43.3873 50.7409 43.6199 49.5135 43.6199C47.1789 43.6199 45.3334 42.8398 43.986 41.2766C42.8553 39.9606 42.287 38.365 42.287 36.5015C42.287 34.5409 42.9724 32.8864 44.3404 31.5469C45.7113 30.2045 47.4279 29.5362 49.493 29.5362C50.7379 29.5362 51.8628 29.7835 52.8675 30.2752C53.8723 30.7697 54.6954 31.4616 55.3369 32.3477L55.3398 32.3506ZM56.7517 33.3692H58.0699L61.4737 40.9733L64.7809 33.3692H66.1342L60.2434 46.9112H58.8901L60.8234 42.4718L56.7488 33.3692H56.7517ZM67.5901 29.5392H68.8526V43.2873H67.5901V29.5392ZM79.8286 39.9989L80.9007 40.5641C80.5492 41.253 80.142 41.8094 79.6792 42.2333C79.2164 42.6543 78.7008 42.9781 78.1237 43.1989C77.5437 43.4197 76.8934 43.5287 76.167 43.5287C74.55 43.5287 73.2904 42.9988 72.3794 41.9419C71.4684 40.8821 71.0144 39.6869 71.0144 38.3562C71.0144 37.1021 71.401 35.9805 72.1744 35.0001C73.1498 33.7519 74.4592 33.1249 76.0996 33.1249C77.74 33.1249 79.1373 33.7666 80.1449 35.0443C80.8597 35.9481 81.2258 37.0727 81.2375 38.4298H72.315C72.3384 39.5779 72.7075 40.52 73.4164 41.2501C74.1282 41.986 75.0099 42.3511 76.0527 42.3511C76.5566 42.3511 77.0516 42.2628 77.5262 42.0891C78.0036 41.9154 78.4079 41.6858 78.7447 41.3943C79.0787 41.1058 79.4419 40.6407 79.8286 39.996V39.9989ZM79.8403 37.3288C79.6704 36.6458 79.4214 36.1041 79.0962 35.6979C78.7682 35.2887 78.3376 34.9619 77.8015 34.7146C77.2655 34.4644 76.703 34.3407 76.1143 34.3407C75.1388 34.3407 74.301 34.6528 73.6009 35.2769C73.0854 35.7332 72.7016 36.4162 72.438 37.3288H79.8374H79.8403ZM83.5722 33.3692H84.8347V35.1473C85.3444 34.4673 85.9097 33.9609 86.5249 33.6283C87.143 33.2956 87.8167 33.1278 88.5432 33.1278C89.2696 33.1278 89.9404 33.3133 90.5146 33.6901C91.0887 34.0669 91.5134 34.5733 91.7859 35.2121C92.0583 35.848 92.196 36.8401 92.196 38.1884V43.2873H90.9334V38.5623C90.9334 37.423 90.8837 36.6605 90.787 36.2778C90.6317 35.6243 90.3476 35.1326 89.9287 34.8C89.5098 34.4702 88.965 34.3054 88.2942 34.3054C87.5238 34.3054 86.8325 34.5615 86.2261 35.0708C85.6168 35.5772 85.2126 36.2101 85.0222 36.9637C84.9021 37.4554 84.8406 38.3533 84.8406 39.6574V43.2902H83.578V33.3722L83.5722 33.3692ZM95.3508 29.2978C95.6379 29.2978 95.8839 29.4008 96.089 29.6098C96.294 29.8159 96.3965 30.0662 96.3965 30.3576C96.3965 30.649 96.294 30.8934 96.089 31.0995C95.8839 31.3085 95.6408 31.4115 95.3508 31.4115C95.0608 31.4115 94.8235 31.3085 94.6185 31.0995C94.4134 30.8934 94.3109 30.6461 94.3109 30.3576C94.3109 30.0691 94.4134 29.8159 94.6185 29.6098C94.8235 29.4008 95.0637 29.2978 95.3508 29.2978ZM94.721 33.3692H95.9835V43.2873H94.721V33.3692ZM98.4588 33.3692H99.7213V37.997C99.7213 39.1275 99.7828 39.9018 99.9029 40.3286C100.082 40.9351 100.433 41.4149 100.943 41.7682C101.452 42.1185 102.068 42.2981 102.777 42.2981C103.485 42.2981 104.086 42.1274 104.584 41.7829C105.076 41.4385 105.419 40.9881 105.606 40.4287C105.732 40.046 105.8 39.2364 105.8 37.997V33.3692H107.1V38.2326C107.1 39.5985 106.942 40.626 106.623 41.3178C106.306 42.0125 105.826 42.5542 105.187 42.9428C104.549 43.3344 103.749 43.5316 102.785 43.5316C101.822 43.5316 101.019 43.3344 100.375 42.9428C99.7301 42.5542 99.2467 42.0067 98.9304 41.306C98.6111 40.6054 98.4529 39.5514 98.4529 38.1442V33.3722L98.4588 33.3692ZM109.924 33.3692H111.186V35.0855C111.629 34.4526 112.083 33.9904 112.549 33.696C113.19 33.3162 113.864 33.1278 114.573 33.1278C115.053 33.1278 115.504 33.222 115.935 33.4104C116.365 33.5959 116.714 33.8491 116.989 34.1611C117.262 34.4761 117.496 34.9236 117.698 35.5094C118.12 34.7323 118.65 34.1405 119.28 33.7343C119.916 33.328 120.595 33.1278 121.328 33.1278C122.01 33.1278 122.614 33.3015 123.135 33.6489C123.659 33.9933 124.046 34.4761 124.301 35.0973C124.556 35.7155 124.682 36.6458 124.682 37.8852V43.2931H123.381V37.8822C123.381 36.8165 123.308 36.0894 123.155 35.692C123.003 35.2945 122.745 34.9737 122.382 34.7293C122.016 34.4879 121.582 34.3643 121.076 34.3643C120.463 34.3643 119.898 34.5468 119.391 34.9118C118.882 35.2769 118.51 35.7626 118.272 36.3691C118.038 36.9755 117.921 37.9912 117.921 39.4101V43.2931H116.655V38.2178C116.655 37.0226 116.582 36.2101 116.433 35.7803C116.283 35.3505 116.029 35.009 115.659 34.7499C115.287 34.4908 114.851 34.3643 114.344 34.3643C113.755 34.3643 113.208 34.5409 112.695 34.8971C112.185 35.2533 111.805 35.7302 111.561 36.3308C111.315 36.9314 111.192 37.8528 111.192 39.0922V43.2931H109.93V33.3751L109.924 33.3692Z" fill="#020617"/>
</g>
<defs>
<radialGradient id="paint0_radial_5_9987" cx="0" cy="0" r="1" gradientUnits="userSpaceOnUse" gradientTransform="translate(45.3394 68.7226) scale(3.70846 3.72699)">
<stop stop-color="#2B9FDA"/>
<stop offset="0.11" stop-color="#2B9FDA"/>
<stop offset="0.58" stop-color="#25457B"/>
<stop offset="0.88" stop-color="#061023"/>
<stop offset="1" stop-color="#000109"/>
</radialGradient>
<radialGradient id="paint1_radial_5_9987" cx="0" cy="0" r="1" gradientUnits="userSpaceOnUse" gradientTransform="translate(38.9564 65.5903) scale(3.59129 3.60923)">
<stop stop-color="#2B9FDA"/>
<stop offset="0.11" stop-color="#2B9FDA"/>
<stop offset="0.58" stop-color="#25457B"/>
<stop offset="0.88" stop-color="#061023"/>
<stop offset="1" stop-color="#000109"/>
</radialGradient>
<radialGradient id="paint2_radial_5_9987" cx="0" cy="0" r="1" gradientUnits="userSpaceOnUse" gradientTransform="translate(32.6995 61.7338) scale(3.30129 3.31779)">
<stop stop-color="#2B9FDA"/>
<stop offset="0.11" stop-color="#2B9FDA"/>
<stop offset="0.58" stop-color="#25457B"/>
<stop offset="0.88" stop-color="#061023"/>
<stop offset="1" stop-color="#000109"/>
</radialGradient>
<radialGradient id="paint3_radial_5_9987" cx="0" cy="0" r="1" gradientUnits="userSpaceOnUse" gradientTransform="translate(26.6974 57.2178) scale(2.97614 2.99101)">
<stop stop-color="#2B9FDA"/>
<stop offset="0.11" stop-color="#2B9FDA"/>
<stop offset="0.58" stop-color="#25457B"/>
<stop offset="0.88" stop-color="#061023"/>
<stop offset="1" stop-color="#000109"/>
</radialGradient>
<radialGradient id="paint4_radial_5_9987" cx="0" cy="0" r="1" gradientUnits="userSpaceOnUse" gradientTransform="translate(21.0556 52.1308) scale(2.68614 2.69956)">
<stop stop-color="#2B9FDA"/>
<stop offset="0.11" stop-color="#2B9FDA"/>
<stop offset="0.58" stop-color="#25457B"/>
<stop offset="0.88" stop-color="#061023"/>
<stop offset="1" stop-color="#000109"/>
</radialGradient>
<radialGradient id="paint5_radial_5_9987" cx="0" cy="0" r="1" gradientUnits="userSpaceOnUse" gradientTransform="translate(15.8912 46.5786) scale(2.41958 2.43167)">
<stop stop-color="#2B9FDA"/>
<stop offset="0.11" stop-color="#2B9FDA"/>
<stop offset="0.58" stop-color="#25457B"/>
<stop offset="0.88" stop-color="#061023"/>
<stop offset="1" stop-color="#000109"/>
</radialGradient>
<radialGradient id="paint6_radial_5_9987" cx="0" cy="0" r="1" gradientUnits="userSpaceOnUse" gradientTransform="translate(11.31 40.6672) scale(2.18524 2.19616)">
<stop stop-color="#2B9FDA"/>
<stop offset="0.11" stop-color="#2B9FDA"/>
<stop offset="0.58" stop-color="#25457B"/>
<stop offset="0.88" stop-color="#061023"/>
<stop offset="1" stop-color="#000109"/>
</radialGradient>
<radialGradient id="paint7_radial_5_9987" cx="0" cy="0" r="1" gradientUnits="userSpaceOnUse" gradientTransform="translate(7.40524 34.5733) scale(1.64332 1.65153)">
<stop stop-color="#2B9FDA"/>
<stop offset="0.11" stop-color="#2B9FDA"/>
<stop offset="0.58" stop-color="#25457B"/>
<stop offset="0.88" stop-color="#061023"/>
<stop offset="1" stop-color="#000109"/>
</radialGradient>
<radialGradient id="paint8_radial_5_9987" cx="0" cy="0" r="1" gradientUnits="userSpaceOnUse" gradientTransform="translate(4.26801 28.3528) scale(1.23615 1.24233)">
<stop stop-color="#2B9FDA"/>
<stop offset="0.11" stop-color="#2B9FDA"/>
<stop offset="0.58" stop-color="#25457B"/>
<stop offset="0.88" stop-color="#061023"/>
<stop offset="1" stop-color="#000109"/>
</radialGradient>
<radialGradient id="paint9_radial_5_9987" cx="0" cy="0" r="1" gradientUnits="userSpaceOnUse" gradientTransform="translate(1.96839 22.1441) scale(0.92858 0.933218)">
<stop stop-color="#2B9FDA"/>
<stop offset="0.11" stop-color="#2B9FDA"/>
<stop offset="0.58" stop-color="#25457B"/>
<stop offset="0.88" stop-color="#061023"/>
<stop offset="1" stop-color="#000109"/>
</radialGradient>
<radialGradient id="paint10_radial_5_9987" cx="0" cy="0" r="1" gradientUnits="userSpaceOnUse" gradientTransform="translate(0.553565 16.0649) scale(0.884641 0.88906)">
<stop stop-color="#2B9FDA"/>
<stop offset="0.11" stop-color="#2B9FDA"/>
<stop offset="0.58" stop-color="#25457B"/>
<stop offset="0.88" stop-color="#061023"/>
<stop offset="1" stop-color="#000109"/>
</radialGradient>
<radialGradient id="paint11_radial_5_9987" cx="0" cy="0" r="1" gradientUnits="userSpaceOnUse" gradientTransform="translate(57.9703 72.5792) scale(3.74654 3.76526)">
<stop stop-color="#2B9FDA"/>
<stop offset="0.11" stop-color="#2B9FDA"/>
<stop offset="0.58" stop-color="#25457B"/>
<stop offset="0.88" stop-color="#061023"/>
<stop offset="1" stop-color="#000109"/>
</radialGradient>
<radialGradient id="paint12_radial_5_9987" cx="0" cy="0" r="1" gradientUnits="userSpaceOnUse" gradientTransform="translate(64.0018 73.2533) scale(3.58543 3.60334)">
<stop stop-color="#2B9FDA"/>
<stop offset="0.11" stop-color="#2B9FDA"/>
<stop offset="0.58" stop-color="#25457B"/>
<stop offset="0.88" stop-color="#061023"/>
<stop offset="1" stop-color="#000109"/>
</radialGradient>
<radialGradient id="paint13_radial_5_9987" cx="0" cy="0" r="1" gradientUnits="userSpaceOnUse" gradientTransform="translate(69.6787 73.0443) scale(3.29543 3.3119)">
<stop stop-color="#2B9FDA"/>
<stop offset="0.11" stop-color="#2B9FDA"/>
<stop offset="0.58" stop-color="#25457B"/>
<stop offset="0.88" stop-color="#061023"/>
<stop offset="1" stop-color="#000109"/>
</radialGradient>
<radialGradient id="paint14_radial_5_9987" cx="0" cy="0" r="1" gradientUnits="userSpaceOnUse" gradientTransform="translate(74.884 71.958) scale(2.96736 2.98218)">
<stop stop-color="#2B9FDA"/>
<stop offset="0.11" stop-color="#2B9FDA"/>
<stop offset="0.58" stop-color="#25457B"/>
<stop offset="0.88" stop-color="#061023"/>
<stop offset="1" stop-color="#000109"/>
</radialGradient>
<radialGradient id="paint15_radial_5_9987" cx="0" cy="0" r="1" gradientUnits="userSpaceOnUse" gradientTransform="translate(79.5268 70.015) scale(2.67443 2.68779)">
<stop stop-color="#2B9FDA"/>
<stop offset="0.11" stop-color="#2B9FDA"/>
<stop offset="0.58" stop-color="#25457B"/>
<stop offset="0.88" stop-color="#061023"/>
<stop offset="1" stop-color="#000109"/>
</radialGradient>
<radialGradient id="paint16_radial_5_9987" cx="0" cy="0" r="1" gradientUnits="userSpaceOnUse" gradientTransform="translate(83.5165 67.2595) scale(2.4108 2.42284)">
<stop stop-color="#2B9FDA"/>
<stop offset="0.11" stop-color="#2B9FDA"/>
<stop offset="0.58" stop-color="#25457B"/>
<stop offset="0.88" stop-color="#061023"/>
<stop offset="1" stop-color="#000109"/>
</radialGradient>
<radialGradient id="paint17_radial_5_9987" cx="0" cy="0" r="1" gradientUnits="userSpaceOnUse" gradientTransform="translate(89.2784 59.4935) scale(1.2508 1.25705)">
<stop stop-color="#2B9FDA"/>
<stop offset="0.11" stop-color="#2B9FDA"/>
<stop offset="0.58" stop-color="#25457B"/>
<stop offset="0.88" stop-color="#061023"/>
<stop offset="1" stop-color="#000109"/>
</radialGradient>
<radialGradient id="paint18_radial_5_9987" cx="0" cy="0" r="1" gradientUnits="userSpaceOnUse" gradientTransform="translate(86.8148 63.7357) scale(1.8015 1.8105)">
<stop stop-color="#2B9FDA"/>
<stop offset="0.11" stop-color="#2B9FDA"/>
<stop offset="0.58" stop-color="#25457B"/>
<stop offset="0.88" stop-color="#061023"/>
<stop offset="1" stop-color="#000109"/>
</radialGradient>
<radialGradient id="paint19_radial_5_9987" cx="0" cy="0" r="1" gradientUnits="userSpaceOnUse" gradientTransform="translate(90.7607 54.8892) scale(0.872927 0.877285)">
<stop stop-color="#2B9FDA"/>
<stop offset="0.11" stop-color="#2B9FDA"/>
<stop offset="0.58" stop-color="#25457B"/>
<stop offset="0.88" stop-color="#061023"/>
<stop offset="1" stop-color="#000109"/>
</radialGradient>
<radialGradient id="paint20_radial_5_9987" cx="0" cy="0" r="1" gradientUnits="userSpaceOnUse" gradientTransform="translate(21.4306 40.4846) scale(2.96735 2.98218)">
<stop stop-color="#2B9FDA"/>
<stop offset="0.11" stop-color="#2B9FDA"/>
<stop offset="0.58" stop-color="#25457B"/>
<stop offset="0.88" stop-color="#061023"/>
<stop offset="1" stop-color="#000109"/>
</radialGradient>
<radialGradient id="paint21_radial_5_9987" cx="0" cy="0" r="1" gradientUnits="userSpaceOnUse" gradientTransform="translate(18.1732 35.9039) scale(2.81503 2.8291)">
<stop stop-color="#2B9FDA"/>
<stop offset="0.11" stop-color="#2B9FDA"/>
<stop offset="0.58" stop-color="#25457B"/>
<stop offset="0.88" stop-color="#061023"/>
<stop offset="1" stop-color="#000109"/>
</radialGradient>
<radialGradient id="paint22_radial_5_9987" cx="0" cy="0" r="1" gradientUnits="userSpaceOnUse" gradientTransform="translate(15.4783 31.2143) scale(2.53968 2.55237)">
<stop stop-color="#2B9FDA"/>
<stop offset="0.11" stop-color="#2B9FDA"/>
<stop offset="0.58" stop-color="#25457B"/>
<stop offset="0.88" stop-color="#061023"/>
<stop offset="1" stop-color="#000109"/>
</radialGradient>
<radialGradient id="paint23_radial_5_9987" cx="0" cy="0" r="1" gradientUnits="userSpaceOnUse" gradientTransform="translate(13.3956 26.4834) scale(2.29069 2.30214)">
<stop stop-color="#2B9FDA"/>
<stop offset="0.11" stop-color="#2B9FDA"/>
<stop offset="0.58" stop-color="#25457B"/>
<stop offset="0.88" stop-color="#061023"/>
<stop offset="1" stop-color="#000109"/>
</radialGradient>
<radialGradient id="paint24_radial_5_9987" cx="0" cy="0" r="1" gradientUnits="userSpaceOnUse" gradientTransform="translate(11.9661 21.8173) scale(2.06514 2.07546)">
<stop stop-color="#2B9FDA"/>
<stop offset="0.11" stop-color="#2B9FDA"/>
<stop offset="0.58" stop-color="#25457B"/>
<stop offset="0.88" stop-color="#061023"/>
<stop offset="1" stop-color="#000109"/>
</radialGradient>
<radialGradient id="paint25_radial_5_9987" cx="0" cy="0" r="1" gradientUnits="userSpaceOnUse" gradientTransform="translate(11.2191 17.3073) scale(1.86302 1.87233)">
<stop stop-color="#2B9FDA"/>
<stop offset="0.11" stop-color="#2B9FDA"/>
<stop offset="0.58" stop-color="#25457B"/>
<stop offset="0.88" stop-color="#061023"/>
<stop offset="1" stop-color="#000109"/>
</radialGradient>
<radialGradient id="paint26_radial_5_9987" cx="0" cy="0" r="1" gradientUnits="userSpaceOnUse" gradientTransform="translate(11.181 13.0503) scale(1.67847 1.68686)">
<stop stop-color="#2B9FDA"/>
<stop offset="0.11" stop-color="#2B9FDA"/>
<stop offset="0.58" stop-color="#25457B"/>
<stop offset="0.88" stop-color="#061023"/>
<stop offset="1" stop-color="#000109"/>
</radialGradient>
<radialGradient id="paint27_radial_5_9987" cx="0" cy="0" r="1" gradientUnits="userSpaceOnUse" gradientTransform="translate(11.8548 9.17327) scale(1.26252 1.26883)">
<stop stop-color="#2B9FDA"/>
<stop offset="0.11" stop-color="#2B9FDA"/>
<stop offset="0.58" stop-color="#25457B"/>
<stop offset="0.88" stop-color="#061023"/>
<stop offset="1" stop-color="#000109"/>
</radialGradient>
<radialGradient id="paint28_radial_5_9987" cx="0" cy="0" r="1" gradientUnits="userSpaceOnUse" gradientTransform="translate(13.2374 5.70823) scale(0.949085 0.953827)">
<stop stop-color="#2B9FDA"/>
<stop offset="0.11" stop-color="#2B9FDA"/>
<stop offset="0.58" stop-color="#25457B"/>
<stop offset="0.88" stop-color="#061023"/>
<stop offset="1" stop-color="#000109"/>
</radialGradient>
<radialGradient id="paint29_radial_5_9987" cx="0" cy="0" r="1" gradientUnits="userSpaceOnUse" gradientTransform="translate(15.2995 2.73488) scale(0.711814 0.71537)">
<stop stop-color="#2B9FDA"/>
<stop offset="0.11" stop-color="#2B9FDA"/>
<stop offset="0.58" stop-color="#25457B"/>
<stop offset="0.88" stop-color="#061023"/>
<stop offset="1" stop-color="#000109"/>
</radialGradient>
<radialGradient id="paint30_radial_5_9987" cx="0" cy="0" r="1" gradientUnits="userSpaceOnUse" gradientTransform="translate(17.9916 0.29731) scale(0.676663 0.680043)">
<stop stop-color="#2B9FDA"/>
<stop offset="0.11" stop-color="#2B9FDA"/>
<stop offset="0.58" stop-color="#25457B"/>
<stop offset="0.88" stop-color="#061023"/>
<stop offset="1" stop-color="#000109"/>
</radialGradient>
<radialGradient id="paint31_radial_5_9987" cx="0" cy="0" r="1" gradientUnits="userSpaceOnUse" gradientTransform="translate(29.2869 48.916) scale(2.95857 2.97335)">
<stop stop-color="#2B9FDA"/>
<stop offset="0.11" stop-color="#2B9FDA"/>
<stop offset="0.58" stop-color="#25457B"/>
<stop offset="0.88" stop-color="#061023"/>
<stop offset="1" stop-color="#000109"/>
</radialGradient>
<radialGradient id="paint32_radial_5_9987" cx="0" cy="0" r="1" gradientUnits="userSpaceOnUse" gradientTransform="translate(33.7424 52.6136) scale(2.79746 2.81143)">
<stop stop-color="#2B9FDA"/>
<stop offset="0.11" stop-color="#2B9FDA"/>
<stop offset="0.58" stop-color="#25457B"/>
<stop offset="0.88" stop-color="#061023"/>
<stop offset="1" stop-color="#000109"/>
</radialGradient>
<radialGradient id="paint33_radial_5_9987" cx="0" cy="0" r="1" gradientUnits="userSpaceOnUse" gradientTransform="translate(38.435 55.8518) scale(2.51332 2.52587)">
<stop stop-color="#2B9FDA"/>
<stop offset="0.11" stop-color="#2B9FDA"/>
<stop offset="0.58" stop-color="#25457B"/>
<stop offset="0.88" stop-color="#061023"/>
<stop offset="1" stop-color="#000109"/>
</radialGradient>
<radialGradient id="paint34_radial_5_9987" cx="0" cy="0" r="1" gradientUnits="userSpaceOnUse" gradientTransform="translate(43.2713 58.5485) scale(2.2614 2.2727)">
<stop stop-color="#2B9FDA"/>
<stop offset="0.11" stop-color="#2B9FDA"/>
<stop offset="0.58" stop-color="#25457B"/>
<stop offset="0.88" stop-color="#061023"/>
<stop offset="1" stop-color="#000109"/>
</radialGradient>
<radialGradient id="paint35_radial_5_9987" cx="0" cy="0" r="1" gradientUnits="userSpaceOnUse" gradientTransform="translate(48.1485 60.6505) scale(2.03585 2.04602)">
<stop stop-color="#2B9FDA"/>
<stop offset="0.11" stop-color="#2B9FDA"/>
<stop offset="0.58" stop-color="#25457B"/>
<stop offset="0.88" stop-color="#061023"/>
<stop offset="1" stop-color="#000109"/>
</radialGradient>
<radialGradient id="paint36_radial_5_9987" cx="0" cy="0" r="1" gradientUnits="userSpaceOnUse" gradientTransform="translate(52.9818 62.1283) scale(1.8308 1.83994)">
<stop stop-color="#2B9FDA"/>
<stop offset="0.11" stop-color="#2B9FDA"/>
<stop offset="0.58" stop-color="#25457B"/>
<stop offset="0.88" stop-color="#061023"/>
<stop offset="1" stop-color="#000109"/>
</radialGradient>
<radialGradient id="paint37_radial_5_9987" cx="0" cy="0" r="1" gradientUnits="userSpaceOnUse" gradientTransform="translate(57.6716 62.9437) scale(1.64625 1.65448)">
<stop stop-color="#2B9FDA"/>
<stop offset="0.11" stop-color="#2B9FDA"/>
<stop offset="0.58" stop-color="#25457B"/>
<stop offset="0.88" stop-color="#061023"/>
<stop offset="1" stop-color="#000109"/>
</radialGradient>
<radialGradient id="paint38_radial_5_9987" cx="0" cy="0" r="1" gradientUnits="userSpaceOnUse" gradientTransform="translate(62.1269 63.1263) scale(1.23615 1.24233)">
<stop stop-color="#2B9FDA"/>
<stop offset="0.11" stop-color="#2B9FDA"/>
<stop offset="0.58" stop-color="#25457B"/>
<stop offset="0.88" stop-color="#061023"/>
<stop offset="1" stop-color="#000109"/>
</radialGradient>
<radialGradient id="paint39_radial_5_9987" cx="0" cy="0" r="1" gradientUnits="userSpaceOnUse" gradientTransform="translate(66.2661 62.614) scale(0.928581 0.933219)">
<stop stop-color="#2B9FDA"/>
<stop offset="0.11" stop-color="#2B9FDA"/>
<stop offset="0.58" stop-color="#25457B"/>
<stop offset="0.88" stop-color="#061023"/>
<stop offset="1" stop-color="#000109"/>
</radialGradient>
<radialGradient id="paint40_radial_5_9987" cx="0" cy="0" r="1" gradientUnits="userSpaceOnUse" gradientTransform="translate(69.995 61.4247) scale(0.694238 0.697708)">
<stop stop-color="#2B9FDA"/>
<stop offset="0.11" stop-color="#2B9FDA"/>
<stop offset="0.58" stop-color="#25457B"/>
<stop offset="0.88" stop-color="#061023"/>
<stop offset="1" stop-color="#000109"/>
</radialGradient>
<radialGradient id="paint41_radial_5_9987" cx="0" cy="0" r="1" gradientUnits="userSpaceOnUse" gradientTransform="translate(73.2114 59.6142) scale(0.629793 0.632941)">
<stop stop-color="#2B9FDA"/>
<stop offset="0.11" stop-color="#2B9FDA"/>
<stop offset="0.58" stop-color="#25457B"/>
<stop offset="0.88" stop-color="#061023"/>
<stop offset="1" stop-color="#000109"/>
</radialGradient>
<radialGradient id="paint42_radial_5_9987" cx="0" cy="0" r="1" gradientUnits="userSpaceOnUse" gradientTransform="translate(25.1566 44.8417) scale(3.06109 3.07639)">
<stop stop-color="#2B9FDA"/>
<stop offset="0.11" stop-color="#2B9FDA"/>
<stop offset="0.58" stop-color="#25457B"/>
<stop offset="0.88" stop-color="#061023"/>
<stop offset="1" stop-color="#000109"/>
</radialGradient>
<radialGradient id="paint43_radial_5_9987" cx="0" cy="0" r="1" gradientUnits="userSpaceOnUse" gradientTransform="translate(19.7199 15.3172) scale(2.27605 2.28742)">
<stop stop-color="#2B9FDA"/>
<stop offset="0.11" stop-color="#2B9FDA"/>
<stop offset="0.58" stop-color="#25457B"/>
<stop offset="0.88" stop-color="#061023"/>
<stop offset="1" stop-color="#000109"/>
</radialGradient>
<radialGradient id="paint44_radial_5_9987" cx="0" cy="0" r="1" gradientUnits="userSpaceOnUse" gradientTransform="translate(20.5372 12.5145) scale(2.15888 2.16966)">
<stop stop-color="#2B9FDA"/>
<stop offset="0.11" stop-color="#2B9FDA"/>
<stop offset="0.58" stop-color="#25457B"/>
<stop offset="0.88" stop-color="#061023"/>
<stop offset="1" stop-color="#000109"/>
</radialGradient>
<radialGradient id="paint45_radial_5_9987" cx="0" cy="0" r="1" gradientUnits="userSpaceOnUse" gradientTransform="translate(21.8846 10.0888) scale(1.94797 1.9577)">
<stop stop-color="#2B9FDA"/>
<stop offset="0.11" stop-color="#2B9FDA"/>
<stop offset="0.58" stop-color="#25457B"/>
<stop offset="0.88" stop-color="#061023"/>
<stop offset="1" stop-color="#000109"/>
</radialGradient>
<radialGradient id="paint46_radial_5_9987" cx="0" cy="0" r="1" gradientUnits="userSpaceOnUse" gradientTransform="translate(23.7329 8.0634) scale(1.75464 1.7634)">
<stop stop-color="#2B9FDA"/>
<stop offset="0.11" stop-color="#2B9FDA"/>
<stop offset="0.58" stop-color="#25457B"/>
<stop offset="0.88" stop-color="#061023"/>
<stop offset="1" stop-color="#000109"/>
</radialGradient>
<radialGradient id="paint47_radial_5_9987" cx="0" cy="0" r="1" gradientUnits="userSpaceOnUse" gradientTransform="translate(26.0354 6.48541) scale(1.57888 1.58677)">
<stop stop-color="#2B9FDA"/>
<stop offset="0.11" stop-color="#2B9FDA"/>
<stop offset="0.58" stop-color="#25457B"/>
<stop offset="0.88" stop-color="#061023"/>
<stop offset="1" stop-color="#000109"/>
</radialGradient>
<radialGradient id="paint48_radial_5_9987" cx="0" cy="0" r="1" gradientUnits="userSpaceOnUse" gradientTransform="translate(28.7479 5.37561) scale(1.42363 1.43074)">
<stop stop-color="#2B9FDA"/>
<stop offset="0.11" stop-color="#2B9FDA"/>
<stop offset="0.58" stop-color="#25457B"/>
<stop offset="0.88" stop-color="#061023"/>
<stop offset="1" stop-color="#000109"/>
</radialGradient>
<radialGradient id="paint49_radial_5_9987" cx="0" cy="0" r="1" gradientUnits="userSpaceOnUse" gradientTransform="translate(31.8178 4.76916) scale(1.28009 1.28649)">
<stop stop-color="#2B9FDA"/>
<stop offset="0.11" stop-color="#2B9FDA"/>
<stop offset="0.58" stop-color="#25457B"/>
<stop offset="0.88" stop-color="#061023"/>
<stop offset="1" stop-color="#000109"/>
</radialGradient>
<radialGradient id="paint50_radial_5_9987" cx="0" cy="0" r="1" gradientUnits="userSpaceOnUse" gradientTransform="translate(35.1776 4.70439) scale(0.960802 0.965603)">
<stop stop-color="#2B9FDA"/>
<stop offset="0.11" stop-color="#2B9FDA"/>
<stop offset="0.58" stop-color="#25457B"/>
<stop offset="0.88" stop-color="#061023"/>
<stop offset="1" stop-color="#000109"/>
</radialGradient>
<radialGradient id="paint51_radial_5_9987" cx="0" cy="0" r="1" gradientUnits="userSpaceOnUse" gradientTransform="translate(38.7631 5.14593) scale(0.720604 0.724202)">
<stop stop-color="#2B9FDA"/>
<stop offset="0.11" stop-color="#2B9FDA"/>
<stop offset="0.58" stop-color="#25457B"/>
<stop offset="0.88" stop-color="#061023"/>
<stop offset="1" stop-color="#000109"/>
</radialGradient>
<radialGradient id="paint52_radial_5_9987" cx="0" cy="0" r="1" gradientUnits="userSpaceOnUse" gradientTransform="translate(42.492 6.088) scale(0.541915 0.544624)">
<stop stop-color="#2B9FDA"/>
<stop offset="0.11" stop-color="#2B9FDA"/>
<stop offset="0.58" stop-color="#25457B"/>
<stop offset="0.88" stop-color="#061023"/>
<stop offset="1" stop-color="#000109"/>
</radialGradient>
<radialGradient id="paint53_radial_5_9987" cx="0" cy="0" r="1" gradientUnits="userSpaceOnUse" gradientTransform="translate(19.6789 21.7584) scale(2.27019 2.28153)">
<stop stop-color="#2B9FDA"/>
<stop offset="0.11" stop-color="#2B9FDA"/>
<stop offset="0.58" stop-color="#25457B"/>
<stop offset="0.88" stop-color="#061023"/>
<stop offset="1" stop-color="#000109"/>
</radialGradient>
<radialGradient id="paint54_radial_5_9987" cx="0" cy="0" r="1" gradientUnits="userSpaceOnUse" gradientTransform="translate(20.4639 25.2882) scale(2.14716 2.15789)">
<stop stop-color="#2B9FDA"/>
<stop offset="0.11" stop-color="#2B9FDA"/>
<stop offset="0.58" stop-color="#25457B"/>
<stop offset="0.88" stop-color="#061023"/>
<stop offset="1" stop-color="#000109"/>
</radialGradient>
<radialGradient id="paint55_radial_5_9987" cx="0" cy="0" r="1" gradientUnits="userSpaceOnUse" gradientTransform="translate(21.7674 28.921) scale(1.93039 1.94004)">
<stop stop-color="#2B9FDA"/>
<stop offset="0.11" stop-color="#2B9FDA"/>
<stop offset="0.58" stop-color="#25457B"/>
<stop offset="0.88" stop-color="#061023"/>
<stop offset="1" stop-color="#000109"/>
</radialGradient>
<radialGradient id="paint56_radial_5_9987" cx="0" cy="0" r="1" gradientUnits="userSpaceOnUse" gradientTransform="translate(23.5543 32.5655) scale(1.73413 1.74279)">
<stop stop-color="#2B9FDA"/>
<stop offset="0.11" stop-color="#2B9FDA"/>
<stop offset="0.58" stop-color="#25457B"/>
<stop offset="0.88" stop-color="#061023"/>
<stop offset="1" stop-color="#000109"/>
</radialGradient>
<radialGradient id="paint57_radial_5_9987" cx="0" cy="0" r="1" gradientUnits="userSpaceOnUse" gradientTransform="translate(25.7864 36.1512) scale(1.55837 1.56616)">
<stop stop-color="#2B9FDA"/>
<stop offset="0.11" stop-color="#2B9FDA"/>
<stop offset="0.58" stop-color="#25457B"/>
<stop offset="0.88" stop-color="#061023"/>
<stop offset="1" stop-color="#000109"/>
</radialGradient>
<radialGradient id="paint58_radial_5_9987" cx="0" cy="0" r="1" gradientUnits="userSpaceOnUse" gradientTransform="translate(28.4169 39.6015) scale(1.40312 1.41013)">
<stop stop-color="#2B9FDA"/>
<stop offset="0.11" stop-color="#2B9FDA"/>
<stop offset="0.58" stop-color="#25457B"/>
<stop offset="0.88" stop-color="#061023"/>
<stop offset="1" stop-color="#000109"/>
</radialGradient>
<radialGradient id="paint59_radial_5_9987" cx="0" cy="0" r="1" gradientUnits="userSpaceOnUse" gradientTransform="translate(31.39 42.8516) scale(1.25959 1.26588)">
<stop stop-color="#2B9FDA"/>
<stop offset="0.11" stop-color="#2B9FDA"/>
<stop offset="0.58" stop-color="#25457B"/>
<stop offset="0.88" stop-color="#061023"/>
<stop offset="1" stop-color="#000109"/>
</radialGradient>
<radialGradient id="paint60_radial_5_9987" cx="0" cy="0" r="1" gradientUnits="userSpaceOnUse" gradientTransform="translate(34.6503 45.8603) scale(0.943227 0.947939)">
<stop stop-color="#2B9FDA"/>
<stop offset="0.11" stop-color="#2B9FDA"/>
<stop offset="0.58" stop-color="#25457B"/>
<stop offset="0.88" stop-color="#061023"/>
<stop offset="1" stop-color="#000109"/>
</radialGradient>
<radialGradient id="paint61_radial_5_9987" cx="0" cy="0" r="1" gradientUnits="userSpaceOnUse" gradientTransform="translate(38.1274 48.5304) scale(0.705954 0.709481)">
<stop stop-color="#2B9FDA"/>
<stop offset="0.11" stop-color="#2B9FDA"/>
<stop offset="0.58" stop-color="#25457B"/>
<stop offset="0.88" stop-color="#061023"/>
<stop offset="1" stop-color="#000109"/>
</radialGradient>
<radialGradient id="paint62_radial_5_9987" cx="0" cy="0" r="1" gradientUnits="userSpaceOnUse" gradientTransform="translate(41.7568 50.8119) scale(0.530201 0.532847)">
<stop stop-color="#2B9FDA"/>
<stop offset="0.11" stop-color="#2B9FDA"/>
<stop offset="0.58" stop-color="#25457B"/>
<stop offset="0.88" stop-color="#061023"/>
<stop offset="1" stop-color="#000109"/>
</radialGradient>
<radialGradient id="paint63_radial_5_9987" cx="0" cy="0" r="1" gradientUnits="userSpaceOnUse" gradientTransform="translate(46.2825 7.48635) scale(0.512626 0.515184)">
<stop stop-color="#2B9FDA"/>
<stop offset="0.11" stop-color="#2B9FDA"/>
<stop offset="0.58" stop-color="#25457B"/>
<stop offset="0.88" stop-color="#061023"/>
<stop offset="1" stop-color="#000109"/>
</radialGradient>
<radialGradient id="paint64_radial_5_9987" cx="0" cy="0" r="1" gradientUnits="userSpaceOnUse" gradientTransform="translate(45.4536 52.643) scale(0.477474 0.479857)">
<stop stop-color="#2B9FDA"/>
<stop offset="0.11" stop-color="#2B9FDA"/>
<stop offset="0.58" stop-color="#25457B"/>
<stop offset="0.88" stop-color="#061023"/>
<stop offset="1" stop-color="#000109"/>
</radialGradient>
<radialGradient id="paint65_radial_5_9987" cx="0" cy="0" r="1" gradientUnits="userSpaceOnUse" gradientTransform="translate(19.4328 18.4141) scale(2.34928 2.36102)">
<stop stop-color="#2B9FDA"/>
<stop offset="0.11" stop-color="#2B9FDA"/>
<stop offset="0.58" stop-color="#25457B"/>
<stop offset="0.88" stop-color="#061023"/>
<stop offset="1" stop-color="#000109"/>
</radialGradient>
<radialGradient id="paint66_radial_5_9987" cx="0" cy="0" r="1" gradientUnits="userSpaceOnUse" gradientTransform="translate(35.3036 10.707) scale(1.73413 1.7428)">
<stop stop-color="#2B9FDA"/>
<stop offset="0.11" stop-color="#2B9FDA"/>
<stop offset="0.58" stop-color="#25457B"/>
<stop offset="0.88" stop-color="#061023"/>
<stop offset="1" stop-color="#000109"/>
</radialGradient>
<radialGradient id="paint67_radial_5_9987" cx="0" cy="0" r="1" gradientUnits="userSpaceOnUse" gradientTransform="translate(37.8609 10.6569) scale(1.64332 1.65153)">
<stop stop-color="#2B9FDA"/>
<stop offset="0.11" stop-color="#2B9FDA"/>
<stop offset="0.58" stop-color="#25457B"/>
<stop offset="0.88" stop-color="#061023"/>
<stop offset="1" stop-color="#000109"/>
</radialGradient>
<radialGradient id="paint68_radial_5_9987" cx="0" cy="0" r="1" gradientUnits="userSpaceOnUse" gradientTransform="translate(40.5851 11.0161) scale(1.47928 1.48667)">
<stop stop-color="#2B9FDA"/>
<stop offset="0.11" stop-color="#2B9FDA"/>
<stop offset="0.58" stop-color="#25457B"/>
<stop offset="0.88" stop-color="#061023"/>
<stop offset="1" stop-color="#000109"/>
</radialGradient>
<radialGradient id="paint69_radial_5_9987" cx="0" cy="0" r="1" gradientUnits="userSpaceOnUse" gradientTransform="translate(43.4176 11.758) scale(1.32989 1.33654)">
<stop stop-color="#2B9FDA"/>
<stop offset="0.11" stop-color="#2B9FDA"/>
<stop offset="0.58" stop-color="#25457B"/>
<stop offset="0.88" stop-color="#061023"/>
<stop offset="1" stop-color="#000109"/>
</radialGradient>
<radialGradient id="paint70_radial_5_9987" cx="0" cy="0" r="1" gradientUnits="userSpaceOnUse" gradientTransform="translate(46.2943 12.8679) scale(1.19807 1.20406)">
<stop stop-color="#2B9FDA"/>
<stop offset="0.11" stop-color="#2B9FDA"/>
<stop offset="0.58" stop-color="#25457B"/>
<stop offset="0.88" stop-color="#061023"/>
<stop offset="1" stop-color="#000109"/>
</radialGradient>
<radialGradient id="paint71_radial_5_9987" cx="0" cy="0" r="1" gradientUnits="userSpaceOnUse" gradientTransform="translate(49.1591 14.3163) scale(1.07797 1.08336)">
<stop stop-color="#2B9FDA"/>
<stop offset="0.11" stop-color="#2B9FDA"/>
<stop offset="0.58" stop-color="#25457B"/>
<stop offset="0.88" stop-color="#061023"/>
<stop offset="1" stop-color="#000109"/>
</radialGradient>
<radialGradient id="paint72_radial_5_9987" cx="0" cy="0" r="1" gradientUnits="userSpaceOnUse" gradientTransform="translate(51.9507 16.0826) scale(0.969589 0.974434)">
<stop stop-color="#2B9FDA"/>
<stop offset="0.11" stop-color="#2B9FDA"/>
<stop offset="0.58" stop-color="#25457B"/>
<stop offset="0.88" stop-color="#061023"/>
<stop offset="1" stop-color="#000109"/>
</radialGradient>
<radialGradient id="paint73_radial_5_9987" cx="0" cy="0" r="1" gradientUnits="userSpaceOnUse" gradientTransform="translate(30.8862 11.9876) scale(1.73413 1.7428)">
<stop stop-color="#2B9FDA"/>
<stop offset="0.11" stop-color="#2B9FDA"/>
<stop offset="0.58" stop-color="#25457B"/>
<stop offset="0.88" stop-color="#061023"/>
<stop offset="1" stop-color="#000109"/>
</radialGradient>
<radialGradient id="paint74_radial_5_9987" cx="0" cy="0" r="1" gradientUnits="userSpaceOnUse" gradientTransform="translate(29.1111 13.1946) scale(1.64039 1.64859)">
<stop stop-color="#2B9FDA"/>
<stop offset="0.11" stop-color="#2B9FDA"/>
<stop offset="0.58" stop-color="#25457B"/>
<stop offset="0.88" stop-color="#061023"/>
<stop offset="1" stop-color="#000109"/>
</radialGradient>
<radialGradient id="paint75_radial_5_9987" cx="0" cy="0" r="1" gradientUnits="userSpaceOnUse" gradientTransform="translate(27.6846 14.7578) scale(1.47635 1.48373)">
<stop stop-color="#2B9FDA"/>
<stop offset="0.11" stop-color="#2B9FDA"/>
<stop offset="0.58" stop-color="#25457B"/>
<stop offset="0.88" stop-color="#061023"/>
<stop offset="1" stop-color="#000109"/>
</radialGradient>
<radialGradient id="paint76_radial_5_9987" cx="0" cy="0" r="1" gradientUnits="userSpaceOnUse" gradientTransform="translate(26.633 16.6302) scale(1.32696 1.33359)">
<stop stop-color="#2B9FDA"/>
<stop offset="0.11" stop-color="#2B9FDA"/>
<stop offset="0.58" stop-color="#25457B"/>
<stop offset="0.88" stop-color="#061023"/>
<stop offset="1" stop-color="#000109"/>
</radialGradient>
<radialGradient id="paint77_radial_5_9987" cx="0" cy="0" r="1" gradientUnits="userSpaceOnUse" gradientTransform="translate(25.9739 18.7704) scale(1.19221 1.19817)">
<stop stop-color="#2B9FDA"/>
<stop offset="0.11" stop-color="#2B9FDA"/>
<stop offset="0.58" stop-color="#25457B"/>
<stop offset="0.88" stop-color="#061023"/>
<stop offset="1" stop-color="#000109"/>
</radialGradient>
<radialGradient id="paint78_radial_5_9987" cx="0" cy="0" r="1" gradientUnits="userSpaceOnUse" gradientTransform="translate(25.7189 21.1343) scale(1.07211 1.07747)">
<stop stop-color="#2B9FDA"/>
<stop offset="0.11" stop-color="#2B9FDA"/>
<stop offset="0.58" stop-color="#25457B"/>
<stop offset="0.88" stop-color="#061023"/>
<stop offset="1" stop-color="#000109"/>
</radialGradient>
<radialGradient id="paint79_radial_5_9987" cx="0" cy="0" r="1" gradientUnits="userSpaceOnUse" gradientTransform="translate(25.8714 23.6749) scale(0.963732 0.968547)">
<stop stop-color="#2B9FDA"/>
<stop offset="0.11" stop-color="#2B9FDA"/>
<stop offset="0.58" stop-color="#25457B"/>
<stop offset="0.88" stop-color="#061023"/>
<stop offset="1" stop-color="#000109"/>
</radialGradient>
<radialGradient id="paint80_radial_5_9987" cx="0" cy="0" r="1" gradientUnits="userSpaceOnUse" gradientTransform="translate(26.4308 26.3657) scale(0.723531 0.727146)">
<stop stop-color="#2B9FDA"/>
<stop offset="0.11" stop-color="#2B9FDA"/>
<stop offset="0.58" stop-color="#25457B"/>
<stop offset="0.88" stop-color="#061023"/>
<stop offset="1" stop-color="#000109"/>
</radialGradient>
<radialGradient id="paint81_radial_5_9987" cx="0" cy="0" r="1" gradientUnits="userSpaceOnUse" gradientTransform="translate(27.3829 29.1182) scale(0.541916 0.544623)">
<stop stop-color="#2B9FDA"/>
<stop offset="0.11" stop-color="#2B9FDA"/>
<stop offset="0.58" stop-color="#25457B"/>
<stop offset="0.88" stop-color="#061023"/>
<stop offset="1" stop-color="#000109"/>
</radialGradient>
<radialGradient id="paint82_radial_5_9987" cx="0" cy="0" r="1" gradientUnits="userSpaceOnUse" gradientTransform="translate(54.5227 18.0609) scale(0.738177 0.741866)">
<stop stop-color="#2B9FDA"/>
<stop offset="0.11" stop-color="#2B9FDA"/>
<stop offset="0.58" stop-color="#25457B"/>
<stop offset="0.88" stop-color="#061023"/>
<stop offset="1" stop-color="#000109"/>
</radialGradient>
<radialGradient id="paint83_radial_5_9987" cx="0" cy="0" r="1" gradientUnits="userSpaceOnUse" gradientTransform="translate(57.0243 20.363) scale(0.527271 0.529905)">
<stop stop-color="#2B9FDA"/>
<stop offset="0.11" stop-color="#2B9FDA"/>
<stop offset="0.58" stop-color="#25457B"/>
<stop offset="0.88" stop-color="#061023"/>
<stop offset="1" stop-color="#000109"/>
</radialGradient>
<radialGradient id="paint84_radial_5_9987" cx="0" cy="0" r="1" gradientUnits="userSpaceOnUse" gradientTransform="translate(59.227 22.8241) scale(0.503835 0.506354)">
<stop stop-color="#2B9FDA"/>
<stop offset="0.11" stop-color="#2B9FDA"/>
<stop offset="0.58" stop-color="#25457B"/>
<stop offset="0.88" stop-color="#061023"/>
<stop offset="1" stop-color="#000109"/>
</radialGradient>
<radialGradient id="paint85_radial_5_9987" cx="0" cy="0" r="1" gradientUnits="userSpaceOnUse" gradientTransform="translate(30.3531 34.5792) scale(0.474542 0.476914)">
<stop stop-color="#2B9FDA"/>
<stop offset="0.11" stop-color="#2B9FDA"/>
<stop offset="0.58" stop-color="#25457B"/>
<stop offset="0.88" stop-color="#061023"/>
<stop offset="1" stop-color="#000109"/>
</radialGradient>
<radialGradient id="paint86_radial_5_9987" cx="0" cy="0" r="1" gradientUnits="userSpaceOnUse" gradientTransform="translate(28.6835 31.8649) scale(0.497976 0.500465)">
<stop stop-color="#2B9FDA"/>
<stop offset="0.11" stop-color="#2B9FDA"/>
<stop offset="0.58" stop-color="#25457B"/>
<stop offset="0.88" stop-color="#061023"/>
<stop offset="1" stop-color="#000109"/>
</radialGradient>
<radialGradient id="paint87_radial_5_9987" cx="0" cy="0" r="1" gradientUnits="userSpaceOnUse" gradientTransform="translate(32.9602 11.1486) scale(1.79271 1.80167)">
<stop stop-color="#2B9FDA"/>
<stop offset="0.11" stop-color="#2B9FDA"/>
<stop offset="0.58" stop-color="#25457B"/>
<stop offset="0.88" stop-color="#061023"/>
<stop offset="1" stop-color="#000109"/>
</radialGradient>
<radialGradient id="paint88_radial_5_9987" cx="0" cy="0" r="1" gradientUnits="userSpaceOnUse" gradientTransform="translate(51.7164 71.066) scale(3.7524 3.77115)">
<stop stop-color="#2B9FDA"/>
<stop offset="0.11" stop-color="#2B9FDA"/>
<stop offset="0.58" stop-color="#25457B"/>
<stop offset="0.88" stop-color="#061023"/>
<stop offset="1" stop-color="#000109"/>
</radialGradient>
<radialGradient id="paint89_radial_5_9987" cx="0" cy="0" r="1" gradientUnits="userSpaceOnUse" gradientTransform="translate(44.8326 0.774256) scale(79.1549 79.5504)">
<stop stop-color="#BBBCC1"/>
<stop offset="0.33" stop-color="#A3A5AB"/>
<stop offset="0.57" stop-color="#8A8C91"/>
<stop offset="0.83" stop-color="#7B7A80"/>
<stop offset="1" stop-color="#626164"/>
</radialGradient>
<clipPath id="clip0_5_9987">
<rect width="124.688" height="76" fill="white"/>
</clipPath>
</defs>
</svg>
