<svg width="40" height="41" viewBox="0 0 40 41" fill="none" xmlns="http://www.w3.org/2000/svg">
<path d="M0 20.5C0 9.45431 8.95431 0.5 20 0.5C31.0457 0.5 40 9.45431 40 20.5C40 31.5457 31.0457 40.5 20 40.5C8.95431 40.5 0 31.5457 0 20.5Z" fill="#F4F4F5"/>
<g clip-path="url(#clip0_287_2336)">
<path fill-rule="evenodd" clip-rule="evenodd" d="M16 14.172C15.6318 14.172 15.3333 14.4704 15.3333 14.8386V25.5053C15.3333 25.8735 15.6318 26.172 16 26.172H17.3333V24.172C17.3333 23.8038 17.6318 23.5053 18 23.5053H22C22.3682 23.5053 22.6667 23.8038 22.6667 24.172V26.172H24C24.3682 26.172 24.6667 25.8735 24.6667 25.5053V14.8386C24.6667 14.4704 24.3682 14.172 24 14.172H16ZM24 27.5053H22H18H16C14.8954 27.5053 14 26.6099 14 25.5053V14.8386C14 13.7341 14.8954 12.8386 16 12.8386H24C25.1046 12.8386 26 13.7341 26 14.8386V25.5053C26 26.6099 25.1046 27.5053 24 27.5053ZM17.3333 15.5053C16.9651 15.5053 16.6667 15.8038 16.6667 16.172C16.6667 16.5401 16.9651 16.8386 17.3333 16.8386H17.34C17.7082 16.8386 18.0067 16.5401 18.0067 16.172C18.0067 15.8038 17.7082 15.5053 17.34 15.5053H17.3333ZM22 16.172C22 15.8038 22.2985 15.5053 22.6667 15.5053H22.6733C23.0415 15.5053 23.34 15.8038 23.34 16.172C23.34 16.5401 23.0415 16.8386 22.6733 16.8386H22.6667C22.2985 16.8386 22 16.5401 22 16.172ZM20 15.5053C19.6318 15.5053 19.3333 15.8038 19.3333 16.172C19.3333 16.5401 19.6318 16.8386 20 16.8386H20.0067C20.3749 16.8386 20.6733 16.5401 20.6733 16.172C20.6733 15.8038 20.3749 15.5053 20.0067 15.5053H20ZM19.3333 18.8386C19.3333 18.4704 19.6318 18.172 20 18.172H20.0067C20.3749 18.172 20.6733 18.4704 20.6733 18.8386C20.6733 19.2068 20.3749 19.5053 20.0067 19.5053H20C19.6318 19.5053 19.3333 19.2068 19.3333 18.8386ZM20 20.8386C19.6318 20.8386 19.3333 21.1371 19.3333 21.5053C19.3333 21.8735 19.6318 22.172 20 22.172H20.0067C20.3749 22.172 20.6733 21.8735 20.6733 21.5053C20.6733 21.1371 20.3749 20.8386 20.0067 20.8386H20ZM22 18.8386C22 18.4704 22.2985 18.172 22.6667 18.172H22.6733C23.0415 18.172 23.34 18.4704 23.34 18.8386C23.34 19.2068 23.0415 19.5053 22.6733 19.5053H22.6667C22.2985 19.5053 22 19.2068 22 18.8386ZM22.6667 20.8386C22.2985 20.8386 22 21.1371 22 21.5053C22 21.8735 22.2985 22.172 22.6667 22.172H22.6733C23.0415 22.172 23.34 21.8735 23.34 21.5053C23.34 21.1371 23.0415 20.8386 22.6733 20.8386H22.6667ZM16.6667 18.8386C16.6667 18.4704 16.9651 18.172 17.3333 18.172H17.34C17.7082 18.172 18.0067 18.4704 18.0067 18.8386C18.0067 19.2068 17.7082 19.5053 17.34 19.5053H17.3333C16.9651 19.5053 16.6667 19.2068 16.6667 18.8386ZM17.3333 20.8386C16.9651 20.8386 16.6667 21.1371 16.6667 21.5053C16.6667 21.8735 16.9651 22.172 17.3333 22.172H17.34C17.7082 22.172 18.0067 21.8735 18.0067 21.5053C18.0067 21.1371 17.7082 20.8386 17.34 20.8386H17.3333ZM21.3333 26.172V24.8386H18.6667V26.172H21.3333Z" fill="#09090B"/>
</g>
<defs>
<clipPath id="clip0_287_2336">
<rect width="16" height="16" fill="white" transform="translate(12 12.1719)"/>
</clipPath>
</defs>
</svg>
