<svg width="94" height="20" viewBox="0 0 94 20" fill="none" xmlns="http://www.w3.org/2000/svg">
<path fill-rule="evenodd" clip-rule="evenodd" d="M14.7567 3.45134L13.5645 4.36992C12.9088 3.51125 12.1206 2.85892 11.2 2.41627C10.2827 1.97362 9.27261 1.75063 8.16983 1.75063C6.9677 1.75063 5.85499 2.04351 4.82838 2.62262C3.80177 3.20505 3.01029 3.98385 2.44731 4.96234C1.88433 5.94083 1.59953 7.04579 1.59953 8.26723C1.59953 10.1177 2.22874 11.662 3.49047 12.9001C4.75221 14.1382 6.3418 14.7572 8.26256 14.7572C10.3754 14.7572 12.1405 13.9252 13.5612 12.2644L14.7534 13.173C14.0016 14.1348 13.0611 14.8804 11.9385 15.4029C10.8158 15.9287 9.55741 16.1917 8.16983 16.1917C5.53045 16.1917 3.44411 15.3097 1.92076 13.5424C0.64246 12.0547 0 10.2508 0 8.14409C0 5.92751 0.774923 4.05707 2.32146 2.54274C3.87131 1.02509 5.81194 0.269585 8.14665 0.269585C9.5541 0.269585 10.8258 0.549152 11.9617 1.10496C13.0976 1.6641 14.0281 2.44622 14.7534 3.44801L14.7567 3.45134ZM16.3529 4.60289H17.8432L21.6913 13.1996L25.4301 4.60289H26.9601L20.3004 19.9126H18.7704L20.9561 14.8937L16.3496 4.60289H16.3529ZM28.606 0.272912H30.0333V15.8156H28.606V0.272912ZM42.4421 12.098L43.6541 12.737C43.2567 13.5158 42.7964 14.1448 42.2732 14.6241C41.7499 15.1 41.1671 15.4661 40.5147 15.7157C39.859 15.9653 39.1238 16.0885 38.3025 16.0885C36.4745 16.0885 35.0505 15.4894 34.0205 14.2946C32.9906 13.0964 32.4773 11.7452 32.4773 10.2408C32.4773 8.82304 32.9145 7.555 33.7887 6.44671C34.8915 5.03556 36.3718 4.32665 38.2263 4.32665C40.0809 4.32665 41.6605 5.0522 42.7997 6.49663C43.6078 7.51839 44.0217 8.78976 44.035 10.3241H33.9477C33.9742 11.622 34.3914 12.6871 35.1929 13.5125C35.9976 14.3445 36.9944 14.7572 38.1733 14.7572C38.743 14.7572 39.3026 14.6574 39.8391 14.461C40.3789 14.2646 40.8359 14.005 41.2168 13.6755C41.5943 13.3494 42.0049 12.8235 42.4421 12.0947V12.098ZM42.4553 9.07931C42.2632 8.30717 41.9817 7.69478 41.6141 7.23549C41.2432 6.77287 40.7564 6.40344 40.1504 6.12388C39.5444 5.84098 38.9085 5.7012 38.2429 5.7012C37.1401 5.7012 36.193 6.05398 35.4015 6.75956C34.8186 7.27543 34.3848 8.04757 34.0868 9.07931H42.452H42.4553ZM46.6743 4.60289H48.1017V6.61312C48.6779 5.84431 49.317 5.27186 50.0125 4.89577C50.7112 4.51969 51.4729 4.32998 52.2942 4.32998C53.1155 4.32998 53.8739 4.53966 54.5229 4.96567C55.172 5.39167 55.6522 5.96412 55.9602 6.68634C56.2682 7.40523 56.4238 8.52683 56.4238 10.0511V15.8156H54.9965V10.4738C54.9965 9.18581 54.9402 8.32381 54.8309 7.89115C54.6554 7.15229 54.3342 6.59648 53.8606 6.22039C53.3871 5.84764 52.7711 5.66126 52.0127 5.66126C51.1418 5.66126 50.3602 5.95081 49.6747 6.52659C48.9859 7.09904 48.5289 7.8146 48.3136 8.66661C48.1778 9.22242 48.1083 10.2375 48.1083 11.7119V15.8189H46.681V4.60622L46.6743 4.60289ZM59.9905 0C60.315 0 60.5932 0.116488 60.825 0.35279C61.0568 0.585764 61.1727 0.86866 61.1727 1.19815C61.1727 1.52764 61.0568 1.80388 60.825 2.03685C60.5932 2.27316 60.3183 2.38964 59.9905 2.38964C59.6626 2.38964 59.3944 2.27316 59.1626 2.03685C58.9307 1.80388 58.8148 1.52431 58.8148 1.19815C58.8148 0.871989 58.9307 0.585764 59.1626 0.35279C59.3944 0.116488 59.6659 0 59.9905 0ZM59.2785 4.60289H60.7058V15.8156H59.2785V4.60289ZM63.5041 4.60289H64.9314V9.83481C64.9314 11.1128 65.001 11.9882 65.1368 12.4707C65.3388 13.1563 65.7362 13.6988 66.3124 14.0982C66.8886 14.4943 67.5841 14.6973 68.3855 14.6973C69.1869 14.6973 69.8658 14.5043 70.4288 14.1149C70.9851 13.7255 71.3726 13.2163 71.5845 12.5839C71.7269 12.1512 71.8031 11.236 71.8031 9.83481V4.60289H73.2735V10.1011C73.2735 11.6453 73.0947 12.8069 72.7337 13.589C72.376 14.3745 71.8329 14.9869 71.111 15.4262C70.389 15.8688 69.485 16.0918 68.3954 16.0918C67.3059 16.0918 66.3985 15.8688 65.6699 15.4262C64.9414 14.9869 64.395 14.3678 64.0373 13.5757C63.6763 12.7836 63.4975 11.5921 63.4975 10.0012V4.60622L63.5041 4.60289ZM76.4659 4.60289H77.8932V6.54323C78.3933 5.82767 78.9066 5.30514 79.4332 4.97232C80.1584 4.54298 80.9201 4.32998 81.7215 4.32998C82.2646 4.32998 82.7746 4.43648 83.2614 4.64949C83.7482 4.85916 84.1423 5.14539 84.4536 5.49818C84.7616 5.85429 85.0265 6.36018 85.255 7.02249C85.7319 6.14385 86.3313 5.47488 87.0433 5.01559C87.7619 4.5563 88.5302 4.32998 89.3582 4.32998C90.1298 4.32998 90.812 4.52634 91.4014 4.91907C91.9942 5.30847 92.4314 5.85429 92.7195 6.55654C93.0076 7.25546 93.15 8.30717 93.15 9.70834V15.8222H91.6796V9.70501C91.6796 8.5002 91.5968 7.67814 91.4246 7.22884C91.2524 6.77953 90.961 6.41676 90.5503 6.14052C90.1364 5.86761 89.6463 5.72782 89.0733 5.72782C88.3812 5.72782 87.7421 5.93417 87.1691 6.34686C86.5929 6.75956 86.1724 7.30871 85.9041 7.99432C85.6392 8.67993 85.5067 9.82815 85.5067 11.4323V15.8222H84.0761V10.0844C84.0761 8.73318 83.9933 7.8146 83.8244 7.32868C83.6555 6.84277 83.3674 6.4567 82.9501 6.16381C82.5295 5.87093 82.0361 5.72782 81.4632 5.72782C80.7975 5.72782 80.1783 5.92751 79.5987 6.33022C79.0225 6.73294 78.592 7.2721 78.3171 7.95106C78.0389 8.63001 77.8999 9.67173 77.8999 11.0729V15.8222H76.4725V4.60955L76.4659 4.60289Z" fill="#09090B"/>
</svg>
